<svg id="Basket" xmlns="http://www.w3.org/2000/svg" width="28.892" height="23.693" viewBox="0 0 28.892 23.693">
  <g id="Path_10327" data-name="Path 10327" transform="translate(7.035 0)" fill="#fff">
    <path d="M 7.53767728805542 13.67212390899658 C 3.794937372207642 13.67212390899658 0.7499973177909851 10.77370452880859 0.7499973177909851 7.211064338684082 C 0.7499973177909851 3.648424386978149 3.794937372207642 0.7500043511390686 7.53767728805542 0.7500043511390686 C 11.28041744232178 0.7500043511390686 14.32535743713379 3.648424386978149 14.32535743713379 7.211064338684082 C 14.32535743713379 10.77370452880859 11.28041744232178 13.67212390899658 7.53767728805542 13.67212390899658 Z" stroke="none"/>
    <path d="M 7.53767728805542 1.500004768371582 C 4.208487510681152 1.500004768371582 1.499997138977051 4.06197452545166 1.499997138977051 7.211064338684082 C 1.499997138977051 10.3601541519165 4.208487510681152 12.9221248626709 7.53767728805542 12.9221248626709 C 10.86686706542969 12.9221248626709 13.57535743713379 10.3601541519165 13.57535743713379 7.211064338684082 C 13.57535743713379 4.06197452545166 10.86686706542969 1.500004768371582 7.53767728805542 1.500004768371582 M 7.53767728805542 4.76837158203125e-06 C 11.70061683654785 4.76837158203125e-06 15.07535743713379 3.228504180908203 15.07535743713379 7.211064338684082 C 15.07535743713379 11.19362449645996 11.70061683654785 14.42212390899658 7.53767728805542 14.42212390899658 C 3.374737739562988 14.42212390899658 -2.86102294921875e-06 11.19362449645996 -2.86102294921875e-06 7.211064338684082 C -2.86102294921875e-06 3.228504180908203 3.374737739562988 4.76837158203125e-06 7.53767728805542 4.76837158203125e-06 Z" stroke="none" fill="#111441"/>
  </g>
  <g id="Path_1269" data-name="Path 1269" transform="translate(0 6.509)" fill="#fff">
    <path d="M 24.02600479125977 16.43393516540527 L 4.866459846496582 16.43393516540527 L 0.9597359895706177 0.7499956488609314 L 27.93272972106934 0.7499956488609314 L 24.02600479125977 16.43393516540527 Z" stroke="none"/>
    <path d="M 1.919469833374023 1.499995231628418 L 5.452556610107422 15.68393516540527 L 23.43990898132324 15.68393516540527 L 26.97299575805664 1.499995231628418 L 1.919469833374023 1.499995231628418 M 1.9073486328125e-06 -3.814697265625e-06 L 28.89246368408203 -3.814697265625e-06 L 24.61210250854492 17.18393516540527 L 4.280363082885742 17.18393516540527 L 1.9073486328125e-06 -3.814697265625e-06 Z" stroke="none" fill="#111441"/>
  </g>
</svg>
