<svg xmlns="http://www.w3.org/2000/svg" width="13.222" height="17.197" viewBox="0 0 13.222 17.197">
  <path id="Icon_material-lock-outline" data-name="Icon material-lock-outline" d="M12.361,14.222a1.59,1.59,0,1,0-1.59-1.59A1.595,1.595,0,0,0,12.361,14.222Zm4.771-7.156h-.8V5.476a3.976,3.976,0,1,0-7.951,0v1.59h-.8A1.6,1.6,0,0,0,6,8.656v7.951A1.6,1.6,0,0,0,7.59,18.2h9.541a1.6,1.6,0,0,0,1.59-1.59V8.656A1.6,1.6,0,0,0,17.132,7.066ZM9.9,5.476a2.465,2.465,0,1,1,4.93,0v1.59H9.9Zm7.235,11.132H7.59V8.656h9.541Z" transform="translate(-5.75 -1.25)" fill="#111441" stroke="#ededed" stroke-width="0.5"/>
</svg>
