<svg xmlns="http://www.w3.org/2000/svg" width="16.508" height="19.69" viewBox="0 0 16.508 19.69">
  <g id="Returns" transform="translate(-1196.497 -130.155)">
    <path id="Path_1032" data-name="Path 1032" d="M327.649,274.989l-1.879,1.821a7.715,7.715,0,0,1-1.876-7.468,7.413,7.413,0,0,1,2.434-3.818,7.67,7.67,0,0,1,4.168-1.8l-.147-1.344,4.89,2.149-4.306,3.156-.15-1.358A4.955,4.955,0,0,0,326.8,269.1,5.065,5.065,0,0,0,327.649,274.989Z" transform="translate(873.395 -131.42)" fill="#111441" stroke="#ededed" stroke-width="1"/>
    <path id="Path_1033" data-name="Path 1033" d="M388.034,318.18l1.89-1.832a7.548,7.548,0,0,1,1.853,7.5,7.631,7.631,0,0,1-6.575,5.613l.144,1.319-4.889-2.148,4.305-3.155.149,1.347a5.072,5.072,0,0,0,3.987-2.742A5.143,5.143,0,0,0,388.034,318.18Z" transform="translate(820.389 -181.736)" fill="#111441" stroke="#ededed" stroke-width="1"/>
  </g>
</svg>
