<?xml version="1.0" encoding="utf-8"?>
<!-- Generator: Adobe Illustrator 17.1.0, SVG Export Plug-In . SVG Version: 6.00 Build 0)  -->
<!DOCTYPE svg PUBLIC "-//W3C//DTD SVG 1.1//EN" "http://www.w3.org/Graphics/SVG/1.1/DTD/svg11.dtd">
<svg version="1.1" xmlns="http://www.w3.org/2000/svg" xmlns:xlink="http://www.w3.org/1999/xlink" x="0px" y="0px"
	 viewBox="0 0 792 530" enable-background="new 0 0 792 530" xml:space="preserve">
<g id="Layer_1">
	<rect fill="#4D4D4D" width="792" height="530"/>
</g>
<g id="Layer_2">
	<g>
		<rect x="3" y="352.3" fill="#0061AA" width="786" height="58.2"/>
		<rect x="3" y="468.8" fill="#0061AA" width="786" height="58.2"/>
		<rect x="3" y="410.6" fill="#FFFFFF" width="786" height="58.2"/>
		<rect x="3" y="294.1" fill="#FFFFFF" width="786" height="58.2"/>
		<rect x="3" y="177.7" fill="#FFFFFF" width="786" height="58.2"/>
		<rect x="3" y="119.5" fill="#0061AA" width="786" height="58.2"/>
		<rect x="3" y="61.2" fill="#FFFFFF" width="786" height="58.2"/>
		<polygon fill="#0061AA" points="789,61 789,3 294.1,3 3,3 3,61.2 3,235.9 3,294.1 3,294 789,294 789,236 294,236 294,61 		"/>
		<polygon fill="#FFFFFF" points="294.1,119.4 177.7,119.4 177.7,3 119.4,3 119.4,119.4 3,119.4 3,177.7 119.4,177.7 119.4,294.1 
			177.7,294.1 177.7,177.7 294.1,177.7 		"/>
	</g>
</g>
</svg>
