<?xml version="1.0" encoding="utf-8"?>
<!-- Generator: Adobe Illustrator 17.1.0, SVG Export Plug-In . SVG Version: 6.00 Build 0)  -->
<!DOCTYPE svg PUBLIC "-//W3C//DTD SVG 1.1//EN" "http://www.w3.org/Graphics/SVG/1.1/DTD/svg11.dtd">
<svg version="1.1" id="Layer_1" xmlns="http://www.w3.org/2000/svg" xmlns:xlink="http://www.w3.org/1999/xlink" x="0px" y="0px"
	 viewBox="0 0 792 530" enable-background="new 0 0 792 530" xml:space="preserve">
<rect fill="#4D4D4D" width="792" height="530"/>
<rect x="3" y="3" fill="#E30A17" width="786" height="522"/>
<g>
	<rect x="3" y="3" fill="#FFFFFF" width="786" height="524"/>
	<rect x="3" y="54.5" fill="#0148C8" width="786" height="78.6"/>
	<rect x="3" y="397" fill="#0148C8" width="786" height="78.6"/>
	<path fill="#0148C8" d="M462.7,265l33.2-57.4h-66.3L396,149.4l-33.5,58.1h-66.4l8.5,14.8l24.7,42.7l-33.2,57.4h17h49.3l33.5,58.1
		l33.5-58.1h66.3L462.7,265z M396,188.7l10.8,18.8h-21.7L396,188.7z M330.1,302.8l10.5-18.1l10.5,18.1H330.1z M340.6,245.3
		l-10.5-18.1h21L340.6,245.3z M396,341.3l-10.9-18.8h21.7L396,341.3z M418.2,302.8h-44.4L352,265l21.8-37.8h44.4L440,265
		L418.2,302.8z M440.9,302.8l10.5-18.1l10.5,18.1H440.9z M451.4,245.4l-10.5-18.2h21L451.4,245.4z"/>
</g>
</svg>
