<?xml version="1.0" encoding="utf-8"?>
<!-- Generator: Adobe Illustrator 17.1.0, SVG Export Plug-In . SVG Version: 6.00 Build 0)  -->
<!DOCTYPE svg PUBLIC "-//W3C//DTD SVG 1.1//EN" "http://www.w3.org/Graphics/SVG/1.1/DTD/svg11.dtd">
<svg version="1.1" xmlns="http://www.w3.org/2000/svg" xmlns:xlink="http://www.w3.org/1999/xlink" x="0px" y="0px"
	 viewBox="0 0 792 530" enable-background="new 0 0 792 530" xml:space="preserve">
<g id="Layer_1">
	<rect fill="#4D4D4D" width="792" height="530"/>
</g>
<g id="Layer_4">
	<g>
		<rect x="317.4" y="3" fill="#CE1126" width="471.6" height="524"/>
		<rect x="3" y="3" fill="#3D8E33" width="314.4" height="524"/>
		<path fill="#FCD856" d="M414.7,342.5c-37.5-1.2-209.5-108.6-210.7-125.6l9.4-15.9c17.1,24.8,193,129.2,210.2,125.5L414.7,342.5"/>
		<path d="M414.7,342.2c-37.2-1-209.5-108.7-210.4-125.4l-0.3,0.1l0.3,0.1l9.5-15.8l-0.3-0.1l-0.3,0.2
			c17,24.5,186.9,125.6,209.5,125.7l1.1-0.1l-0.1-0.3l-0.3-0.1l-9,15.9l0.5,0.3l9-15.9l0.3-0.6l-0.6,0.1l-1,0.1
			c-21.9,0.1-192.4-101.3-208.9-125.5l-0.3-0.4l-9.7,16.3l0,0.1v0.1c1.5,17.6,173.2,124.6,211,125.9V342.2z"/>
		<path fill="#FCD856" d="M211.4,198.8c-3.3,9.1,44.9,38.9,103,74.2c58.1,35.3,108.2,57.2,111.8,54.1l1.7-3.2l-5,0.6
			c-15.7-4.5-56.6-23.3-107.3-54c-50.6-30.7-94.7-59-101.6-71l-0.8-3.5h-0.1l-1.5,2.5L211.4,198.8z M415.6,342.9l-4.1,1
			c-14-1.6-56.6-22.3-107-52.5c-58.6-35.1-107-67-101.8-75.4l1.5-2.5l0.3,0.1c-4.7,14.2,95.6,71.5,101.5,75.2
			c58,36,106.9,56.9,111.3,51.5L415.6,342.9L415.6,342.9z"/>
		<path d="M211.4,198.8l-0.2-0.1l-0.2,1.1c0.2,10.5,47.1,39.2,103.2,73.5c54.5,33.1,101.7,54.3,110.7,54.3l1.5-0.3l1.7-3.2l0.3-0.6
			l-5.6,0.7c-15.5-4.5-56.4-23.2-107.1-54c-50.6-30.7-94.8-59.1-101.5-70.9l-0.7-3.5l-0.1-0.2h-0.4H213l-1.6,2.7l-0.2,0.4
			L211.4,198.8l0.3,0.2l0.2-0.4l1.5-2.5l-0.3-0.1v0.3h0.1v-0.3L213,196l0.7,3.5c7,12.2,51.1,40.5,101.8,71.2
			c50.7,30.8,91.6,49.5,107.3,54.1l4.6-0.5l-1.4,2.6l-1,0.2c-8.6,0-56-21.2-110.4-54.3c-56.1-34-103.2-63.4-103-72.9l0.1-0.9
			L211.4,198.8z M415.6,342.9l-0.1-0.3l-4.1,1c-13.7-1.5-56.4-22.3-106.8-52.4c-55.7-33.3-102.2-64.1-102-73.7l0.3-1.3l1.4-2.3l0,0
			l0.1-0.3l-0.3-0.1l-0.1,1.1c0.2,16.2,96,70.7,101.8,74.4c51.9,32.1,96.4,52.3,108.6,52.3l3-0.9l-0.2-0.2l-0.3-0.1l-1.6,2.7
			L415.6,342.9l0.3,0.1v-0.1v-0.4l-0.4,0.1L415.6,342.9h-0.3v0.1v1.1l2.2-3.7l-0.5-0.4l-2.6,0.7c-11.7,0.1-56.5-20.1-108.3-52.3
			c-5.7-3.5-101.7-58.6-101.5-73.9l0.1-0.9l0.1-0.3l-0.6-0.2l-0.2,0l-1.6,2.7l-0.4,1.6c0.2,10.6,46.6,40.8,102.3,74.3
			c50.4,30.2,93,50.9,107.1,52.5l4.2-1L415.6,342.9h-0.3H415.6z"/>
		<path fill="#FCD856" d="M315.7,349.7c45.3,0.2,84.8-6.4,102.9-15.8l6.5-11.5c-15.7,8.6-58.3,17.4-109.3,16.1
			c-41.6-0.3-86-4.6-107.3-16.7l9.6,13.4C235.4,344.8,276.8,349.7,315.7,349.7"/>
		<path d="M315.7,350h2.3c44.4,0,82.9-6.6,100.7-15.8l6.7-11.6l0.5-0.9l-0.9,0.5c-14.5,7.9-52.5,16.2-98.9,16.2l-10.3-0.1
			c-41.6-0.3-85.9-4.6-107.1-16.6l-0.4,0.5l9.6,13.4C235.3,345.1,276.7,350,315.7,350v-0.6c-38.9,0-80.2-4.9-97.4-14.5l-9.6-13.3
			l-0.2,0.2l-0.1,0.3c21.4,12.1,65.8,16.4,107.5,16.7L326,339c46.5,0,84.5-8.3,99.2-16.3l-0.2-0.3l-0.3-0.2l-6.6,11.5
			c-17.5,9-56,15.6-100.3,15.6h-2.3V350z"/>
		<path fill="#FCD856" d="M316.3,340.2c-28.8-0.2-51.6-1.3-71.7-5c-18.2-3.3-31.4-9.6-38.3-13.2l-1.2-2.6c3.6,2.6,19.5,9.2,40,13.1
			c19.5,3.4,42.1,5,71.2,4.9c25.7,0,50.6-1.2,70.3-4.9c19.6-3.8,34.8-8.3,40.9-12.3l-2,3.5c-2.5,2.8-20.1,8-38.6,11.5
			C367.1,338.8,342.1,340.2,316.3,340.2z M316.3,350.7c-26.1-0.1-50.2-1.7-68.9-5.1c-13.6-2.7-22.6-6-29.3-9.5l-2.5-3.8
			c4.9,3.1,14.5,7.2,32.3,10.6c18.6,3.4,42.6,5,68.5,5.1c24.7-0.2,48.1-1.5,66.9-4.8c16.2-2.9,34.5-8,39.3-13.5l-2.8,4.6
			c-5.4,4.1-20.3,8.7-35.3,11.7C365.4,349.4,341,350.8,316.3,350.7"/>
		<path d="M316.3,340.2v-0.3c-28.8-0.2-51.6-1.3-71.7-5c-18.2-3.3-31.3-9.6-38.2-13.1l-1.1-2.4l-0.3,0.1l-0.2,0.2
			c3.6,2.7,19.5,9.2,40.1,13.1c19,3.4,41.1,4.9,69.2,4.9h2.1h1.2c25.3,0,49.7-1.3,69.1-4.9c19.6-3.8,34.9-8.3,41.1-12.4l-0.2-0.3
			l-0.3-0.2l-2,3.5c-2.2,2.6-20,7.9-38.4,11.4c-19.6,3.6-44.2,5-69.6,5h-1V340.2v0.3h1c25.5,0,50.1-1.5,69.7-5
			c18.6-3.5,36.1-8.6,38.8-11.6l2-3.5l-0.4-0.4c-6.1,4-21.3,8.5-40.9,12.3c-19.4,3.7-43.8,4.9-69,4.9h-1.2h-2.1
			c-28.1,0-50.1-1.5-69.1-4.9c-20.4-3.8-36.4-10.4-39.8-13l-0.5,0.3l1.2,2.6c7,3.7,20.2,10,38.5,13.4c20.1,3.7,43,4.8,71.8,5V340.2z
			 M316.3,350.4c-26.1-0.1-50.2-1.7-68.9-5.1c-13.6-2.7-22.6-5.9-29.2-9.4l-2.4-3.7l-0.3,0.2l-0.2,0.3c4.9,3.2,14.6,7.2,32.4,10.6
			c18.6,3.5,42.6,5,68.6,5.1c24.7-0.2,48.1-1.5,67-4.8c16.2-3,34.5-8,39.5-13.7l-0.3-0.2l-0.3-0.2l-2.8,4.6
			c-5.3,3.9-20.1,8.6-35.1,11.5c-18.7,3.4-42.7,4.8-67.1,4.8H316.3v0.6h1c24.4,0,48.4-1.4,67.2-4.8c15-3,29.9-7.6,35.4-11.8l2.9-4.7
			l-0.5-0.3c-4.7,5.3-23,10.5-39.1,13.4c-18.9,3.3-42.2,4.6-66.9,4.8c-25.9-0.1-49.8-1.6-68.4-5.1c-17.7-3.4-27.3-7.5-32.2-10.6
			l-0.4,0.4l2.5,3.8c6.9,3.6,15.9,6.9,29.5,9.6c18.8,3.4,42.9,5,69,5.1V350.4z"/>
		<path fill="#FCD856" d="M317.1,290.5c41.9-0.4,93.9-5.9,123.6-18V262c-17.6,9.9-76.3,16.4-124,17.4
			c-56.4-0.5-102.2-8.2-122.2-21.9l-0.3,13.7C230.9,287,268.8,290.4,317.1,290.5"/>
		<path d="M317.1,290.8c41.9-0.3,93.9-5.8,123.7-18l0.2-0.1V262v-0.6l-0.5,0.3c-17.4,9.8-76.2,16.4-123.8,17.4
			c-56.4-0.5-102.2-8.2-122.1-21.8l-0.4-0.3l-0.3,14.2v0.2l0.2,0.1C230.9,287.3,268.8,290.7,317.1,290.8v-0.6
			c-48.3-0.2-86.1-3.6-122.7-19.4l-0.1,0.3h0.3l0.3-13.7h-0.3l-0.2,0.3c20.1,13.7,65.9,21.4,122.4,21.9
			c47.7-0.9,106.3-7.5,124.1-17.4l-0.1-0.3h-0.3v10.6h0.3l-0.1-0.2c-29.6,12.1-81.7,17.6-123.5,18V290.8z"/>
		<path fill="#FCD856" d="M442.1,272.8c-1,1.7-20.5,8.5-49,13.5c-19.3,3-44.6,5.6-76.1,5.7c-30,0-54.5-2.2-73-4.7
			c-30-4.8-45.5-11.6-51.2-13.9v-3c16.4,6.8,33.4,10.8,51.6,13.6c18.4,2.6,42.6,4.8,72.4,4.7c31.4,0,56.4-2.8,75.6-5.7
			c29.2-4.8,47.3-11,49.6-13.9V272.8z"/>
		<path d="M442.1,272.8l-0.3-0.2c-0.7,1.5-20.3,8.4-48.8,13.4c-19.3,3-44.6,5.6-76.1,5.7h-0.8c-29.6,0-53.8-2.2-72.1-4.7
			c-29.9-4.8-45.4-11.5-51.1-13.8l-0.1,0.3h0.3v-3h-0.3l-0.1,0.3c16.5,6.8,33.5,10.8,51.7,13.7c18.1,2.6,41.8,4.8,70.9,4.8h1.5
			c31.4,0,56.4-2.8,75.7-5.7c29.3-4.8,47.3-11,49.8-14.1l-0.3-0.2h-0.3v3.7H442.1l-0.3-0.2L442.1,272.8h0.3v-3.7v-0.9l-0.5,0.7
			c-2,2.7-20.2,9-49.4,13.8c-19.3,3-44.2,5.7-75.6,5.7h-1.5c-29.1,0-52.7-2.2-70.8-4.7c-18.2-2.8-35.2-6.9-51.6-13.6l-0.4-0.2v3.4
			v0.2l0.2,0.1c5.7,2.3,21.3,9.1,51.2,13.9c18.4,2.5,42.6,4.8,72.2,4.8h0.8c31.5-0.1,56.8-2.6,76.2-5.7
			c28.6-5.1,47.9-11.7,49.2-13.7l0-0.1v-0.1H442.1z"/>
		<path fill="#FCD856" d="M442.1,272.8c-1,1.7-20.5,8.5-49,13.5c-19.3,3-44.6,5.6-76.1,5.7c-30,0-54.5-2.2-73-4.7
			c-30-4.8-45.5-11.6-51.2-13.9v-3c16.4,6.8,33.5,10.8,51.6,13.6c18.4,2.6,42.6,4.8,72.4,4.7c31.4,0,56.4-2.8,75.6-5.7
			c29.2-4.8,47.3-11,49.6-13.9V272.8z M442.1,262c-3.2,2.6-24.7,8.3-52.5,12.9c-18.6,2.7-42.2,5.2-72.4,5.2
			c-28.6,0.1-52.1-1.9-69.9-4.6c-28.2-3.8-54.5-16.5-54.5-16.5l-0.1-4.1c0,0,26.3,13.4,54.9,17.6c17.6,2.5,41.1,4.4,69.6,4.4
			c30-0.1,53.4-2.5,71.9-5.2c28-3.9,50.7-11.2,53-13V262z"/>
		<path d="M442.1,272.8l-0.3-0.2c-0.7,1.4-20.3,8.4-48.8,13.4c-19.3,3-44.6,5.6-76.1,5.7h-0.8c-29.6,0-53.8-2.2-72.1-4.7
			c-29.9-4.8-45.4-11.5-51.1-13.8l-0.1,0.3h0.3v-3h-0.3l-0.1,0.3c16.5,6.8,33.5,10.8,51.7,13.7c18.1,2.6,41.8,4.8,70.9,4.8h1.5
			c31.4,0,56.4-2.8,75.7-5.7c29.3-4.8,47.3-11,49.8-14.1l-0.3-0.2h-0.3v3.7H442.1l-0.3-0.2L442.1,272.8h0.3v-3.7v-0.9l-0.5,0.7
			c-2,2.7-20.2,9-49.4,13.8c-19.3,3-44.2,5.7-75.6,5.7h-1.5c-29.1,0-52.7-2.2-70.8-4.7c-18.2-2.8-35.2-6.9-51.6-13.6l-0.4-0.2v3.4
			v0.2l0.2,0.1c5.7,2.3,21.3,9.1,51.2,13.9c18.4,2.5,42.6,4.8,72.2,4.8h0.8c31.5-0.1,56.8-2.6,76.2-5.7
			c28.6-5.1,47.9-11.8,49.2-13.7l0-0.1v-0.1H442.1z M442.1,262l-0.2-0.2c-3,2.5-24.6,8.3-52.3,12.8c-18.6,2.7-42.2,5.1-72.3,5.1
			h-1.6c-27.9,0-50.8-2-68.3-4.6c-28.2-3.8-54.4-16.4-54.5-16.4l-0.1,0.2h0.3l-0.1-4.1h-0.3l-0.1,0.3c0,0,26.3,13.4,55,17.6
			c17.5,2.5,40.7,4.4,68.8,4.4h0.8c30-0.1,53.4-2.5,71.9-5.2c28.1-4,50.7-11.2,53.1-13.1l-0.2-0.2h-0.3v3.4H442.1l-0.2-0.2
			L442.1,262h0.3v-3.4v-0.7l-0.5,0.5c-2,1.7-24.9,9.1-52.8,12.9c-18.4,2.7-41.8,5.2-71.8,5.2h-0.8c-28.2,0-51.3-1.9-68.7-4.4
			c-28.6-4.2-54.8-17.5-54.8-17.5l-0.5-0.3l0.1,4.6v0.2l0.1,0.1c0.1,0,26.3,12.7,54.7,16.5c17.5,2.6,40.4,4.6,68.3,4.6h1.6
			c30.2,0,53.8-2.5,72.4-5.2c27.9-4.6,49.2-10.2,52.6-13l0.1-0.1V262H442.1z"/>
		<path fill="#FCD856" d="M317.7,227.2c37.6-0.3,83.9-5.1,110.5-15.7l-5.7-9.3c-15.8,8.7-62.4,14.5-105.1,15.3
			c-50.6-0.5-86.3-5.2-104.2-17.2l-5.4,10C240.7,224.1,274.4,227,317.7,227.2"/>
		<path d="M317.7,227.5c37.6-0.3,83.9-5.1,110.6-15.8l0.4-0.1l-5.9-9.7l-0.1-0.2l-0.3,0.1c-15.6,8.6-62.2,14.5-105,15.3
			c-50.6-0.4-86.3-5.1-104.1-17.1l-0.3-0.2l-5.5,10.2l-0.1,0.3l0.3,0.1C240.6,224.4,274.4,227.4,317.7,227.5v-0.6
			c-43.4-0.1-77-3.1-109.8-17l-0.1,0.3l0.2,0.1l5.4-9.9l-0.3-0.1l-0.2,0.3c18,12.1,53.8,16.8,104.4,17.2
			c42.8-0.8,89.4-6.6,105.3-15.4l-0.1-0.3l-0.3,0.1l5.7,9.4l0.3-0.2l-0.1-0.3c-26.5,10.6-72.9,15.4-110.4,15.7V227.5z"/>
		<path fill="#FCD856" d="M429.8,211.7c-0.9,1.5-18.3,7.4-43.9,11.9c-17.4,2.6-40.1,4.9-68.3,4.9c-26.9,0.1-48.8-1.9-65.4-4.2
			c-26.9-4.2-40.8-10-45.9-12.1l1.2-2.6c14.8,5.9,28.8,9.4,45.1,12c16.5,2.2,38.2,4.1,64.9,4.1c28.2,0,50.6-2.5,67.9-5.1
			c26.3-4.2,40.6-9.6,42.6-12.2L429.8,211.7z M424.8,202.2c-2.9,2.2-17,7.3-42,11.3c-16.6,2.4-37.8,4.6-64.9,4.6
			c-25.7,0.1-46.7-1.7-62.7-4c-25.3-3.3-38.8-9.3-43.7-11l1.5-2.5c3.8,1.9,16.8,7.2,42.5,10.8c15.8,2.2,36.8,3.9,62.4,3.9
			c26.9,0,47.9-2.2,64.4-4.6c25.1-3.4,38.6-9.8,40.7-11.5L424.8,202.2"/>
		<path d="M429.8,211.7l-0.3-0.1c-0.6,1.2-18.2,7.3-43.7,11.7c-17.4,2.6-40,4.9-68.3,4.9h-0.8c-26.5,0-48.2-1.9-64.6-4.2
			c-26.9-4.2-40.7-10-45.8-12.1l-0.1,0.3l0.3,0.1l1.2-2.6l-0.3-0.1l-0.1,0.3c14.8,5.9,28.8,9.5,45.1,12c16.5,2.2,38.3,4.1,65,4.1
			c28.2,0,50.6-2.5,67.9-5.1c26.3-4.2,40.6-9.6,42.8-12.3l-0.2-0.2l-0.3,0.1l1.8,3.2L429.8,211.7l-0.3-0.1L429.8,211.7l0.3-0.1
			l-1.8-3.2l-0.2-0.4l-0.3,0.3c-1.8,2.3-16.2,7.9-42.4,12.1c-17.3,2.6-39.7,5.1-67.8,5.1c-26.7,0-48.4-1.9-64.9-4.2
			c-16.3-2.5-30.2-6-45-11.9l-0.3-0.1l-1.3,2.9l-0.2,0.3l0.3,0.1c5.1,2.1,19,7.9,46,12.2c16.4,2.2,38.1,4.1,64.6,4.1h0.8
			c28.3,0,51-2.3,68.4-4.9c25.7-4.5,42.9-10.3,44.1-12l0.1-0.2l-0.1-0.1L429.8,211.7z M424.6,201.9c-2.8,2.2-16.9,7.3-41.9,11.2
			c-16.6,2.4-37.8,4.6-64.8,4.6h-0.9c-25.3,0-46-1.7-61.8-4c-25.3-3.3-38.7-9.2-43.6-11l-0.1,0.3l0.3,0.2l1.5-2.5l-0.3-0.2l-0.2,0.3
			c3.8,1.9,16.9,7.2,42.6,10.9c15.8,2.2,36.9,3.9,62.5,3.9c26.9,0,47.9-2.2,64.4-4.6c25.1-3.4,38.6-9.8,40.8-11.5l-0.2-0.2l-0.3,0.1
			l1.8,3.1l0.5-0.3l-1.8-3.1l-0.1-0.3l-0.3,0.3c-2,1.6-15.5,8-40.5,11.4c-16.5,2.4-37.4,4.6-64.4,4.6c-25.6,0-46.6-1.6-62.4-3.9
			c-25.6-3.6-38.6-9-42.4-10.8l-0.2-0.1l-1.7,2.7l-0.2,0.3l0.3,0.1c4.9,1.7,18.4,7.7,43.8,11c15.8,2.3,36.6,4,61.9,4h0.9
			c27.1,0,48.3-2.2,64.9-4.6c25-4,39.1-9,42.2-11.4L424.6,201.9z"/>
		<path fill="#FCD856" d="M317.4,143.9c-66.9,0-121.1,54.3-121.1,121.1c0,66.9,54.2,121.1,121.1,121.1
			c66.9,0,121.1-54.2,121.1-121.1C438.4,198.2,384.3,143.9,317.4,143.9z M317.4,374.4c-60.5,0-109.4-49-109.4-109.4
			c0-60.4,48.9-109.5,109.4-109.5c60.4,0,109.4,49,109.4,109.5C426.8,325.4,377.8,374.4,317.4,374.4z"/>
		<path fill="#FCD856" d="M439.7,265c0,67.6-54.8,122.3-122.3,122.3c-67.5,0-122.3-54.7-122.3-122.3c0-67.5,54.7-122.3,122.3-122.3
			C384.9,142.7,439.7,197.5,439.7,265z M317.4,145.2c-66.1,0-119.8,53.7-119.8,119.8c0,66.1,53.7,119.8,119.8,119.8
			c66.2,0,119.9-53.7,119.9-119.8C437.3,198.8,383.6,145.2,317.4,145.2z"/>
		<path d="M439.7,265h-0.3c-0.1,67.4-54.6,121.9-122,122c-67.4-0.1-121.8-54.6-122-122c0.1-67.4,54.6-121.9,122-122
			c67.4,0.1,121.8,54.6,122,122H439.7h0.3c0-67.7-54.9-122.6-122.6-122.6c-67.7,0-122.6,54.9-122.6,122.6
			c0,67.7,54.9,122.6,122.6,122.6c67.7,0,122.6-54.9,122.6-122.6H439.7z M317.4,145.2v-0.3c-66.3,0-120.1,53.8-120.1,120.1
			c0,66.3,53.8,120.1,120.1,120.1c66.4,0,120.2-53.8,120.2-120.1c0-66.3-53.8-120.1-120.2-120.1V145.2v0.3
			c66.1,0.1,119.4,53.5,119.5,119.5c-0.1,66-53.5,119.4-119.5,119.5C251.4,384.4,198,331,197.9,265c0.1-66,53.5-119.4,119.5-119.5
			V145.2z"/>
		<path fill="#FCD856" d="M428.1,265c0,61.1-49.5,110.7-110.7,110.7c-61.1,0-110.6-49.6-110.6-110.7c0-61.1,49.5-110.7,110.6-110.7
			C378.5,154.3,428.1,203.9,428.1,265z M317.4,156.8c-59.7,0-108.2,48.5-108.2,108.2c0,59.7,48.5,108.2,108.2,108.2
			c59.8,0,108.2-48.5,108.2-108.2C425.6,205.2,377.2,156.8,317.4,156.8z"/>
		<path d="M428.1,265h-0.3c-0.1,61-49.4,110.3-110.4,110.4c-61-0.1-110.2-49.4-110.3-110.4c0.1-61,49.4-110.2,110.3-110.4
			c61,0.1,110.2,49.4,110.4,110.4H428.1h0.3c0-61.3-49.6-111-111-111c-61.3,0-111,49.7-111,111c0,61.3,49.7,111,111,111
			c61.3,0,111-49.8,111-111H428.1z M317.4,156.8v-0.3c-59.9,0-108.5,48.6-108.5,108.5c0,59.9,48.6,108.5,108.5,108.5
			c59.9,0,108.5-48.6,108.5-108.5c0-59.9-48.6-108.5-108.5-108.5V156.8v0.3c59.6,0.1,107.8,48.3,107.9,107.9
			c-0.1,59.6-48.3,107.8-107.9,107.9c-59.6-0.1-107.8-48.3-107.9-107.9c0.1-59.6,48.3-107.8,107.9-107.9V156.8z"/>
		<path fill="#FCD856" d="M316.1,239.2c51-0.3,104.2,7.3,124.6,18v13.1c-17.7-9.7-66.9-19.9-124.5-18.4c-46.9,0.3-96.8,5.3-121.9,19
			v-15.2C214.9,244.8,272.3,239.3,316.1,239.2"/>
		<path d="M316.1,239.5h2.6c50.2,0,101.9,7.5,121.8,17.9l0.2-0.3h-0.3v13.1h0.3l0.1-0.3c-16.6-9.1-60.6-18.6-113.3-18.6
			c-3.7,0-7.5,0-11.3,0.1c-46.9,0.3-96.8,5.3-122.1,19.1l0.2,0.2h0.3v-15.2h-0.3l0.1,0.3C214.9,245.1,272.3,239.6,316.1,239.5v-0.6
			c-43.9,0.1-101.3,5.6-122,16.6l-0.1,0.1v15.3v0.5l0.5-0.2c25-13.7,75-18.7,121.8-19c3.8-0.1,7.6-0.1,11.3-0.1
			c52.6,0,96.6,9.4,113,18.5l0.5,0.2v-13.6v-0.2l-0.2-0.1c-20.1-10.6-71.8-18-122.1-18h-2.6V239.5z"/>
		<path fill="#FCD856" d="M316.8,250c29.1-0.1,57.2,1.6,79.6,5.7c20.8,4,42.9,9.9,45.7,13.1v4c-6.9-4.6-24.1-9.7-46.1-14
			c-22.2-4.2-50.3-5.7-79.2-5.6c-32.8-0.1-58.3,1.6-80.3,5.6c-23.2,4.4-39.7,10.7-43.7,13.7v-4.1c7.7-4.1,22.5-8.9,43.1-12.7
			C258.6,251.5,284.4,250.2,316.8,250z M316.8,238c27.8-0.1,55.3,1.5,76.8,5.5c16.9,3.3,42.4,8.6,48.5,13.3v5.2
			c-5.5-6.2-31.6-12.1-49.8-15.4c-21.3-3.8-47.6-5.3-75.4-5.5c-29.2,0.1-56.3,1.9-77.2,5.8c-20,3.9-41.3,8.5-46.8,12.1v-4.4
			c7.5-4.1,31-7.8,46.3-10.8C260.2,239.9,287.4,238.1,316.8,238"/>
		<path d="M316.8,250v0.3h1.9c28.4,0,55.7,1.7,77.6,5.7c20.7,3.9,42.9,10,45.5,12.9l0.2-0.2h-0.3v4h0.3l0.2-0.3
			c-7-4.6-24.2-9.8-46.3-14.1c-21.6-4.1-48.9-5.6-77.1-5.6h-2.2h-3c-31.4,0-56,1.8-77.3,5.6c-23.2,4.4-39.8,10.7-43.8,13.8l0.2,0.2
			h0.3v-4.1h-0.3l0.1,0.3c7.7-4,22.5-8.9,43-12.7c22.6-4.2,48.4-5.5,80.9-5.7V250v-0.3c-32.5,0.2-58.3,1.5-80.9,5.7
			c-20.6,3.8-35.4,8.6-43.2,12.7l-0.1,0.1v4.3v0.6l0.5-0.4c3.8-2.9,20.5-9.3,43.5-13.7c21.2-3.8,45.9-5.5,77.2-5.5h3h2.2
			c28.2,0,55.4,1.5,77,5.5c22,4.3,39.2,9.4,46,14l0.5,0.3v-4.6v-0.1l-0.1-0.1c-3.1-3.4-25-9.2-45.9-13.2c-22-4.1-49.3-5.7-77.7-5.7
			h-1.9V250z M316.8,238.3h1.9c27.2,0,53.9,1.6,74.8,5.5c16.9,3.3,42.4,8.6,48.4,13.2l0.2-0.3h-0.3v5.2h0.3l0.3-0.2
			c-5.7-6.4-31.8-12.2-50-15.5c-21.3-3.8-47.7-5.3-75.5-5.5c-29.2,0.1-56.3,1.9-77.2,5.8c-20,3.9-41.3,8.4-46.9,12.1l0.2,0.2h0.3
			v-4.4h-0.3l0.1,0.3c7.5-4,30.9-7.7,46.2-10.8C260.3,240.2,287.4,238.4,316.8,238.3v-0.6c-29.4,0.1-56.6,1.9-77.7,5.9
			c-15.4,3-38.7,6.7-46.4,10.8l-0.1,0.1v4.6v0.6l0.4-0.3c5.4-3.6,26.7-8.2,46.7-12.1c20.9-3.9,47.9-5.7,77.2-5.8
			c27.8,0.2,54.1,1.7,75.4,5.5c18.2,3.2,44.4,9.2,49.6,15.3l0.5,0.6v-6v-0.1l-0.1-0.1c-6.2-4.8-31.7-10-48.7-13.3
			c-20.9-3.9-47.7-5.5-74.9-5.5h-1.9V238.3z"/>
		<path fill="#FCD856" d="M316.9,182.1c45.7-0.2,85.7,6.4,103.9,15.8l6.6,11.5c-15.8-8.6-58.9-17.5-110.5-16.1
			c-42,0.2-87,4.6-109.5,16.6l7.9-13.3C233.9,187.1,277.5,182.2,316.9,182.1"/>
		<path d="M316.9,182.4h2.3c44.8,0,83.7,6.6,101.5,15.8l6.5,11.4l0.3-0.1l0.2-0.3c-14.9-8-53.3-16.2-100.3-16.3l-10.4,0.2
			c-42,0.3-87,4.6-109.6,16.7l0.1,0.3l0.3,0.2l7.9-13.3C233.9,187.4,277.6,182.5,316.9,182.4v-0.6c-39.4,0.1-83.1,4.9-101.7,14.6
			l-8,13.5l-0.6,0.9l1-0.5c22.4-12,67.4-16.4,109.3-16.6l10.4-0.2c46.9,0,85.3,8.3,100,16.2l0.9,0.5l-7.1-12.5
			c-18.2-9.4-57.1-16-101.9-16h-2.3V182.4z"/>
		<path fill="#FCD856" d="M317.5,191.7c26.1-0.1,51.3,1.4,71.4,5c18.6,3.5,36.4,8.6,39,11.5l2,3.4c-6.2-4-21.6-8.5-41.4-12.3
			c-19.9-3.8-45.1-5-71-4.9c-29.4-0.1-52.3,1.5-72,4.9c-20.8,3.9-35.2,9.4-38.8,12.1l2-3.7c6.9-3.5,17.9-7.8,36.3-11.1
			C265.2,192.9,288.4,191.8,317.5,191.7z M317.5,181.1c25,0,49.6,1.3,68.8,4.8c15.2,3,30.2,7.5,35.6,11.7l2.9,4.6
			c-4.9-5.5-23.4-10.7-39.7-13.6c-19.1-3.3-42.7-4.6-67.7-4.8c-26.2,0-50.5,1.7-69.2,5.1c-18,3.4-29.5,7.5-34.4,10.6l2.5-3.8
			c6.8-3.5,17.7-6.8,31.5-9.5C266.8,182.7,291.1,181.2,317.5,181.1"/>
		<path d="M317.5,191.7v0.3h1.9c25.4,0,49.9,1.5,69.5,5c18.6,3.4,36.5,8.7,38.8,11.4l2,3.4l0.3-0.2l0.1-0.3
			c-6.3-4.1-21.7-8.6-41.5-12.3c-19.3-3.6-43.7-4.9-68.8-4.9h-2.3h-3c-28.1,0-50,1.6-69,4.9c-20.8,3.9-35.2,9.4-38.9,12.1l0.2,0.2
			l0.3,0.2l2-3.7c6.7-3.4,17.7-7.7,36.1-11c20.3-3.7,43.4-4.8,72.5-5V191.7v-0.3c-29.1,0.1-52.3,1.3-72.6,5
			c-18.4,3.3-29.5,7.6-36.4,11.1l-2.1,3.8l0.5,0.4c3.5-2.6,17.9-8.1,38.6-12c19-3.3,41-4.9,69-4.9h3h2.3c25.1,0,49.4,1.3,68.7,4.9
			c19.8,3.8,35.2,8.3,41.3,12.3l0.4-0.4l-2-3.5c-2.8-3-20.5-8.2-39.2-11.7c-19.6-3.5-44.2-5-69.6-5h-1.9V191.7z M317.5,181.4h1
			c24.6,0,48.9,1.4,67.8,4.8c15.1,2.9,30.1,7.5,35.5,11.6l2.9,4.5l0.2-0.1l0.3-0.2c-5.1-5.6-23.6-10.7-39.9-13.7
			c-19.1-3.3-42.7-4.6-67.7-4.8c-26.2,0-50.5,1.6-69.3,5.1c-18,3.4-29.5,7.5-34.5,10.6l0.2,0.3l0.3,0.1l2.5-3.8
			c6.6-3.4,17.5-6.6,31.3-9.3C266.8,183.1,291.1,181.5,317.5,181.4v-0.6c-26.4,0.1-50.8,1.7-69.7,5.1c-13.8,2.7-24.7,5.9-31.6,9.5
			l-2.6,4l0.4,0.4c4.8-3.1,16.4-7.1,34.3-10.6c18.7-3.4,43-5.1,69.2-5.1c25,0.2,48.5,1.5,67.6,4.8c16.3,2.9,34.8,8.1,39.6,13.4
			l0.5-0.3l-2.9-4.6c-5.7-4.2-20.7-8.8-35.9-11.8c-19-3.4-43.3-4.8-67.9-4.8h-1V181.4z"/>
		<path fill="#FCD856" d="M317.5,191.7c26.1-0.1,51.3,1.4,71.4,5c18.7,3.5,36.5,8.6,39,11.5l2,3.4c-6.2-4-21.6-8.5-41.4-12.3
			c-19.9-3.8-45.1-5-71-4.9c-29.4-0.1-52.3,1.5-72,4.9c-20.8,3.9-35.2,9.4-38.8,12.1l2-3.7c6.9-3.5,17.9-7.8,36.3-11.1
			C265.2,192.9,288.4,191.8,317.5,191.7z M317.5,181.1c25,0,49.6,1.3,68.8,4.8c15.2,3,30.2,7.5,35.6,11.7l2.9,4.6
			c-4.9-5.5-23.4-10.7-39.7-13.6c-19-3.3-42.7-4.6-67.7-4.8c-26.2,0-50.5,1.7-69.2,5.1c-18,3.4-29.5,7.5-34.4,10.6l2.5-3.8
			c6.8-3.5,17.7-6.8,31.5-9.5C266.8,182.7,291.1,181.2,317.5,181.1z"/>
		<path d="M317.5,191.7v0.3h1.9c25.4,0,49.9,1.5,69.5,5c18.6,3.4,36.5,8.7,38.8,11.4l2,3.4l0.3-0.2l0.1-0.3
			c-6.3-4.1-21.7-8.6-41.5-12.3c-19.3-3.6-43.7-4.9-68.8-4.9h-2.3h-3c-28.1,0-50,1.6-69,4.9c-20.8,3.9-35.2,9.4-38.9,12.1l0.2,0.2
			l0.3,0.2l2-3.7c6.7-3.4,17.7-7.7,36.1-11c20.3-3.7,43.4-4.8,72.5-5V191.7v-0.3c-29.1,0.1-52.3,1.3-72.6,5
			c-18.4,3.3-29.5,7.6-36.4,11.1l-2.1,3.8l0.5,0.4c3.5-2.6,17.9-8.1,38.6-12c19-3.3,41-4.9,69-4.9h3h2.3c25.1,0,49.4,1.3,68.7,4.9
			c19.8,3.8,35.2,8.3,41.3,12.3l0.4-0.4l-2-3.5c-2.8-3-20.5-8.2-39.2-11.7c-19.6-3.5-44.1-5-69.6-5h-1.9V191.7z M317.5,181.1v0.3h1
			c24.6,0,48.9,1.4,67.8,4.8c15.1,2.9,30.1,7.5,35.5,11.6l2.9,4.5l0.2-0.1l0.3-0.2c-5.1-5.6-23.6-10.7-39.9-13.7
			c-19.1-3.3-42.7-4.6-67.7-4.8c-26.2,0-50.5,1.6-69.3,5.1c-18,3.4-29.5,7.5-34.5,10.6l0.2,0.3l0.3,0.1l2.5-3.8
			c6.6-3.4,17.5-6.6,31.3-9.3c18.9-3.5,43.2-5,69.6-5.1V181.1v-0.3c-26.4,0.1-50.8,1.7-69.7,5.1c-13.8,2.7-24.7,5.9-31.6,9.5l-2.6,4
			l0.4,0.4c4.8-3.1,16.4-7.2,34.3-10.6c18.7-3.4,43-5.1,69.2-5.1c25,0.2,48.6,1.5,67.6,4.8c16.3,2.9,34.8,8.1,39.6,13.4l0.5-0.3
			l-2.9-4.6c-5.7-4.2-20.7-8.8-35.9-11.8c-19-3.4-43.3-4.8-67.9-4.8h-1V181.1z"/>
		<path fill="#FCD856" d="M316.5,304.4c37.6,0.3,83.9,5.1,110.5,15.8l-5.7,9.3c-15.8-8.7-62.4-14.5-105.1-15.3
			c-50.6,0.4-85.7,5.6-103.2,15.5l-4.9-8.3C239.5,307.5,273.2,304.5,316.5,304.4"/>
		<path d="M316.5,304.7c37.5,0.3,83.9,5.1,110.4,15.7l0.1-0.3l-0.3-0.2l-5.7,9.4l0.3,0.1l0.1-0.2c-15.9-8.8-62.4-14.5-105.3-15.4
			c-50.7,0.5-85.7,5.6-103.3,15.5l0.1,0.3l0.3-0.1l-4.9-8.3l-0.3,0.2l0.1,0.3C239.5,307.8,273.2,304.8,316.5,304.7v-0.6
			c-43.4,0.1-77.1,3.1-108.5,17l-0.3,0.1l5,8.6l0.1,0.3l0.3-0.1c17.4-9.8,52.5-15,103-15.5c42.7,0.9,89.4,6.6,105,15.3l0.3,0.1
			l5.9-9.6l0.2-0.3l-0.4-0.1c-26.7-10.6-73.1-15.5-110.6-15.8V304.7z"/>
		<path fill="#FCD856" d="M427.4,320l-1.9,3.2c-2-2.6-16.3-8-42.4-12.2c-17.2-2.6-39.4-5-67.4-5c-26.6-0.1-48.1,1.9-64.5,4.1
			c-16.3,2.5-30.1,6.1-44.8,11.9l-1.3-2.6c5.1-2.1,18.9-7.9,45.6-12.1c16.6-2.2,38.4-4.2,65.1-4.1c28.1,0,50.6,2.3,67.9,4.9
			C409.1,312.5,426.4,318.5,427.4,320z M418.3,331.1c-5.1-2.5-17.8-7.3-38.2-10.1c-16.4-2.4-37.3-4.6-64.1-4.6
			c-25.4-0.1-46.3,1.6-62,3.9c-25.5,3.6-38.5,9-42.2,10.8l-1.5-2.5c4.9-1.8,18.3-7.7,43.5-11c15.9-2.3,36.8-4,62.3-4
			c26.9,0,48,2.2,64.6,4.5c20.6,3.3,33.8,7.3,39.3,9.9L418.3,331.1z"/>
		<path d="M427.4,320l-0.3-0.2l-1.9,3.2l0.3,0.1l0.2-0.2c-2.2-2.8-16.4-8.1-42.6-12.3c-17.1-2.6-39.4-5-67.4-5h-0.7
			c-26.3,0-47.6,2-63.8,4.1c-16.3,2.5-30.1,6.1-44.9,12l0.1,0.3l0.3-0.1l-1.2-2.6l-0.3,0.1l0.1,0.3c5.1-2,18.8-7.9,45.5-12.1
			c16.4-2.2,37.9-4.1,64.2-4.1h0.8c28.1,0,50.6,2.3,67.9,4.9c25.4,4.4,42.9,10.6,43.5,11.8L427.4,320l-0.3-0.2L427.4,320l0.3-0.2
			c-1.3-1.7-18.4-7.5-44-12c-17.3-2.6-39.8-4.9-67.9-4.9h-0.8c-26.3,0-47.9,1.9-64.3,4.1c-26.7,4.2-40.6,10.1-45.7,12.2l-0.3,0.1
			l1.4,2.8l0.1,0.3l0.2-0.1c14.7-5.8,28.5-9.4,44.8-11.9c16.3-2.2,37.5-4.2,63.8-4.2h0.7c28,0,50.2,2.4,67.4,5
			c26.1,4.2,40.4,9.7,42.2,12.1l0.3,0.3l2.1-3.6l0.1-0.1l-0.1-0.2L427.4,320z M418.3,331.1l0.1-0.2c-5.1-2.6-17.8-7.4-38.3-10.2
			c-16.4-2.4-37.3-4.6-64.1-4.6h-0.9c-25.1,0-45.7,1.7-61.2,3.9c-25.6,3.6-38.6,9-42.4,10.9l0.2,0.3l0.3-0.1l-1.5-2.5l-0.3,0.2
			l0.1,0.3c4.9-1.8,18.2-7.7,43.4-11c15.7-2.2,36.3-4,61.5-4h0.8c26.9,0,48,2.2,64.5,4.5c20.5,3.3,33.7,7.3,39.2,9.8l0.1-0.3
			l-0.2-0.1l-1.6,3.2L418.3,331.1l0.1-0.2L418.3,331.1l0.3,0.1l1.5-3.1l0.1-0.3l-0.3-0.1c-5.5-2.6-18.7-6.6-39.3-10
			c-16.5-2.4-37.7-4.5-64.6-4.5h-0.8c-25.2,0-45.8,1.7-61.5,4c-25.2,3.3-38.7,9.3-43.6,11.1l-0.3,0.1l1.7,2.8l0.2,0.3l0.3-0.1
			c3.7-1.8,16.6-7.1,42.1-10.8c15.5-2.3,36.1-3.9,61.2-3.9h0.9c26.8,0,47.6,2.2,64,4.6c20.4,2.8,33.1,7.7,38.1,10.1l0.3,0.1l0.1-0.3
			L418.3,331.1z"/>
		<rect x="322.3" y="142.1" fill="#FCD856" width="2.6" height="245.8"/>
		<polygon points="324.9,387.9 324.9,387.6 322.6,387.6 322.6,142.4 324.6,142.4 324.6,387.9 324.9,387.9 324.9,387.6 324.9,387.9 
			325.2,387.9 325.2,141.8 322.3,141.8 322,141.8 322,388.2 324.9,388.2 325.2,388.2 325.2,387.9 		"/>
		<rect x="309.9" y="142.1" fill="#FCD856" width="2.6" height="245.8"/>
		<polygon points="312.5,387.9 312.5,387.6 310.2,387.6 310.2,142.4 312.2,142.4 312.2,387.9 312.5,387.9 312.5,387.6 312.5,387.9 
			312.8,387.9 312.8,141.8 309.9,141.8 309.6,141.8 309.6,388.2 312.5,388.2 312.8,388.2 312.8,387.9 		"/>
		<rect x="312.5" y="143.3" fill="#FCD856" width="9.7" height="243.4"/>
		<polygon points="322.3,386.7 322.3,386.4 312.8,386.4 312.8,143.6 322,143.6 322,386.7 322.3,386.7 322.3,386.4 322.3,386.7 
			322.6,386.7 322.6,143 312.5,143 312.2,143 312.2,387 322.3,387 322.6,387 322.6,386.7 		"/>
		<path fill="#FCD856" d="M214.3,196.5c37.8-0.5,212.3,106.6,212.8,126.3l-10.8,16.6c-4.9-22.9-181.9-127.1-211.1-125.2L214.3,196.5
			"/>
		<path d="M214.3,196.8h0.3c38-0.2,211.9,106.9,212.2,126h0.3l-0.3-0.1L416,339.2l0.3,0.2l0.3-0.1C411.4,316.3,238,214,206,213.9
			l-0.9,0l0.1,0.3l0.3,0.2l9.2-17.7l-0.6-0.3l-9.1,17.7l-0.3,0.5l0.6-0.1l0.8,0c31.3-0.1,205.4,102.7,209.9,125l0.1,0.7l11.2-17.2
			l0.1-0.1v-0.1c-0.8-20.1-174.2-126.4-212.8-126.6h-0.3V196.8z"/>
		<path fill="#FCD856" d="M204.1,213.6c7-4.8,58.6,18.2,112.5,50.7c53.8,32.6,105.1,69.5,100.5,76.3l-1.5,2.4l-0.7,0.5l-0.1-3.6
			c-2.3-7.5-38.7-36.6-99.2-73.1c-59-35.2-108.1-56.4-113-50.3L204.1,213.6z M428.1,324c4.4-8.8-43.4-44.8-102.6-79.8
			c-60.6-34.3-104.3-54.6-112.3-48.5l-1.8,3.2l0.5-0.5l4.9-1.2c13.7,0.2,53,18.3,108.1,49.9c24.1,14,101.9,64,101.6,77.9l-0.3,2
			L428.1,324"/>
		<path d="M204.1,213.6l0.1,0.3l2.7-0.6c13.1,0,60.4,21.7,109.4,51.3c51.5,31.2,100.8,66.6,100.6,75.1l-0.2,0.9l-1.5,2.4l-0.1,0.1
			l-0.1-3c-2.5-7.9-38.9-36.8-99.4-73.4c-52.2-31.2-96.7-51.4-109.7-51.4l-3.6,1.1l0.2,0.2l0.3,0.1l1.5-3L204.1,213.6l-0.3-0.1
			l-1.5,2.9l0.5,0.4l3.2-0.9c12.7,0,57.3,20.1,109.4,51.3c60.5,36.4,97,65.7,99.1,72.9l0.1,3.5v0.6l1.2-0.9l1.6-2.5l0.3-1.2
			c-0.1-9.4-49.4-44.2-100.9-75.6c-49.2-29.6-96.2-51.4-109.8-51.4l-3.1,0.7L204.1,213.6z M428.4,324.2l0.3-1.4
			c-0.2-11-46.3-45.2-103.1-78.9c-53.5-30.2-93.6-49.6-108.1-49.6l-4.5,1.1l-1.8,3.3l0.5,0.4l0.5-0.5l4.8-1.1
			c13.5,0.2,52.8,18.2,107.8,49.8c24,13.9,101.7,64,101.5,77.6v0.1l-0.3,2l0.6,0.2L428.4,324.2l-0.5-0.3l-1.2,1.8l0.1-0.6v-0.1
			c-0.2-14.6-77.7-64-101.8-78.1c-55.1-31.6-94.3-49.6-108.2-49.9l-5,1.2l-0.6,0.6l0.2,0.2l0.3,0.1l1.8-3.2l4-0.9
			c14.1,0,54.4,19.3,107.8,49.5c56.7,33.5,102.9,68.2,102.7,78.3l-0.2,1.1L428.4,324.2z"/>
		<path fill="#FFFFFF" d="M244.8,277.2c0,19.9,8.1,37.8,21.3,51c13.3,13.2,31.2,21.5,51.1,21.5c20.1,0,38.2-8.1,51.4-21.3
			c13.1-13.1,21.3-31.3,21.3-51.2v-97H244.8V277.2z"/>
		<path d="M244.8,277.2h-0.3c0,19.9,8.2,38,21.4,51.2c13.3,13.2,31.3,21.6,51.4,21.6c20.1,0,38.4-8.2,51.6-21.3
			c13.2-13.3,21.4-31.4,21.4-51.5V180H244.5v97.3H244.8h0.3v-96.7h144.6v96.7c0,19.9-8.1,37.9-21.3,51
			c-13.1,13.1-31.2,21.2-51.2,21.2c-19.9,0-37.7-8.3-50.9-21.4c-13.2-13.1-21.3-31-21.3-50.8H244.8z"/>
		<path fill="#CE1126" d="M247.7,277.2L247.7,277.2c0,19,7.9,36.4,20.5,49c12.7,12.6,30.1,20.4,49.1,20.4c19.2,0,36.6-7.7,49.2-20.3
			c12.6-12.5,20.4-29.9,20.4-49v-93.9H247.8L247.7,277.2"/>
		<path d="M247.4,277.2L247.4,277.2c0,19.1,7.9,36.5,20.6,49.2c12.7,12.7,30.2,20.5,49.4,20.5c19.3,0,36.8-7.8,49.4-20.4
			c12.6-12.6,20.5-30,20.5-49.2v-94.2H247.5L247.4,277.2h0.6l0.1-93.6h138.6v93.6c0,19-7.8,36.3-20.3,48.7
			c-12.5,12.5-29.9,20.3-49,20.3c-19,0-36.3-7.8-48.9-20.3c-12.6-12.5-20.4-29.8-20.4-48.7v0H247.4z"/>
		<path fill="#FFFFFF" d="M276.2,272.9L276.2,272.9c0,12.4,4.6,23.7,12.1,31.8c7.4,8.2,17.8,13.3,29.1,13.3c11.4,0,21.7-5,29.1-13.2
			c7.5-8.2,12.1-19.4,12.1-31.8v-61.1h-82.4L276.2,272.9"/>
		<path d="M275.9,272.9L275.9,272.9c0,12.5,4.7,23.8,12.2,32c7.5,8.3,18,13.4,29.3,13.4c11.5,0,21.8-5.1,29.3-13.3
			c7.5-8.2,12.2-19.5,12.2-32v-61.4h-83L275.9,272.9h0.6l0-60.7h81.7V273c0,12.3-4.6,23.5-12,31.6c-7.4,8.1-17.6,13.1-28.9,13.1
			c-11.2,0-21.5-5-28.8-13.1c-7.5-8.1-12.1-19.3-12.1-31.6v0H275.9z"/>
		<polyline fill="#0072C6" points="308.3,266.7 308.3,266.7 311,273.8 317.4,276.7 323.8,273.8 326.5,266.7 326.5,253.3 
			308.3,253.3 308.3,266.7 		"/>
		<polyline fill="#FFFFFF" points="322.4,256.2 320.6,258.1 322.4,259.9 324.2,258.1 322.4,256.2 		"/>
		<polyline fill="#FFFFFF" points="317.3,261.1 315.5,262.9 317.3,264.8 319.1,262.9 317.3,261.1 		"/>
		<polyline fill="#FFFFFF" points="322.3,266.2 320.6,268 322.3,269.8 324.2,268 322.3,266.2 		"/>
		<polyline fill="#FFFFFF" points="312.4,266.2 310.6,268.1 312.4,269.9 314.3,268.1 312.4,266.2 		"/>
		<polyline fill="#FFFFFF" points="312.4,256.2 310.6,258.1 312.4,259.9 314.2,258.1 312.4,256.2 		"/>
		<polyline fill="#0072C6" points="282.9,266.7 282.9,266.7 285.5,273.8 292,276.7 298.3,273.8 301,266.7 301,253.3 282.9,253.3 
			282.9,266.7 		"/>
		<polyline fill="#FFFFFF" points="296.9,256.2 295.1,258.1 296.9,259.9 298.7,258.1 296.9,256.2 		"/>
		<polyline fill="#FFFFFF" points="291.8,261.1 290,262.9 291.8,264.8 293.7,262.9 291.8,261.1 		"/>
		<polyline fill="#FFFFFF" points="296.9,266.2 295.1,268 296.9,269.8 298.7,268 296.9,266.2 		"/>
		<polyline fill="#FFFFFF" points="287,266.2 285.1,268.1 287,269.9 288.8,268.1 287,266.2 		"/>
		<polyline fill="#FFFFFF" points="287,256.2 285.1,258.1 287,259.9 288.7,258.1 287,256.2 		"/>
		<polyline fill="#0072C6" points="333.8,266.7 333.8,266.7 336.5,273.8 342.9,276.7 349.3,273.8 352,266.7 352,253.3 333.8,253.3 
			333.8,266.7 		"/>
		<polyline fill="#FFFFFF" points="347.9,256.2 346.1,258.1 347.9,259.9 349.7,258.1 347.9,256.2 		"/>
		<polyline fill="#FFFFFF" points="342.8,261.1 341,262.9 342.8,264.8 344.6,262.9 342.8,261.1 		"/>
		<polyline fill="#FFFFFF" points="347.8,266.2 346.1,268 347.8,269.8 349.7,268 347.8,266.2 		"/>
		<polyline fill="#FFFFFF" points="337.9,266.2 336.1,268.1 337.9,269.9 339.8,268.1 337.9,266.2 		"/>
		<polyline fill="#FFFFFF" points="337.9,256.2 336.1,258.1 337.9,259.9 339.7,258.1 337.9,256.2 		"/>
		<polyline fill="#0072C6" points="308.3,297.4 308.3,297.5 311,304.5 317.4,307.4 323.8,304.5 326.5,297.5 326.5,284.1 308.3,284 
			308.3,297.4 		"/>
		<polyline fill="#FFFFFF" points="322.4,287 320.6,288.8 322.4,290.6 324.2,288.8 322.4,287 		"/>
		<polyline fill="#FFFFFF" points="317.3,291.8 315.5,293.7 317.3,295.5 319.1,293.7 317.3,291.8 		"/>
		<polyline fill="#FFFFFF" points="322.3,296.9 320.6,298.7 322.3,300.6 324.2,298.7 322.3,296.9 		"/>
		<polyline fill="#FFFFFF" points="312.4,296.9 310.6,298.8 312.4,300.6 314.3,298.8 312.4,296.9 		"/>
		<polyline fill="#FFFFFF" points="312.4,287 310.6,288.8 312.4,290.6 314.2,288.8 312.4,287 		"/>
		<polyline fill="#0072C6" points="308.3,236 308.3,236 311,243.1 317.4,246 323.8,243.1 326.5,236.1 326.5,222.6 308.3,222.6 
			308.3,236 		"/>
		<polyline fill="#FFFFFF" points="322.4,225.5 320.6,227.4 322.4,229.2 324.2,227.4 322.4,225.5 		"/>
		<polyline fill="#FFFFFF" points="317.3,230.4 315.5,232.2 317.3,234.1 319.1,232.2 317.3,230.4 		"/>
		<polyline fill="#FFFFFF" points="322.3,235.5 320.6,237.3 322.3,239.1 324.2,237.3 322.3,235.5 		"/>
		<polyline fill="#FFFFFF" points="312.4,235.5 310.6,237.4 312.4,239.1 314.3,237.4 312.4,235.5 		"/>
		<polyline fill="#FFFFFF" points="312.4,225.5 310.6,227.4 312.4,229.2 314.2,227.4 312.4,225.5 		"/>
		<polygon fill="#FCD856" points="307.3,207.7 327.4,207.7 326.5,200 308.2,200 		"/>
		<polygon points="307.3,207.7 307.3,208 327.4,208 327.8,208 326.8,200 326.8,199.7 308.2,199.7 307.9,199.7 307,207.7 307,208 
			307.3,208 307.3,207.7 307.6,207.8 308.5,200.3 326.3,200.3 327.1,207.4 307.3,207.4 307.3,207.7 307.6,207.8 		"/>
		<polyline fill="#FCD856" points="317.3,200.6 322.4,207.7 312.4,207.7 317.3,200.6 		"/>
		<polygon points="317.1,200.8 321.8,207.4 313,207.4 317.6,200.8 317.1,200.4 312.1,207.6 311.8,208 322.4,208 323,208 
			317.5,200.4 		"/>
		<path fill="#FCD856" d="M317.3,202.3c0,0,2.9,1.4,2.9,5.4h-5.6C314.6,203.7,317.3,202.3,317.3,202.3z"/>
		<path d="M317.3,202.3l-0.1,0.3c0,0,2.7,1.3,2.7,5.2h0.3v-0.3h-5.6v0.3h0.3c0-3.9,2.6-5.1,2.6-5.2L317.3,202.3l-0.1,0.3
			L317.3,202.3l-0.1-0.3c0,0-2.9,1.5-2.9,5.7v0.3h5.9h0.3v-0.3c0-4.2-3-5.7-3.1-5.7l-0.1-0.1l-0.1,0.1L317.3,202.3z"/>
		<polygon fill="#FCD856" points="307.5,196.5 327.3,196.5 328.1,197.4 327.3,198.2 307.5,198.2 306.7,197.4 		"/>
		<polygon points="307.5,196.5 307.5,196.8 327.2,196.8 327.7,197.4 327.2,197.9 307.6,197.9 307.1,197.4 307.7,196.7 307.5,196.5 
			307.5,196.8 307.5,196.5 307.2,196.3 306.5,197.2 306.3,197.4 307.2,198.4 307.3,198.5 327.3,198.5 327.4,198.5 328.3,197.6 
			328.5,197.4 327.6,196.3 327.4,196.2 307.5,196.2 307.3,196.2 307.2,196.3 		"/>
		<polygon fill="#FCD856" points="307,207.7 327.9,207.7 328.7,208.6 327.9,209.6 307,209.6 306.2,208.6 		"/>
		<polygon points="307,207.7 307,208 327.7,208 328.3,208.6 327.7,209.3 307.1,209.3 306.6,208.6 307.2,207.9 307,207.7 307,208 
			307,207.7 306.7,207.6 305.9,208.5 305.7,208.6 306.7,209.8 306.8,209.9 327.9,209.9 328,209.9 328.9,208.8 329,208.6 
			328.1,207.6 328,207.4 307,207.4 306.8,207.4 306.7,207.6 		"/>
		<polygon fill="#FCD856" points="307.9,198.2 326.9,198.2 327.6,199.1 326.9,200 307.9,200 307.2,199.1 		"/>
		<polygon points="307.9,198.2 307.9,198.5 326.8,198.5 327.2,199.1 326.8,199.6 308.1,199.6 307.6,199.1 308.1,198.4 307.9,198.2 
			307.9,198.5 307.9,198.2 307.7,198 307,198.9 306.8,199.1 307.7,200.2 307.7,200.2 326.9,200.2 327.1,200.2 327.9,199.3 
			328,199.1 327.2,198 327.1,197.9 307.9,197.9 307.7,197.9 307.7,198 		"/>
		<polyline fill="#FCD856" points="319.8,188.4 320.2,196.5 314.9,196.5 315.3,188.4 319.8,188.4 		"/>
		<polygon points="319.5,188.4 319.9,196.2 315.2,196.2 315.5,188.7 319.8,188.7 319.8,188.1 315.3,188.1 314.9,188.1 314.6,196.5 
			314.6,196.8 320.2,196.8 320.5,196.8 320.1,188.4 		"/>
		<polygon fill="#FCD856" points="314.2,185.3 315.7,185.3 315.7,186.4 316.8,186.4 316.8,185.3 318.3,185.3 318.3,186.4 
			319.4,186.4 319.4,185.3 320.8,185.3 320.8,187.8 320.2,188.4 314.9,188.4 314.2,187.8 314.2,185.3 		"/>
		<polygon points="314.2,185.3 314.2,185.6 315.4,185.6 315.4,186.4 315.4,186.7 316.8,186.7 317.1,186.7 317.1,185.6 318,185.6 
			318,186.4 318,186.7 319.4,186.7 319.7,186.7 319.7,185.6 320.6,185.6 320.6,187.7 320.1,188.1 314.9,188.1 314.5,187.7 
			314.5,185.3 314.2,185.3 314.2,185.6 314.2,185.6 314.2,185.3 314.2,185 314.2,185 313.9,185 313.9,187.8 313.9,187.9 
			314.7,188.6 314.8,188.7 320.2,188.7 321,188 321.2,187.9 321.2,185.3 321.2,185 319.4,185 319,185 319,186.1 318.6,186.1 
			318.6,185.3 318.6,185 316.8,185 316.5,185 316.5,186.1 316,186.1 316,185.3 316,185 314.2,185 		"/>
		<polyline points="317,191.8 318,191.8 318,193.7 317,193.7 317,191.8 		"/>
		<polygon fill="#FCD856" points="320.6,189.2 322.1,189.2 322.1,190.2 323.2,190.2 323.2,189.2 324.7,189.2 324.7,190.2 
			325.8,190.2 325.8,189.2 327.3,189.2 327.3,191.6 326.6,192.2 321.3,192.2 320.6,191.6 		"/>
		<polygon points="320.6,189.2 320.6,189.5 321.8,189.5 321.8,190.2 321.8,190.5 323.2,190.5 323.5,190.5 323.5,189.5 324.4,189.5 
			324.4,190.2 324.4,190.5 325.8,190.5 326.1,190.5 326.1,189.5 327,189.5 327,191.5 326.5,191.9 321.3,191.9 320.9,191.5 
			320.9,189.2 320.6,189.2 320.6,189.5 320.6,189.2 320.4,189.2 320.4,191.6 320.4,191.7 321.2,192.5 326.6,192.5 327.5,191.8 
			327.6,191.7 327.6,189.2 327.6,188.9 325.8,188.9 325.5,188.9 325.5,189.9 325,189.9 325,189.2 325,188.9 323.2,188.9 
			322.9,188.9 322.9,189.9 322.4,189.9 322.4,189.2 322.4,188.9 320.6,188.9 320.4,188.9 320.4,189.2 		"/>
		<polyline fill="#FCD856" points="326.3,192.2 326.5,196.5 321.5,196.5 321.6,192.2 326.3,192.2 		"/>
		<polygon points="326,192.2 326.2,196.2 321.8,196.2 321.9,192.5 326.3,192.5 326.3,191.9 321.6,191.9 321.3,191.9 321.2,196.5 
			321.2,196.8 326.5,196.8 326.8,196.8 326.6,192.2 		"/>
		<polygon fill="#FCD856" points="307.7,189.2 309.1,189.2 309.1,190.2 310.2,190.2 310.2,189.2 311.8,189.2 311.8,190.2 
			312.8,190.2 312.8,189.2 314.3,189.2 314.3,191.6 313.7,192.2 308.4,192.2 307.7,191.6 		"/>
		<polygon points="307.7,189.2 307.7,189.5 308.8,189.5 308.8,190.2 308.8,190.5 310.2,190.5 310.5,190.5 310.5,189.5 311.4,189.5 
			311.4,190.2 311.4,190.5 312.8,190.5 313.2,190.5 313.2,189.5 314,189.5 314,191.5 313.6,191.9 308.4,191.9 308,191.5 308,189.2 
			307.7,189.2 307.7,189.5 307.7,189.2 307.4,189.2 307.4,191.6 307.4,191.7 308.2,192.5 313.7,192.5 314.5,191.8 314.6,191.7 
			314.6,189.2 314.6,188.9 312.8,188.9 312.5,188.9 312.5,189.9 312.1,189.9 312.1,189.2 312.1,188.9 310.2,188.9 309.9,188.9 
			309.9,189.9 309.5,189.9 309.5,189.2 309.5,188.9 307.7,188.9 307.4,188.9 307.4,189.2 		"/>
		<polyline fill="#FCD856" points="313.4,192.2 313.5,196.5 308.5,196.5 308.7,192.2 313.4,192.2 		"/>
		<polygon points="313.1,192.2 313.2,196.2 308.8,196.2 308.9,192.5 313.4,192.5 313.4,191.9 308.7,191.9 308.3,191.9 308.2,196.5 
			308.2,196.8 313.5,196.8 313.8,196.8 313.7,192.2 		"/>
		<polyline points="323.4,194.1 324.5,194.1 324.5,195.2 323.4,195.2 323.4,194.1 		"/>
		<polyline points="310.5,194.1 311.5,194.1 311.5,195.2 310.5,195.2 310.5,194.1 		"/>
		<polygon fill="#FCD856" points="362.8,207.7 382.9,207.7 382,200 363.7,200 		"/>
		<polygon points="362.8,207.7 362.8,208 382.9,208 383.3,208 382.3,200 382.3,199.7 363.7,199.7 363.4,199.7 362.5,207.7 
			362.5,208 362.8,208 362.8,207.7 363.1,207.8 363.9,200.3 381.7,200.3 382.6,207.4 362.8,207.4 362.8,207.7 363.1,207.8 		"/>
		<polyline fill="#FCD856" points="372.8,200.6 377.8,207.7 367.9,207.7 372.8,200.6 		"/>
		<polygon points="372.5,200.8 377.3,207.4 368.4,207.4 373,200.8 372.5,200.4 367.6,207.6 367.3,208 377.8,208 378.4,208 
			373,200.4 372.6,200.8 		"/>
		<path fill="#FCD856" d="M372.8,202.3c0,0,3,1.4,3,5.4H370C370,203.7,372.8,202.3,372.8,202.3z"/>
		<path d="M372.8,202.3l-0.1,0.3c0,0,2.7,1.3,2.7,5.2h0.3v-0.3H370v0.3h0.3c0-3.9,2.6-5.1,2.6-5.2L372.8,202.3l-0.1,0.3L372.8,202.3
			l-0.1-0.3c0,0-2.9,1.5-2.9,5.7v0.3h6h0.3v-0.3c0-4.2-3.1-5.7-3.2-5.7l-0.1-0.1l-0.1,0.1L372.8,202.3z"/>
		<polygon fill="#FCD856" points="362.9,196.5 382.8,196.5 383.6,197.4 382.8,198.2 362.9,198.2 362.2,197.4 		"/>
		<polygon points="362.9,196.5 362.9,196.8 382.7,196.8 383.1,197.4 382.7,197.9 363.1,197.9 362.6,197.4 363.2,196.7 362.9,196.5 
			362.9,196.8 362.9,196.5 362.7,196.3 362,197.2 361.8,197.4 362.7,198.4 362.8,198.5 382.8,198.5 382.9,198.5 383.8,197.6 
			384,197.4 383,196.3 382.9,196.2 362.9,196.2 362.8,196.2 362.7,196.3 		"/>
		<polygon fill="#FCD856" points="362.4,207.7 383.3,207.7 384.1,208.6 383.3,209.6 362.4,209.6 361.6,208.6 		"/>
		<polygon points="362.4,207.7 362.4,208 383.1,208 383.7,208.6 383.1,209.3 362.5,209.3 362,208.6 362.6,207.9 362.4,207.7 
			362.4,208 362.4,207.7 362.2,207.6 361.4,208.5 361.2,208.6 362.2,209.8 362.3,209.9 383.3,209.9 383.4,209.9 384.3,208.8 
			384.5,208.6 383.5,207.6 383.4,207.4 362.4,207.4 362.3,207.4 362.2,207.6 		"/>
		<polygon fill="#FCD856" points="363.3,198.2 382.4,198.2 383.1,199.1 382.4,200 363.3,200 362.6,199.1 		"/>
		<polygon points="363.3,198.2 363.3,198.5 382.2,198.5 382.7,199.1 382.2,199.6 363.5,199.6 363,199.1 363.6,198.4 363.3,198.2 
			363.3,198.5 363.3,198.2 363.1,198 362.4,198.9 362.3,199.1 363.1,200.2 363.2,200.2 382.4,200.2 382.5,200.2 383.3,199.3 
			383.5,199.1 382.6,198 382.5,197.9 363.3,197.9 363.2,197.9 363.1,198 		"/>
		<polyline fill="#FCD856" points="375.3,188.4 375.6,196.5 370.3,196.5 370.7,188.4 375.3,188.4 		"/>
		<polygon points="375,188.4 375.3,196.2 370.7,196.2 371,188.7 375.3,188.7 375.3,188.1 370.7,188.1 370.4,188.1 370,196.5 
			370,196.8 375.6,196.8 375.9,196.8 375.6,188.4 		"/>
		<polygon fill="#FCD856" points="369.7,185.3 371.2,185.3 371.2,186.4 372.2,186.4 372.2,185.3 373.7,185.3 373.7,186.4 
			374.8,186.4 374.8,185.3 376.3,185.3 376.3,187.8 375.7,188.4 370.4,188.4 369.7,187.8 		"/>
		<polygon points="369.7,185.3 369.7,185.6 370.9,185.6 370.9,186.4 370.9,186.7 372.2,186.7 372.6,186.7 372.6,185.6 373.4,185.6 
			373.4,186.4 373.4,186.7 374.8,186.7 375.1,186.7 375.1,185.6 376,185.6 376,187.7 375.5,188.1 370.4,188.1 370,187.7 370,185.3 
			369.7,185.3 369.7,185.6 369.7,185.3 369.4,185.3 369.4,187.8 369.4,187.9 370.1,188.6 370.3,188.7 375.7,188.7 376.5,188 
			376.6,187.9 376.6,185.3 376.6,185 374.8,185 374.5,185 374.5,186.1 374,186.1 374,185.3 374,185 372.2,185 371.9,185 
			371.9,186.1 371.5,186.1 371.5,185.3 371.5,185 369.7,185 369.4,185 369.4,185.3 		"/>
		<polyline points="372.4,191.8 373.5,191.8 373.5,193.7 372.4,193.7 372.4,191.8 		"/>
		<polygon fill="#FCD856" points="376.1,189.2 377.6,189.2 377.6,190.2 378.7,190.2 378.7,189.2 380.2,189.2 380.2,190.2 
			381.2,190.2 381.2,189.2 382.7,189.2 382.7,191.6 382.1,192.2 376.8,192.2 376.1,191.6 		"/>
		<polygon points="376.1,189.2 376.1,189.5 377.3,189.5 377.3,190.2 377.3,190.5 378.7,190.5 379,190.5 379,189.5 379.8,189.5 
			379.8,190.2 379.8,190.5 381.2,190.5 381.5,190.5 381.5,189.5 382.5,189.5 382.5,191.5 382,191.9 376.8,191.9 376.4,191.5 
			376.4,189.2 376.1,189.2 376.1,189.5 376.1,189.2 375.8,189.2 375.8,191.6 375.8,191.7 376.6,192.5 382.1,192.5 382.9,191.8 
			383.1,191.7 383.1,189.2 383.1,188.9 381.2,188.9 380.9,188.9 380.9,189.9 380.5,189.9 380.5,189.2 380.5,188.9 378.7,188.9 
			378.4,188.9 378.4,189.9 377.9,189.9 377.9,189.2 377.9,188.9 376.1,188.9 375.8,188.9 375.8,189.2 		"/>
		<polyline fill="#FCD856" points="381.8,192.2 381.9,196.5 376.9,196.5 377.1,192.2 381.8,192.2 		"/>
		<polygon points="381.5,192.2 381.6,196.2 377.3,196.2 377.4,192.5 381.8,192.5 381.8,191.9 377.1,191.9 376.8,191.9 376.6,196.5 
			376.6,196.8 381.9,196.8 382.3,196.8 382.1,192.2 		"/>
		<polygon fill="#FCD856" points="363.1,189.2 364.6,189.2 364.6,190.2 365.7,190.2 365.7,189.2 367.2,189.2 367.2,190.2 
			368.3,190.2 368.3,189.2 369.8,189.2 369.8,191.6 369.1,192.2 363.9,192.2 363.1,191.6 		"/>
		<polygon points="363.1,189.2 363.1,189.5 364.3,189.5 364.3,190.2 364.3,190.5 365.7,190.5 366,190.5 366,189.5 366.9,189.5 
			366.9,190.2 366.9,190.5 368.3,190.5 368.6,190.5 368.6,189.5 369.5,189.5 369.5,191.5 369,191.9 363.9,191.9 363.5,191.5 
			363.5,189.2 363.1,189.2 363.1,189.5 363.1,189.2 362.8,189.2 362.8,191.6 362.8,191.7 363.7,192.5 369.1,192.5 370,191.8 
			370.1,191.7 370.1,189.2 370.1,188.9 368.3,188.9 367.9,188.9 367.9,189.9 367.5,189.9 367.5,189.2 367.5,188.9 365.7,188.9 
			365.4,188.9 365.4,189.9 364.9,189.9 364.9,189.2 364.9,188.9 363.1,188.9 362.8,188.9 362.8,189.2 		"/>
		<polyline fill="#FCD856" points="368.8,192.2 369,196.5 364,196.5 364.1,192.2 368.8,192.2 		"/>
		<polygon points="368.5,192.2 368.7,196.2 364.3,196.2 364.4,192.5 368.8,192.5 368.8,191.9 364.1,191.9 363.8,191.9 363.7,196.5 
			363.7,196.8 369,196.8 369.3,196.8 369.1,192.2 		"/>
		<polyline points="378.9,194.1 380,194.1 380,195.2 378.9,195.2 378.9,194.1 		"/>
		<polyline points="366,194.1 367,194.1 367,195.2 366,195.2 366,194.1 		"/>
		<polygon fill="#FCD856" points="362.8,266 382.9,266 382,258.2 363.7,258.2 		"/>
		<polygon points="362.8,266 362.8,266.3 382.9,266.3 383.3,266.3 382.3,258.2 382.3,257.9 363.7,257.9 363.4,257.9 362.5,266 
			362.5,266.3 362.8,266.3 362.8,266 363.1,266 363.9,258.5 381.7,258.5 382.6,265.7 362.8,265.7 362.8,266 363.1,266 		"/>
		<polyline fill="#FCD856" points="372.8,258.9 377.8,266 367.9,266 372.8,258.9 		"/>
		<polygon points="372.5,259.1 377.3,265.7 368.4,265.7 373,259.1 372.5,258.7 367.6,265.8 367.3,266.3 377.8,266.3 378.4,266.3 
			373,258.7 372.6,259.1 		"/>
		<path fill="#FCD856" d="M372.8,260.6c0,0,3,1.4,3,5.4H370C370,262,372.8,260.6,372.8,260.6z"/>
		<path d="M372.8,260.6l-0.1,0.3c0,0,2.7,1.3,2.7,5.2h0.3v-0.3H370v0.3h0.3c0-3.9,2.6-5.1,2.6-5.2L372.8,260.6l-0.1,0.3L372.8,260.6
			l-0.1-0.3c0,0-2.9,1.5-2.9,5.7v0.3h6h0.3V266c0-4.2-3.1-5.7-3.2-5.7l-0.1-0.1l-0.1,0.1L372.8,260.6z"/>
		<polygon fill="#FCD856" points="362.9,254.8 382.8,254.8 383.6,255.6 382.8,256.5 362.9,256.5 362.2,255.6 		"/>
		<polygon points="362.9,254.8 362.9,255.1 382.7,255.1 383.1,255.6 382.7,256.2 363.1,256.2 362.6,255.6 363.2,255 362.9,254.8 
			362.9,255.1 362.9,254.8 362.7,254.6 362,255.4 361.8,255.6 362.7,256.7 362.8,256.8 382.8,256.8 382.9,256.8 383.8,255.8 
			384,255.6 383,254.6 382.9,254.4 362.9,254.4 362.8,254.4 362.7,254.6 		"/>
		<polygon fill="#FCD856" points="362.4,266 383.3,266 384.1,266.9 383.3,267.8 362.4,267.8 361.6,266.9 		"/>
		<polygon points="362.4,266 362.4,266.3 383.1,266.3 383.7,266.9 383.1,267.5 362.5,267.5 362,266.9 362.6,266.2 362.4,266 
			362.4,266.3 362.4,266 362.2,265.8 361.4,266.7 361.2,266.9 362.2,268 362.3,268.1 383.3,268.1 383.4,268.1 384.3,267.1 
			384.5,266.9 383.5,265.8 383.4,265.7 362.4,265.7 362.3,265.7 362.2,265.8 		"/>
		<polygon fill="#FCD856" points="363.3,256.5 382.4,256.5 383.1,257.3 382.4,258.2 363.3,258.2 362.6,257.3 		"/>
		<polygon points="363.3,256.5 363.3,256.8 382.2,256.8 382.7,257.3 382.2,257.9 363.5,257.9 363,257.3 363.6,256.7 363.3,256.5 
			363.3,256.8 363.3,256.5 363.1,256.3 362.4,257.1 362.3,257.3 363.1,258.4 363.2,258.5 382.4,258.5 382.5,258.5 383.3,257.5 
			383.5,257.3 382.6,256.3 382.5,256.2 363.3,256.2 363.2,256.2 363.1,256.3 		"/>
		<polyline fill="#FCD856" points="375.3,246.6 375.6,254.8 370.3,254.7 370.7,246.6 375.3,246.6 		"/>
		<polygon points="375,246.6 375.3,254.5 370.7,254.4 371,246.9 375.3,246.9 375.3,246.3 370.7,246.3 370.4,246.3 370,254.7 
			370,255 375.6,255.1 375.9,255.1 375.6,246.6 		"/>
		<polygon fill="#FCD856" points="369.7,243.6 371.2,243.6 371.2,244.7 372.2,244.7 372.2,243.5 373.7,243.5 373.7,244.7 
			374.8,244.7 374.8,243.5 376.3,243.5 376.3,246 375.7,246.7 370.4,246.7 369.7,246 		"/>
		<polygon points="369.7,243.6 369.7,243.9 370.9,243.9 370.9,244.7 370.9,245 372.2,245 372.6,245 372.6,243.9 373.4,243.9 
			373.4,244.7 373.4,245 374.8,245 375.1,245 375.1,243.9 376,243.9 376,245.9 375.5,246.4 370.5,246.4 370,245.9 370,243.6 
			369.7,243.6 369.7,243.9 369.7,243.6 369.4,243.6 369.4,246 369.4,246.1 370.1,246.9 370.2,247 375.7,247 375.8,247 376.5,246.2 
			376.6,246.1 376.6,243.5 376.6,243.2 374.8,243.2 374.5,243.2 374.5,244.3 374,244.3 374,243.5 374,243.2 372.2,243.2 
			371.9,243.2 371.9,244.3 371.5,244.3 371.5,243.6 371.5,243.3 369.7,243.3 369.4,243.3 369.4,243.6 		"/>
		<polyline points="372.4,250 373.5,250 373.5,252 372.4,252 372.4,250 		"/>
		<polygon fill="#FCD856" points="376.1,247.4 377.6,247.4 377.6,248.5 378.7,248.5 378.7,247.4 380.2,247.4 380.2,248.5 
			381.2,248.5 381.2,247.4 382.7,247.4 382.7,249.9 382.1,250.5 376.8,250.5 376.1,249.9 		"/>
		<polygon points="376.1,247.4 376.1,247.7 377.3,247.7 377.3,248.5 377.3,248.8 378.7,248.8 379,248.8 379,247.7 379.8,247.7 
			379.8,248.5 379.8,248.8 381.2,248.8 381.5,248.8 381.5,247.7 382.5,247.7 382.5,249.8 382,250.2 376.8,250.2 376.4,249.8 
			376.4,247.4 376.1,247.4 376.1,247.7 376.1,247.4 375.8,247.4 375.8,249.9 375.8,250 376.6,250.7 382.1,250.8 382.9,250.1 
			383.1,250 383.1,247.4 383.1,247.1 381.2,247.1 380.9,247.1 380.9,248.2 380.5,248.2 380.5,247.4 380.5,247.1 378.7,247.1 
			378.4,247.1 378.4,248.2 377.9,248.2 377.9,247.4 377.9,247.1 376.1,247.1 375.8,247.1 375.8,247.4 		"/>
		<polyline fill="#FCD856" points="381.8,250.5 381.9,254.8 376.9,254.8 377.1,250.5 381.8,250.5 		"/>
		<polygon points="381.5,250.5 381.6,254.5 377.3,254.5 377.4,250.8 381.8,250.8 381.8,250.2 377.1,250.2 376.8,250.2 376.6,254.8 
			376.6,255.1 381.9,255.1 382.3,255.1 382.1,250.5 		"/>
		<polygon fill="#FCD856" points="363.1,247.4 364.6,247.4 364.6,248.5 365.7,248.5 365.7,247.4 367.2,247.4 367.2,248.5 
			368.3,248.5 368.3,247.4 369.8,247.4 369.8,249.9 369.1,250.5 363.9,250.5 363.1,249.9 		"/>
		<polygon points="363.1,247.4 363.1,247.7 364.3,247.7 364.3,248.5 364.3,248.8 365.7,248.8 366,248.8 366,247.7 366.9,247.7 
			366.9,248.5 366.9,248.8 368.3,248.8 368.6,248.8 368.6,247.7 369.5,247.7 369.5,249.8 369,250.2 363.9,250.2 363.5,249.8 
			363.5,247.4 363.1,247.4 363.1,247.7 363.1,247.4 362.8,247.4 362.8,249.9 362.8,250 363.7,250.7 369.1,250.8 370,250.1 
			370.1,250 370.1,247.4 370.1,247.1 368.3,247.1 367.9,247.1 367.9,248.2 367.5,248.2 367.5,247.4 367.5,247.1 365.7,247.1 
			365.4,247.1 365.4,248.2 364.9,248.2 364.9,247.4 364.9,247.1 363.1,247.1 362.8,247.1 362.8,247.4 		"/>
		<polyline fill="#FCD856" points="368.8,250.5 369,254.8 364,254.8 364.1,250.5 368.8,250.5 		"/>
		<polygon points="368.5,250.5 368.7,254.5 364.3,254.5 364.4,250.8 368.8,250.8 368.8,250.2 364.1,250.2 363.8,250.2 363.7,254.8 
			363.7,255.1 369,255.1 369.3,255.1 369.1,250.5 		"/>
		<polyline points="378.9,252.3 380,252.3 380,253.5 378.9,253.5 378.9,252.3 		"/>
		<polyline points="366,252.3 367,252.3 367,253.5 366,253.5 366,252.3 		"/>
		<polygon fill="#FCD856" points="345.8,312 360.4,325.8 365.1,319.5 351.8,306.9 		"/>
		<polygon points="345.8,312 345.6,312.2 360.2,326 360.5,326.3 365.3,319.7 365.5,319.5 351.9,306.7 351.8,306.5 345.6,311.7 
			345.4,312 345.6,312.2 345.8,312 346,312.2 351.8,307.3 364.7,319.6 360.4,325.3 346,311.7 345.8,312 346,312.2 		"/>
		<polyline fill="#FCD856" points="358,313.7 356.7,322.3 349.5,315.4 358,313.7 		"/>
		<polygon points="357.7,313.6 356.5,321.7 350.1,315.6 358,314 357.9,313.4 349.4,315.1 348.9,315.2 356.5,322.6 357,322.9 
			358.3,313.7 		"/>
		<polygon fill="#FCD856" points="356.8,314.9 355.2,320.8 351,316.9 		"/>
		<polygon points="356.8,314.9 356.5,314.8 355,320.2 351.6,317.1 356.9,315.2 356.8,314.9 356.5,314.8 356.8,314.9 356.7,314.6 
			350.9,316.6 350.5,316.8 354.9,321 355.3,321.4 357.1,315 357.3,314.4 356.7,314.6 		"/>
		<polygon fill="#FCD856" points="353.7,303.9 368.1,317.6 368,318.7 366.9,318.8 352.4,305.1 352.5,304 		"/>
		<polygon points="353.7,303.9 353.5,304.1 367.8,317.7 367.7,318.4 367,318.5 352.7,305 352.8,304.3 353.7,304.2 353.7,303.9 
			353.5,304.1 353.7,303.9 353.6,303.6 352.5,303.7 352.2,303.7 352.1,305.1 352.1,305.3 366.7,319.1 366.8,319.1 368.1,319 
			368.3,319 368.4,317.6 368.4,317.5 353.9,303.7 353.8,303.6 353.6,303.6 		"/>
		<polygon fill="#FCD856" points="345.5,311.7 360.7,326.1 360.7,327.3 359.4,327.4 344.2,313 344.3,311.8 		"/>
		<polygon points="345.5,311.7 345.4,311.9 360.4,326.2 360.4,327 359.5,327.1 344.6,312.9 344.6,312.1 345.6,312 345.5,311.7 
			345.4,311.9 345.5,311.7 345.5,311.4 344.2,311.5 344,311.5 344,313 344,313.1 359.2,327.6 359.3,327.7 360.7,327.6 361,327.6 
			361,326.1 361,326 345.7,311.5 345.6,311.4 345.5,311.4 		"/>
		<polygon fill="#FCD856" points="352.7,305.5 366.6,318.5 366.5,319.7 365.4,319.8 351.6,306.7 351.6,305.6 		"/>
		<polygon points="352.7,305.5 352.5,305.7 366.2,318.6 366.2,319.4 365.5,319.5 351.9,306.6 351.9,305.9 352.8,305.8 352.7,305.5 
			352.5,305.7 352.7,305.5 352.7,305.1 351.6,305.3 351.3,305.3 351.3,306.7 351.3,306.8 365.1,320 365.3,320.1 366.5,320 
			366.8,319.9 366.9,318.5 366.9,318.4 352.9,305.2 352.8,305.1 352.7,305.1 		"/>
		<polyline fill="#FCD856" points="368.2,306.5 362.8,312.6 359,309 364.9,303.4 368.2,306.5 		"/>
		<polygon points="367.9,306.3 362.7,312.1 359.4,309 364.9,303.8 368,306.7 368.4,306.3 365.1,303.2 364.9,303 358.8,308.8 
			358.6,309 362.5,312.8 362.8,313 368.4,306.7 		"/>
		<polygon fill="#FCD856" points="366.2,300.5 367.3,301.4 366.6,302.2 367.4,303 368.1,302.2 369.2,303.2 368.4,304 369.2,304.7 
			370,303.9 371.1,305 369.3,306.8 368.4,306.8 364.6,303.2 364.6,302.2 		"/>
		<polygon points="366.2,300.5 366,300.7 366.9,301.4 366.3,302 366.1,302.2 367.2,303.2 367.4,303.4 368.1,302.6 368.7,303.2 
			368.2,303.8 368,304 369,304.9 369.2,305.1 370,304.3 370.7,305 369.2,306.5 368.4,306.5 364.9,303 364.9,302.3 366.5,300.7 
			366.2,300.5 366,300.7 366.2,300.5 366,300.2 364.3,302 364.3,302.1 364.3,303.2 364.3,303.3 368.2,307 368.3,307.1 369.3,307.1 
			369.5,307.1 371.3,305.2 371.5,305 370.2,303.7 370,303.5 369.2,304.3 368.9,304 369.4,303.4 369.6,303.2 368.3,301.9 
			368.1,301.7 367.4,302.5 367,302.2 367.5,301.7 367.7,301.4 366.5,300.2 366.2,300 366,300.2 		"/>
		<polyline points="363.8,307 364.5,307.8 363.3,309.2 362.5,308.4 363.8,307 		"/>
		<polygon fill="#FCD856" points="368.3,307.7 369.3,308.7 368.6,309.4 369.3,310.2 370.1,309.4 371.2,310.4 370.5,311.2 371.2,312 
			372,311.2 373.1,312.2 371.4,314 370.5,314 366.6,310.4 366.6,309.4 		"/>
		<polygon points="368.3,307.7 368.1,307.9 368.9,308.7 368.4,309.3 368.2,309.4 369.1,310.4 369.3,310.6 370.1,309.8 370.8,310.4 
			370.3,311 370.1,311.2 371,312.2 371.2,312.4 372,311.6 372.7,312.2 371.2,313.8 370.6,313.7 367,310.2 366.9,309.6 368.5,307.9 
			368.3,307.7 368.1,307.9 368.3,307.7 368,307.4 366.3,309.2 366.2,309.4 366.3,310.4 366.3,310.5 370.3,314.2 370.4,314.3 
			371.4,314.3 373.3,312.4 373.5,312.2 372.2,310.9 372,310.7 371.2,311.5 370.9,311.2 371.4,310.6 371.6,310.4 370.3,309.2 
			370.1,309 369.3,309.8 369,309.4 369.5,308.9 369.7,308.6 368.4,307.4 368.3,307.3 368,307.4 		"/>
		<polyline fill="#FCD856" points="370.3,313.8 367.5,317 363.8,313.5 366.8,310.5 370.3,313.8 		"/>
		<polygon points="370,313.6 367.4,316.6 364.2,313.5 366.8,310.9 370,314.1 370.5,313.6 367,310.3 366.8,310.1 363.6,313.3 
			363.4,313.5 367.2,317.2 367.5,317.4 370.5,314 		"/>
		<polygon fill="#FCD856" points="358.8,298.7 359.9,299.7 359.2,300.6 360,301.2 360.7,300.5 361.8,301.5 361,302.3 361.8,303 
			362.5,302.2 363.7,303.3 362,305.1 361,305.1 357.3,301.4 357.2,300.5 		"/>
		<polygon points="358.8,298.7 358.6,299 359.4,299.7 359,300.4 358.8,300.6 359.8,301.4 360,301.6 360.7,300.9 361.4,301.5 
			360.8,302.1 360.6,302.3 361.6,303.3 361.8,303.5 362.5,302.6 363.2,303.3 361.8,304.7 361.1,304.7 357.5,301.3 357.5,300.6 
			359.1,299 358.8,298.7 358.6,299 358.8,298.7 358.6,298.5 356.9,300.3 356.9,300.4 356.9,301.4 356.9,301.5 360.8,305.3 
			360.9,305.4 362,305.4 362.1,305.4 363.9,303.5 364.1,303.3 362.7,302 362.5,301.8 361.8,302.6 361.5,302.3 362,301.7 
			362.2,301.5 360.9,300.2 360.7,300.1 359.9,300.8 359.6,300.5 360.1,299.9 360.3,299.7 359.1,298.5 358.8,298.3 358.6,298.5 		"/>
		<polyline fill="#FCD856" points="360.9,304.9 358,308 354.3,304.6 357.4,301.6 360.9,304.9 		"/>
		<polygon points="360.6,304.7 358,307.6 354.8,304.6 357.4,302 360.6,305.1 361.1,304.6 357.6,301.4 357.4,301.2 354.2,304.4 
			354,304.6 357.8,308.3 358,308.5 361.1,305.1 		"/>
		<polyline points="366.9,313.1 367.6,313.9 366.9,314.7 366.1,314 366.9,313.1 		"/>
		<polyline points="357.5,304.2 358.2,304.9 357.5,305.8 356.7,305.1 357.5,304.2 		"/>
		<polygon fill="#FCD856" points="289.8,312 275.2,325.8 270.5,319.5 283.8,306.9 		"/>
		<polygon points="289.8,312 289.6,311.7 275.2,325.3 270.9,319.6 283.8,307.3 289.6,312.2 289.8,312 289.6,311.7 289.8,312 
			290,311.7 284,306.7 283.8,306.5 270.3,319.3 270.1,319.5 275,326 275.1,326.3 290,312.2 290.3,312 290,311.7 		"/>
		<polyline fill="#FCD856" points="277.7,313.7 278.8,322.3 286.1,315.4 277.7,313.7 		"/>
		<polygon points="277.3,313.7 278.6,322.4 278.6,322.9 286.3,315.7 286.7,315.2 277.7,313.4 277.6,314 285.4,315.6 279.1,321.7 
			278,313.6 		"/>
		<polygon fill="#FCD856" points="278.7,314.9 280.4,320.8 284.5,316.9 		"/>
		<polygon points="278.7,314.9 278.4,315 280.2,320.9 280.3,321.4 284.7,317.2 285.1,316.8 278.8,314.6 278.3,314.4 278.4,315 
			278.7,314.9 278.6,315.2 283.9,317.1 280.6,320.2 279,314.8 278.7,314.9 278.6,315.2 		"/>
		<polygon fill="#FCD856" points="282,303.9 267.6,317.6 267.6,318.7 268.7,318.8 283.1,305.1 283.1,304 		"/>
		<polygon points="282,303.9 281.8,303.7 267.4,317.3 267.2,317.5 267.3,318.7 267.3,319 268.7,319.1 268.8,319.1 283.3,305.4 
			283.5,305.3 283.4,304 283.4,303.7 282,303.6 281.9,303.6 281.8,303.7 282,303.9 281.9,304.2 282.8,304.3 282.8,305 268.6,318.5 
			267.9,318.4 267.9,317.7 282.1,304.1 282,303.9 281.9,304.2 		"/>
		<polygon fill="#FCD856" points="290.1,311.7 274.9,326.1 275,327.3 276.1,327.4 291.3,313 291.3,311.8 		"/>
		<polygon points="290.1,311.7 289.9,311.5 274.7,325.9 274.6,326 274.7,327.3 274.7,327.6 276.1,327.7 276.3,327.7 291.5,313.3 
			291.6,313.1 291.6,311.8 291.5,311.5 290.1,311.4 290,311.4 289.9,311.5 290.1,311.7 290.1,312 291,312.1 291,312.9 276,327.1 
			275.3,327 275.2,326.2 290.3,311.9 290.1,311.7 290.1,312 		"/>
		<polygon fill="#FCD856" points="282.8,305.5 269,318.5 269.1,319.7 270.2,319.8 284,306.7 283.9,305.6 		"/>
		<polygon points="282.8,305.5 282.6,305.2 268.8,318.3 268.7,318.4 268.8,319.7 268.8,319.9 270.2,320.1 270.3,320.1 284.2,306.9 
			284.3,306.8 284.3,305.5 284.2,305.3 282.9,305.1 282.7,305.1 282.6,305.2 282.8,305.5 282.8,305.8 283.6,305.9 283.7,306.6 
			270.1,319.5 269.4,319.4 269.3,318.6 283,305.7 282.8,305.5 282.8,305.8 		"/>
		<polyline fill="#FCD856" points="267.4,306.5 272.8,312.6 276.6,309 270.7,303.4 267.4,306.5 		"/>
		<polygon points="267.2,306.7 272.5,312.8 272.7,313 276.8,309.2 277,309 271,303.2 270.7,303 267.2,306.3 267.6,306.7 
			270.7,303.8 276.1,309 272.8,312.2 267.6,306.3 		"/>
		<polygon fill="#FCD856" points="269.3,300.5 268.3,301.4 269,302.2 268.2,303 267.5,302.2 266.4,303.2 267.2,304 266.4,304.7 
			265.6,303.9 264.6,305 266.2,306.8 267.2,306.8 271,303.2 271,302.2 		"/>
		<polygon points="269.3,300.5 269.1,300.2 268.1,301.2 267.9,301.4 268.6,302.2 268.2,302.5 267.8,302 267.5,301.7 266.2,303 
			266,303.2 266.8,304 266.4,304.3 265.8,303.7 265.6,303.5 264.3,304.7 264.1,305 266,307 266.1,307.1 267.2,307.1 267.3,307.1 
			271.2,303.4 271.3,303.3 271.3,302.2 271.3,302.1 269.6,300.2 269.3,300 269.1,300.2 269.3,300.5 269.1,300.6 270.7,302.3 
			270.7,303 267,306.5 266.4,306.5 265,305 265.6,304.3 266.2,304.9 266.4,305.1 267.4,304.2 267.6,304 266.8,303.2 267.5,302.6 
			268,303.2 268.2,303.4 269.2,302.4 269.4,302.2 268.7,301.4 269.6,300.7 269.3,300.5 269.1,300.6 		"/>
		<polyline points="271.8,307 271.1,307.8 272.3,309.2 273.1,308.4 271.8,307 		"/>
		<polygon fill="#FCD856" points="267.3,307.7 266.3,308.7 267,309.4 266.2,310.2 265.5,309.4 264.4,310.4 265.1,311.2 264.4,312 
			263.6,311.2 262.5,312.2 264.2,314 265.1,314 268.9,310.4 269,309.4 		"/>
		<polygon points="267.3,307.7 267.1,307.4 266,308.4 265.8,308.7 266.6,309.4 266.2,309.8 265.7,309.2 265.5,309 264.2,310.2 
			264,310.4 264.7,311.2 264.4,311.5 263.8,310.9 263.6,310.7 262.3,312 262.1,312.2 264,314.2 264.1,314.3 265.1,314.3 
			265.2,314.3 269.1,310.6 269.2,310.5 269.3,309.5 269.3,309.4 267.6,307.4 267.3,307.3 267.1,307.4 267.3,307.7 267.1,307.9 
			268.7,309.6 268.6,310.2 265,313.7 264.4,313.7 262.9,312.2 263.6,311.6 264.1,312.2 264.4,312.4 265.4,311.4 265.5,311.2 
			264.8,310.4 265.5,309.8 266,310.4 266.2,310.6 267.2,309.7 267.4,309.4 266.7,308.7 267.5,307.9 267.3,307.7 267.1,307.9 		"/>
		<polyline fill="#FCD856" points="265.3,313.8 268.1,317 271.8,313.5 268.8,310.5 265.3,313.8 		"/>
		<polygon points="265.1,314 267.9,317.2 268.1,317.4 272,313.8 272.2,313.5 269,310.3 268.8,310.1 265.1,313.6 265.5,314.1 
			268.8,310.9 271.4,313.5 268.1,316.6 265.5,313.6 		"/>
		<polygon fill="#FCD856" points="276.8,298.7 275.7,299.7 276.4,300.6 275.6,301.2 274.9,300.5 273.8,301.5 274.5,302.3 273.8,303 
			273,302.2 271.9,303.3 273.6,305.1 274.5,305.1 278.4,301.4 278.4,300.5 		"/>
		<polygon points="276.8,298.7 276.6,298.5 275.5,299.5 275.3,299.7 276,300.5 275.6,300.8 275.1,300.3 274.9,300.1 273.6,301.3 
			273.4,301.4 274.1,302.3 273.8,302.6 273.2,302 273,301.8 271.7,303 271.5,303.3 273.4,305.3 273.5,305.4 274.5,305.4 
			274.7,305.4 278.6,301.6 278.7,301.6 278.7,300.5 278.7,300.4 277,298.5 276.8,298.3 276.6,298.5 276.8,298.7 276.5,298.9 
			278.1,300.6 278.1,301.3 274.4,304.7 273.7,304.7 272.3,303.3 273,302.6 273.6,303.2 273.8,303.5 274.7,302.6 275,302.3 
			274.2,301.5 274.9,300.9 275.4,301.4 275.6,301.6 276.6,300.8 276.9,300.6 276.1,299.7 276.9,299 276.8,298.7 276.5,298.9 		"/>
		<polyline fill="#FCD856" points="274.8,304.9 277.6,308 281.2,304.6 278.2,301.6 274.8,304.9 		"/>
		<polygon points="274.5,305.1 277.3,308.2 277.5,308.5 281.4,304.8 281.6,304.6 278.4,301.4 278.2,301.2 274.5,304.6 275,305.1 
			278.2,302 280.8,304.6 277.6,307.6 275,304.7 		"/>
		<polyline points="268.7,313.1 267.9,313.9 268.7,314.7 269.5,314 268.7,313.1 		"/>
		<polyline points="278.1,304.2 277.4,304.9 278.1,305.8 278.9,305.1 278.1,304.2 		"/>
		<polygon fill="#FCD856" points="251.9,207.7 272,207.7 271.1,200 252.7,200 		"/>
		<polygon points="251.9,207.7 251.9,208 272,208 272.3,208 271.4,200 271.4,199.7 252.7,199.7 252.5,199.7 251.6,207.7 251.6,208 
			251.9,208 251.9,207.7 252.2,207.8 253,200.3 270.8,200.3 271.7,207.4 251.9,207.4 251.9,207.7 252.2,207.8 		"/>
		<polyline fill="#FCD856" points="261.9,200.6 266.9,207.7 256.9,207.7 261.9,200.6 		"/>
		<polygon points="261.6,200.8 266.4,207.4 257.5,207.4 262.1,200.8 261.6,200.4 256.7,207.6 256.4,208 266.9,208 267.6,208 
			262.1,200.4 261.7,200.8 		"/>
		<path fill="#FCD856" d="M261.9,202.3c0,0,2.9,1.4,2.9,5.4h-5.7C259.1,203.7,261.9,202.3,261.9,202.3z"/>
		<path d="M261.9,202.3l-0.1,0.3c0,0,2.7,1.3,2.7,5.2h0.3v-0.3h-5.7v0.3h0.3c0-3.9,2.6-5.1,2.6-5.2L261.9,202.3l-0.1,0.3
			L261.9,202.3l-0.1-0.3c-0.1,0-3,1.5-3,5.7v0.3h6h0.3v-0.3c0-4.2-3-5.7-3-5.7l-0.2-0.1l-0.1,0.1L261.9,202.3z"/>
		<polygon fill="#FCD856" points="252,196.5 271.9,196.5 272.6,197.4 271.9,198.2 252,198.2 251.3,197.4 		"/>
		<polygon points="252,196.5 252,196.8 271.7,196.8 272.2,197.4 271.7,197.9 252.2,197.9 251.7,197.4 252.3,196.7 252,196.5 
			252,196.8 252,196.5 251.8,196.3 251,197.2 250.9,197.4 251.8,198.4 251.9,198.5 271.9,198.5 272,198.5 272.9,197.6 273.1,197.4 
			272.1,196.3 272,196.2 252,196.2 251.9,196.2 251.8,196.3 		"/>
		<polygon fill="#FCD856" points="251.5,207.7 272.4,207.7 273.2,208.6 272.4,209.6 251.5,209.6 250.7,208.6 		"/>
		<polygon points="251.5,207.7 251.5,208 272.3,208 272.8,208.6 272.3,209.3 251.6,209.3 251.1,208.6 251.7,207.9 251.5,207.7 
			251.5,208 251.5,207.7 251.3,207.6 250.5,208.5 250.3,208.6 251.3,209.8 251.4,209.9 272.4,209.9 272.6,209.9 273.5,208.8 
			273.6,208.6 272.6,207.6 272.6,207.4 251.5,207.4 251.4,207.4 251.3,207.6 		"/>
		<polygon fill="#FCD856" points="252.5,198.2 271.5,198.2 272.2,199.1 271.5,200 252.5,200 251.7,199.1 		"/>
		<polygon points="252.5,198.2 252.5,198.5 271.3,198.5 271.8,199.1 271.3,199.6 252.6,199.6 252.1,199.1 252.7,198.4 252.5,198.2 
			252.5,198.5 252.5,198.2 252.2,198 251.5,198.9 251.3,199.1 252.2,200.2 252.3,200.2 271.5,200.2 271.6,200.2 272.4,199.3 
			272.6,199.1 271.7,198 271.6,197.9 252.5,197.9 252.3,197.9 252.2,198 		"/>
		<polyline fill="#FCD856" points="264.4,188.4 264.7,196.5 259.4,196.5 259.8,188.4 264.4,188.4 		"/>
		<polygon points="264.1,188.4 264.4,196.2 259.7,196.2 260.1,188.7 264.4,188.7 264.4,188.1 259.8,188.1 259.5,188.1 259.1,196.5 
			259.1,196.8 264.7,196.8 265,196.8 264.7,188.4 		"/>
		<polygon fill="#FCD856" points="258.8,185.3 260.2,185.3 260.2,186.4 261.3,186.4 261.3,185.3 262.8,185.3 262.8,186.4 
			263.9,186.4 263.9,185.3 265.4,185.3 265.4,187.8 264.8,188.4 259.5,188.4 258.8,187.8 		"/>
		<polygon points="258.8,185.3 258.8,185.6 260,185.6 260,186.4 260,186.7 261.3,186.7 261.7,186.7 261.7,185.6 262.5,185.6 
			262.5,186.4 262.5,186.7 263.9,186.7 264.2,186.7 264.2,185.6 265.1,185.6 265.1,187.7 264.6,188.1 259.5,188.1 259.1,187.7 
			259.1,185.3 258.8,185.3 258.8,185.6 258.8,185.3 258.5,185.3 258.5,187.8 258.5,187.9 259.3,188.6 264.8,188.7 264.9,188.7 
			265.6,188 265.7,187.9 265.7,185.3 265.7,185 263.9,185 263.6,185 263.6,186.1 263.1,186.1 263.1,185.3 263.1,185 261.3,185 
			261,185 261,186.1 260.6,186.1 260.6,185.3 260.6,185 258.8,185 258.5,185 258.5,185.3 		"/>
		<polyline points="261.6,191.8 262.6,191.8 262.6,193.7 261.6,193.7 261.6,191.8 		"/>
		<polygon fill="#FCD856" points="265.2,189.2 266.7,189.2 266.7,190.2 267.8,190.2 267.8,189.2 269.3,189.2 269.3,190.2 
			270.3,190.2 270.3,189.2 271.8,189.2 271.8,191.6 271.2,192.2 265.9,192.2 265.2,191.6 		"/>
		<polygon points="265.2,189.2 265.2,189.5 266.4,189.5 266.4,190.2 266.4,190.5 267.8,190.5 268.1,190.5 268.1,189.5 269,189.5 
			269,190.2 269,190.5 270.3,190.5 270.7,190.5 270.7,189.5 271.5,189.5 271.5,191.5 271.1,191.9 265.9,191.9 265.5,191.5 
			265.5,189.2 265.2,189.2 265.2,189.5 265.2,189.2 264.9,189.2 264.9,191.6 264.9,191.7 265.7,192.5 271.2,192.5 271.3,192.5 
			272,191.8 272.1,191.7 272.1,189.2 272.1,188.9 270.3,188.9 270.1,188.9 270.1,189.9 269.6,189.9 269.6,189.2 269.6,188.9 
			267.8,188.9 267.5,188.9 267.5,189.9 267,189.9 267,189.2 267,188.9 265.2,188.9 264.9,188.9 264.9,189.2 		"/>
		<polyline fill="#FCD856" points="270.9,192.2 271.1,196.5 266,196.5 266.2,192.2 270.9,192.2 		"/>
		<polygon points="270.6,192.2 270.8,196.2 266.3,196.2 266.5,192.5 270.9,192.5 270.9,191.9 266.2,191.9 265.8,191.9 265.7,196.5 
			265.7,196.8 271.1,196.8 271.4,196.8 271.2,192.2 		"/>
		<polygon fill="#FCD856" points="252.3,189.2 253.7,189.2 253.7,190.2 254.8,190.2 254.8,189.2 256.3,189.2 256.3,190.2 
			257.4,190.2 257.4,189.2 258.9,189.2 258.9,191.6 258.2,192.2 252.9,192.2 252.3,191.6 		"/>
		<polygon points="252.3,189.2 252.3,189.5 253.4,189.5 253.4,190.2 253.4,190.5 254.8,190.5 255.1,190.5 255.1,189.5 256,189.5 
			256,190.2 256,190.5 257.4,190.5 257.7,190.5 257.7,189.5 258.6,189.5 258.6,191.5 258.1,191.9 253,191.9 252.6,191.5 
			252.6,189.2 252.3,189.2 252.3,189.5 252.3,189.2 252,189.2 252,191.6 252,191.7 252.7,192.5 252.8,192.5 258.2,192.5 
			258.4,192.5 259.1,191.8 259.2,191.7 259.2,189.2 259.2,188.9 257.4,188.9 257.1,188.9 257.1,189.9 256.6,189.9 256.6,189.2 
			256.6,188.9 254.8,188.9 254.5,188.9 254.5,189.9 254,189.9 254,189.2 254,188.9 252.3,188.9 252,188.9 252,189.2 		"/>
		<polyline fill="#FCD856" points="257.9,192.2 258.1,196.5 253,196.5 253.2,192.2 257.9,192.2 		"/>
		<polygon points="257.6,192.2 257.8,196.2 253.4,196.2 253.5,192.5 257.9,192.5 257.9,191.9 253.2,191.9 252.9,191.9 252.7,196.5 
			252.7,196.8 258.1,196.8 258.4,196.8 258.2,192.2 		"/>
		<polyline points="268,194.1 269.1,194.1 269.1,195.2 268,195.2 268,194.1 		"/>
		<polyline points="255.1,194.1 256.1,194.1 256.1,195.2 255.1,195.2 255.1,194.1 		"/>
		<polygon fill="#FCD856" points="251.9,266 272,266 271.1,258.2 252.7,258.2 		"/>
		<polygon points="251.9,266 251.9,266.3 272,266.3 272.3,266.3 271.4,258.2 271.4,257.9 252.7,257.9 252.5,257.9 251.6,266 
			251.6,266.3 251.9,266.3 251.9,266 252.2,266 253,258.5 270.8,258.5 271.7,265.7 251.9,265.7 251.9,266 252.2,266 		"/>
		<polyline fill="#FCD856" points="261.9,258.9 266.9,266 256.9,266 261.9,258.9 		"/>
		<polygon points="261.6,259.1 266.4,265.7 257.5,265.7 262.1,259.1 261.6,258.7 256.7,265.8 256.4,266.3 266.9,266.3 267.5,266.3 
			262.1,258.7 261.7,259.1 		"/>
		<path fill="#FCD856" d="M261.9,260.6c0,0,2.9,1.4,2.9,5.4h-5.7C259.1,262,261.9,260.6,261.9,260.6z"/>
		<path d="M261.9,260.6l-0.1,0.3c0,0,2.7,1.3,2.7,5.2h0.3v-0.3h-5.7v0.3h0.3c0-3.9,2.6-5.1,2.6-5.2L261.9,260.6l-0.1,0.3
			L261.9,260.6l-0.1-0.3c-0.1,0-3,1.5-3,5.7v0.3h6h0.3V266c0-4.2-3-5.7-3.1-5.7l-0.1-0.1l-0.1,0.1L261.9,260.6z"/>
		<polygon fill="#FCD856" points="252,254.8 271.9,254.8 272.6,255.6 271.9,256.5 252,256.5 251.3,255.6 		"/>
		<polygon points="252,254.8 252,255.1 271.7,255.1 272.2,255.6 271.7,256.2 252.2,256.2 251.7,255.6 252.3,255 252,254.8 
			252,255.1 252,254.8 251.8,254.6 251,255.4 250.9,255.6 251.8,256.7 251.9,256.8 271.9,256.8 272,256.8 272.9,255.8 273.1,255.6 
			272.1,254.6 272,254.4 252,254.4 251.9,254.4 251.8,254.6 		"/>
		<polygon fill="#FCD856" points="251.5,266 272.4,266 273.2,266.9 272.4,267.8 251.5,267.8 250.7,266.9 		"/>
		<polygon points="251.5,266 251.5,266.3 272.3,266.3 272.8,266.9 272.3,267.5 251.6,267.5 251.1,266.9 251.7,266.2 251.5,266 
			251.5,266.3 251.5,266 251.3,265.8 250.5,266.7 250.3,266.9 251.3,268 251.4,268.1 272.4,268.1 272.6,268.1 273.5,267.1 
			273.6,266.9 272.6,265.8 272.6,265.7 251.5,265.7 251.4,265.7 251.3,265.8 		"/>
		<polygon fill="#FCD856" points="252.5,256.5 271.5,256.5 272.2,257.3 271.5,258.2 252.5,258.2 251.7,257.3 		"/>
		<polygon points="252.5,256.5 252.5,256.8 271.3,256.8 271.8,257.3 271.3,257.9 252.6,257.9 252.2,257.3 252.7,256.7 252.5,256.5 
			252.5,256.8 252.5,256.5 252.2,256.3 251.5,257.1 251.3,257.3 252.2,258.4 252.3,258.5 271.5,258.5 271.6,258.5 272.4,257.5 
			272.6,257.3 271.7,256.3 271.6,256.2 252.5,256.2 252.3,256.2 252.2,256.3 		"/>
		<polyline fill="#FCD856" points="264.4,246.6 264.7,254.8 259.4,254.7 259.8,246.6 264.4,246.6 		"/>
		<polygon points="264.1,246.6 264.4,254.5 259.7,254.4 260.1,246.9 264.4,246.9 264.4,246.3 259.8,246.3 259.5,246.3 259.1,254.7 
			259.1,255 264.7,255.1 265,255.1 264.7,246.6 		"/>
		<polygon fill="#FCD856" points="258.8,243.6 260.2,243.6 260.2,244.7 261.3,244.7 261.3,243.5 262.8,243.5 262.8,244.7 
			263.9,244.7 263.9,243.5 265.4,243.5 265.4,246 264.8,246.7 259.5,246.7 258.8,246 		"/>
		<polygon points="258.8,243.6 258.8,243.9 260,243.9 260,244.7 260,245 261.3,245 261.7,245 261.7,243.9 262.5,243.9 262.5,244.7 
			262.5,245 263.9,245 264.2,245 264.2,243.9 265.1,243.9 265.1,245.9 264.6,246.4 259.6,246.4 259.1,245.9 259.1,243.6 
			258.8,243.6 258.8,243.9 258.8,243.6 258.5,243.6 258.5,246 258.5,246.1 259.3,246.9 259.4,247 264.8,247 264.9,247 265.6,246.2 
			265.7,246.1 265.7,243.5 265.7,243.2 263.9,243.2 263.6,243.2 263.6,244.3 263.1,244.3 263.1,243.5 263.1,243.2 261.3,243.2 
			261,243.2 261,244.3 260.6,244.3 260.6,243.6 260.6,243.3 258.8,243.3 258.5,243.3 258.5,243.6 		"/>
		<polyline points="261.6,250 262.6,250 262.6,252 261.6,252 261.6,250 		"/>
		<polygon fill="#FCD856" points="265.2,247.4 266.7,247.4 266.7,248.5 267.8,248.5 267.8,247.4 269.3,247.4 269.3,248.5 
			270.3,248.5 270.3,247.4 271.8,247.4 271.8,249.9 271.2,250.5 265.9,250.5 265.2,249.9 		"/>
		<polygon points="265.2,247.4 265.2,247.7 266.4,247.7 266.4,248.5 266.4,248.8 267.8,248.8 268.1,248.8 268.1,247.7 269,247.7 
			269,248.5 269,248.8 270.3,248.8 270.7,248.8 270.7,247.7 271.5,247.7 271.5,249.8 271.1,250.2 265.9,250.2 265.5,249.8 
			265.5,247.4 265.2,247.4 265.2,247.7 265.2,247.4 264.9,247.4 264.9,249.9 264.9,250 265.7,250.7 271.2,250.8 271.3,250.8 
			272,250.1 272.1,250 272.1,247.4 272.1,247.1 270.3,247.1 270.1,247.1 270.1,248.2 269.6,248.2 269.6,247.4 269.6,247.1 
			267.8,247.1 267.5,247.1 267.5,248.2 267,248.2 267,247.4 267,247.1 265.2,247.1 264.9,247.1 264.9,247.4 		"/>
		<polyline fill="#FCD856" points="270.9,250.5 271.1,254.8 266,254.8 266.2,250.5 270.9,250.5 		"/>
		<polygon points="270.6,250.5 270.8,254.5 266.3,254.5 266.5,250.8 270.9,250.8 270.9,250.2 266.2,250.2 265.8,250.2 265.7,254.8 
			265.7,255.1 271.1,255.1 271.4,255.1 271.2,250.5 		"/>
		<polygon fill="#FCD856" points="252.3,247.4 253.7,247.4 253.7,248.5 254.8,248.5 254.8,247.4 256.3,247.4 256.3,248.5 
			257.4,248.5 257.4,247.4 258.9,247.4 258.9,249.9 258.2,250.5 252.9,250.5 252.3,249.9 		"/>
		<polygon points="252.3,247.4 252.3,247.7 253.4,247.7 253.4,248.5 253.4,248.8 254.8,248.8 255.1,248.8 255.1,247.7 256,247.7 
			256,248.5 256,248.8 257.4,248.8 257.7,248.8 257.7,247.7 258.6,247.7 258.6,249.8 258.1,250.2 253,250.2 252.6,249.8 
			252.6,247.4 252.3,247.4 252.3,247.7 252.3,247.4 252,247.4 252,249.9 252,250 252.7,250.7 252.8,250.8 258.2,250.8 258.4,250.8 
			259.1,250.1 259.2,250 259.2,247.4 259.2,247.1 257.4,247.1 257.1,247.1 257.1,248.2 256.6,248.2 256.6,247.4 256.6,247.1 
			254.8,247.1 254.5,247.1 254.5,248.2 254,248.2 254,247.4 254,247.1 252.3,247.1 252,247.1 252,247.4 		"/>
		<polyline fill="#FCD856" points="257.9,250.5 258.1,254.8 253,254.8 253.2,250.5 257.9,250.5 		"/>
		<polygon points="257.6,250.5 257.8,254.5 253.4,254.5 253.5,250.8 257.9,250.8 257.9,250.2 253.2,250.2 252.9,250.2 252.7,254.8 
			252.7,255.1 258.1,255.1 258.4,255.1 258.2,250.5 		"/>
		<polyline points="268,252.3 269.1,252.3 269.1,253.5 268,253.5 268,252.3 		"/>
		<polyline points="255.1,252.3 256.1,252.3 256.1,253.5 255.1,253.5 255.1,252.3 		"/>
	</g>
</g>
</svg>
