<?xml version="1.0" encoding="utf-8"?>
<!-- Generator: Adobe Illustrator 17.1.0, SVG Export Plug-In . SVG Version: 6.00 Build 0)  -->
<!DOCTYPE svg PUBLIC "-//W3C//DTD SVG 1.1//EN" "http://www.w3.org/Graphics/SVG/1.1/DTD/svg11.dtd">
<svg version="1.1" id="Layer_1" xmlns="http://www.w3.org/2000/svg" xmlns:xlink="http://www.w3.org/1999/xlink" x="0px" y="0px"
	 viewBox="0 0 792 528" enable-background="new 0 0 792 528" xml:space="preserve">
<g>
	<rect fill="#4D4D4D" width="792" height="528"/>
	<rect x="3" y="3" fill="#D50000" width="786" height="522"/>
</g>
<g>
	<path fill="#FAFAFA" d="M208.3,295.2v109.6h-60.5V119.3H231c38.8,0,67.5,7.1,86.1,21.2c18.6,14.1,27.9,35.6,27.9,64.4
		c0,16.8-4.6,31.7-13.9,44.8c-9.2,13.1-22.3,23.3-39.3,30.8c43,64.2,71,105.7,84,124.4h-67.2l-68.2-109.6H208.3z M208.3,246h19.5
		c19.1,0,33.3-3.2,42.4-9.6c9.1-6.4,13.7-16.4,13.7-30.1c0-13.5-4.7-23.2-14-28.9c-9.3-5.7-23.7-8.6-43.3-8.6h-18.4V246z"/>
	<path fill="#FAFAFA" d="M644.2,119.3V304c0,21.1-4.7,39.6-14.2,55.5c-9.4,15.9-23.1,28.1-40.9,36.5c-17.8,8.5-38.9,12.7-63.3,12.7
		c-36.7,0-65.2-9.4-85.5-28.2c-20.3-18.8-30.5-44.6-30.5-77.2v-184h60.4v174.8c0,22,4.4,38.2,13.3,48.4
		c8.9,10.3,23.5,15.4,43.9,15.4c19.8,0,34.1-5.2,43.1-15.5c8.9-10.4,13.4-26.6,13.4-48.7V119.3H644.2z"/>
</g>
</svg>
