<?xml version="1.0" encoding="utf-8"?>
<!-- Generator: Adobe Illustrator 17.1.0, SVG Export Plug-In . SVG Version: 6.00 Build 0)  -->
<!DOCTYPE svg PUBLIC "-//W3C//DTD SVG 1.1//EN" "http://www.w3.org/Graphics/SVG/1.1/DTD/svg11.dtd">
<svg version="1.1" xmlns="http://www.w3.org/2000/svg" xmlns:xlink="http://www.w3.org/1999/xlink" x="0px" y="0px"
	 viewBox="0 0 792 530" enable-background="new 0 0 792 530" xml:space="preserve">
<g id="Layer_1">
	<rect fill="#4D4D4D" width="792" height="530"/>
</g>
<g id="Layer_3">
	<g>
		<rect x="3" y="352.3" fill="#CE1126" width="786" height="174.7"/>
		<rect x="3" y="177.6" fill="#0038A8" width="786" height="174.7"/>
		<rect x="3" y="3" fill="#FFFFFF" width="786" height="174.6"/>
		<path fill="#FFFFFF" d="M342.3,128.5c-69.4,0-138.9,0-208.2,0c-3.1,42.7-7.9,85.8-3,128.6c3.1,28.2,11.8,56.4,27.9,80.1
			c19.3,28.6,48.4,49.3,79.1,64.2c30.7-15,59.8-35.6,79.1-64.2c16.2-23.7,24.8-51.8,27.9-80.1C350.1,214.3,345.2,171.2,342.3,128.5z
			"/>
		<path fill="#CE1126" d="M139,135c66.1,0,132.2,0,198.3,0c2.8,40.7,7.5,81.7,2.8,122.5c-3,26.9-11.2,53.7-26.6,76.3
			c2.1-12-5.9-24.4-17.5-27.9c-9-3-19.7-0.5-26.3,6.5c-3.6-9.4-10.8-17.6-20.5-20.9c-0.1-12.6,0-25.1,0-37.8c5.1-0.1,10.2,0,15.3,0
			c12.4,0.1,24.6,2.4,36.7,4.7c-3.6-10.1-3.6-21.3-0.1-31.4c-11.7,2.2-23.6,4.5-35.6,4.7c-5.3,0.1-10.7,0-16.1,0.1
			c-0.3-8.5-0.3-17-0.1-25.5c13.7-0.1,27.4,2.1,40.8,4.8c-3.5-10.2-3.5-21.3,0.1-31.4c-13.6,2.6-27.2,5.1-41.1,4.7
			c-0.1-13.2,2.2-26.3,4.8-39.3c-10.2,3.5-21.3,3.5-31.6,0c2.5,13,4.9,26,4.8,39.3c-13.9,0.4-27.5-2-41.1-4.7
			c3.6,10.2,3.5,21.3,0.1,31.4c13.5-2.6,27.2-5.2,41-4.7c-0.3,8.5,0.2,17-0.3,25.4c-5.3-0.1-10.7,0-16.1-0.1
			c-12-0.2-23.9-2.5-35.6-4.7c3.5,10.1,3.5,21.3-0.1,31.4c17.1-3.5,34.5-5.6,52-4.6c-0.1,12.6,0.1,25.1,0,37.6
			c-8.1,2.8-14.8,8.9-18.5,16.5l-2.1,4.4c-6.8-7.2-17.9-9.6-27.2-6.1c-11.1,3.8-18.6,16-16.6,27.6c-15.4-22.5-23.6-49.4-26.6-76.3
			C131.5,216.7,136,175.7,139,135z"/>
		<path fill="#FFFFFF" d="M222.3,145c10.2,3.5,21.3,3.5,31.6,0c-2.5,13-4.9,26-4.8,39.3c13.8,0.4,27.5-2,41.1-4.7
			c-3.7,10.2-3.7,21.3-0.1,31.4c-13.4-2.7-27.1-4.9-40.8-4.8c-0.2,8.5-0.2,17,0.1,25.5c5.4-0.1,10.7,0,16.1-0.1
			c12-0.2,23.9-2.5,35.6-4.7c-3.5,10.1-3.5,21.3,0.1,31.4c-12.1-2.3-24.3-4.6-36.7-4.7c-5.1,0-10.2-0.1-15.3,0
			c0,12.6-0.1,25.2,0,37.8c-7-2.6-15-2.6-22,0c0.1-12.6-0.1-25.1,0-37.6c-17.5-1-34.9,1.1-52,4.6c3.6-10.1,3.6-21.3,0.1-31.4
			c11.7,2.2,23.6,4.5,35.6,4.7c5.3,0.1,10.7,0,16.1,0.1c0.5-8.4,0-16.9,0.3-25.4c-13.9-0.5-27.5,2.1-41,4.7
			c3.4-10.2,3.5-21.3-0.1-31.4c13.6,2.6,27.2,5.1,41.1,4.7C227.2,171,224.9,158,222.3,145z"/>
		<path fill="#0038A8" d="M227.1,291.3c7-2.6,15-2.6,22,0c9.7,3.3,17,11.6,20.5,20.9c6.7-7,17.3-9.4,26.3-6.5
			c11.6,3.6,19.6,16,17.5,27.9c-18.4,27.3-46.1,46.9-75.4,61.2c-29.3-14.2-57-33.9-75.4-61.2c-2.1-11.6,5.5-23.8,16.6-27.6
			c9.2-3.4,20.4-1.1,27.2,6.1l2.1-4.4C212.3,300.3,219,294.1,227.1,291.3z"/>
	</g>
</g>
</svg>
