<?xml version="1.0" encoding="utf-8"?>
<!-- Generator: Adobe Illustrator 17.1.0, SVG Export Plug-In . SVG Version: 6.00 Build 0)  -->
<!DOCTYPE svg PUBLIC "-//W3C//DTD SVG 1.1//EN" "http://www.w3.org/Graphics/SVG/1.1/DTD/svg11.dtd">
<svg version="1.1" xmlns="http://www.w3.org/2000/svg" xmlns:xlink="http://www.w3.org/1999/xlink" x="0px" y="0px"
	 viewBox="0 0 792 530" enable-background="new 0 0 792 530" xml:space="preserve">
<g id="Layer_1">
	<rect fill="#4D4D4D" width="792" height="530"/>
	<g id="Layer_3_1_">
		<g>
			<rect x="3" y="352.3" fill="#FF0000" width="786" height="174.7"/>
			<rect x="3" y="177.6" fill="#005CE6" width="786" height="174.7"/>
			<rect x="3" y="3" fill="#FFFFFF" width="786" height="174.6"/>
			<path fill="#FF0000" d="M156.2,104.8l130.8,0.1l3.1,1.1c-1.5,23.9-3,46.7-4.5,70.6c-0.4,19.5-5.9,39.2-17.8,55
				c-11.3,15.4-27.8,26.8-46.2,32.5c-23.3-7-43.4-23.9-54.1-45.7c-6.6-12.9-9.2-27.2-9.7-41.7c-1.4-23.9-4.4-70.6-4.4-70.6
				L156.2,104.8z"/>
			<path fill="#005CE6" d="M156.2,104.8c41-17.8,89.8-17.7,130.8,0.1c0,0-2.8,49.2-4.2,72c-0.4,18.7-5.7,37.5-17.1,52.5
				c-10.8,14.8-26.6,25.7-44.2,31.1c-22.3-6.7-41.5-22.8-51.8-43.8c-6.2-12.3-8.8-26-9.3-39.9C159,153.9,156.2,104.8,156.2,104.8z"
				/>
			<polygon fill="#FDE403" points="201.7,103 203.8,98.7 205.7,103 210.4,102.5 207.6,106.4 210.4,110.2 205.7,109.7 203.7,114.1 
				201.9,109.7 197.2,110.2 199.9,106.4 197.2,102.5 			"/>
			<polygon fill="#FDE403" points="239.6,98.7 241.6,103 246.3,102.5 243.5,106.4 246.3,110.2 241.6,109.7 239.7,114 237.6,109.8 
				233.2,110.1 235.7,106.3 233.2,102.5 237.8,103 			"/>
			<polygon fill="#FDE403" points="219.8,127 221.7,122.7 223.9,126.9 228.2,126.6 225.7,130.3 228.2,134.2 223.6,133.7 221.7,138 
				219.8,133.7 215.1,134.2 217.8,130.3 215.1,126.4 			"/>
			<path fill="#FFFFFF" d="M206.3,178.2c5.1-10.4,10.2-20.5,15.3-30.8c5.3,10.2,10.4,20.4,15.5,30.8c3.4-4.6,6.8-9.2,10.2-13.7
				c8.6,11.5,17.1,22.9,25.8,34.3c-0.2,8.6-7.3,16.5-16.1,16.9c-6.7,1.1-11.8-4.8-18.5-4.4c-6-0.1-10.9,5-17.1,4.6
				c-6.1,0.1-10.9-4.9-17-4.6c-6.6-0.1-11.8,5.7-18.5,4.4c-8.6-0.5-15.3-8.4-15.7-16.9c8.6-11.3,17.2-22.8,25.8-34.3
				C199.5,169.1,202.9,173.6,206.3,178.2z"/>
			<path fill="#FFFFFF" d="M192.7,219.9c4.4-1.6,8.5-4.3,13.3-3.7c5.5,0.4,10,4.6,15.6,4.4c6.1,0.4,10.9-4.6,17.1-4.4
				c6.2-0.4,11.1,4.6,17,4.4c4.1,0.3,7.8-1.7,11.4-3.2l-4.3,6.8c-5.5,2.6-11.6,1.3-16.6-1.5c-5.4-2.7-11.7-1.8-16.8,1.1
				c-5.3,2.9-11.9,2-17.1-0.9c-5.4-2.9-11.8-2-16.9,0.9c-4.6,2.5-9.9,2.1-14.8,0.5l-4-6.9C181.4,219.9,187.2,222,192.7,219.9z"/>
			<path fill="#FFFFFF" d="M184.8,230.6c6.1,0.8,11.4-2.9,17.2-4.3c7.5-1.8,13.4,5.1,20.9,4.1c5.2-0.1,9.3-4,14.4-4.3
				c7.6-0.9,13.6,5.6,21.4,4.5c-9.7,11.8-22.4,21.1-37,26.1C207.2,251.8,194.4,242.4,184.8,230.6z"/>
		</g>
	</g>
</g>
<g id="Layer_3">
</g>
</svg>
