<svg id="My_Account" data-name="My Account" xmlns="http://www.w3.org/2000/svg" width="24.187" height="24.187" viewBox="0 0 24.187 24.187">
  <g id="Icon_material-account-circle" data-name="Icon material-account-circle" transform="translate(-3 -3)" fill="none">
    <path d="M15.094,3A12.094,12.094,0,1,0,27.187,15.094,12.1,12.1,0,0,0,15.094,3Zm0,5.241a3.623,3.623,0,0,1,3.628,3.628,3.73,3.73,0,0,1-1.663,3.052,3.418,3.418,0,0,1-1.965.576,3.628,3.628,0,0,1,0-7.256Z" stroke="none"/>
    <path d="M 15.09371662139893 4.5 C 9.252317428588867 4.5 4.499996185302734 9.252340316772461 4.499996185302734 15.09375 C 4.499996185302734 20.93515968322754 9.252317428588867 25.6875 15.09371662139893 25.6875 C 20.93511581420898 25.6875 25.68743705749512 20.93515968322754 25.68743705749512 15.09375 C 25.68743705749512 9.252340316772461 20.93511581420898 4.5 15.09371662139893 4.5 M 17.96121215820312 16.11946678161621 C 17.25156021118164 16.66106986999512 16.15520858764648 16.99687957763672 15.09371662139893 16.99687957763672 C 12.26606750488281 16.99687957763672 9.965606689453125 14.69641017913818 9.965606689453125 11.86874961853027 C 9.965606689453125 9.041099548339844 12.26606750488281 6.740629196166992 15.09371662139893 6.740629196166992 C 17.92136764526367 6.740629196166992 20.22183609008789 9.041099548339844 20.22183609008789 11.86874961853027 C 20.22183609008789 13.53112030029297 19.41917037963867 15.04012680053711 17.96121215820312 16.11946678161621 M 15.09371662139893 3 C 21.76944732666016 3 27.18743705749512 8.417999267578125 27.18743705749512 15.09375 C 27.18743705749512 21.76950073242188 21.76944732666016 27.1875 15.09371662139893 27.1875 C 8.417985916137695 27.1875 2.999996185302734 21.76950073242188 2.999996185302734 15.09375 C 2.999996185302734 8.417999267578125 8.417985916137695 3 15.09371662139893 3 Z M 15.09371662139893 15.49687957763672 C 15.90878677368164 15.49687957763672 16.66006660461426 15.22974967956543 17.05908584594727 14.92098999023438 C 18.1500358581543 14.11718940734863 18.72183609008789 13.06123924255371 18.72183609008789 11.86874961853027 C 18.72183609008789 9.861190795898438 17.10127639770508 8.240629196166992 15.09371662139893 8.240629196166992 C 13.08615684509277 8.240629196166992 11.46560668945312 9.861190795898438 11.46560668945312 11.86874961853027 C 11.46560668945312 13.87631034851074 13.08615684509277 15.49687957763672 15.09371662139893 15.49687957763672 Z" stroke="none" fill="#111441"/>
  </g>
  <path id="Path_1125" data-name="Path 1125" d="M-7340.849-10078.323a11.135,11.135,0,0,1,8.749-5.139c5.937-.248,9.221,5.139,9.221,5.139" transform="translate(7344.381 10097.514)" fill="none" stroke="#111441" stroke-width="1.5"/>
</svg>
