<?xml version="1.0" encoding="utf-8"?>
<!-- Generator: Adobe Illustrator 24.1.2, SVG Export Plug-In . SVG Version: 6.00 Build 0)  -->
<svg version="1.1" id="Layer_1" xmlns="http://www.w3.org/2000/svg" xmlns:xlink="http://www.w3.org/1999/xlink" x="0px" y="0px"
	 viewBox="0 0 35.7 35.6" style="enable-background:new 0 0 35.7 35.6;" xml:space="preserve">
<style type="text/css">
	.st0{fill:#FFFFFF;}
</style>
<g>
	<path class="st0" d="M22.8,30.7c-1.5,0.5-3,0.8-4.6,0.8c-7.7,0-13.9-6.2-13.9-13.9S10.5,3.6,18.1,3.6s13.9,6.2,13.9,13.9
		c0,1.5-0.2,2.9-0.7,4.3c-0.2,0.7,0.1,1.4,0.8,1.6c0.7,0.2,1.4-0.1,1.6-0.8c0.5-1.6,0.8-3.4,0.8-5.1c0-9.1-7.4-16.4-16.4-16.4
		C9.1,1.1,1.7,8.5,1.7,17.5S9.1,34,18.1,34c1.9,0,3.7-0.3,5.4-0.9c0.7-0.2,1-0.9,0.8-1.6C24.1,30.8,23.4,30.5,22.8,30.7z"/>
	<path class="st0" d="M33.2,27.3h-2.8v-2.8c0-0.7-0.6-1.3-1.3-1.3s-1.3,0.6-1.3,1.3v2.8H25c-0.7,0-1.3,0.6-1.3,1.3
		c0,0.7,0.6,1.3,1.3,1.3h2.8v2.8c0,0.7,0.6,1.3,1.3,1.3s1.3-0.6,1.3-1.3v-2.8h2.8c0.7,0,1.3-0.6,1.3-1.3
		C34.4,27.9,33.9,27.3,33.2,27.3z"/>
	<path class="st0" d="M12.2,22.9c0.6,0,1.1-0.5,1.1-1.1v-6.4h1.7c0.6,0,1.1-0.5,1.1-1.1c0-0.6-0.5-1.1-1.1-1.1H9.4
		c-0.6,0-1.1,0.5-1.1,1.1s0.5,1.1,1.1,1.1h1.7v6.4C11.1,22.4,11.6,22.9,12.2,22.9z"/>
	<path class="st0" d="M26.4,22.9c0.6,0,1.1-0.5,1.1-1.1v-7.6c0-0.5-0.3-0.9-0.7-1c-0.4-0.2-0.9,0-1.2,0.4l-3.4,4.5l-3.4-4.5
		c-0.3-0.4-0.8-0.5-1.2-0.4c-0.4,0.1-0.7,0.6-0.7,1v7.6c0,0.6,0.5,1.1,1.1,1.1s1.1-0.5,1.1-1.1v-4.3l2.3,3c0.2,0.3,0.5,0.4,0.9,0.4
		c0.4,0,0.7-0.2,0.9-0.4l2.3-3v4.3C25.3,22.4,25.8,22.9,26.4,22.9z"/>
</g>
</svg>
