<?xml version="1.0" encoding="utf-8"?>
<!-- Generator: Adobe Illustrator 24.1.2, SVG Export Plug-In . SVG Version: 6.00 Build 0)  -->
<svg version="1.1" id="Layer_1" xmlns="http://www.w3.org/2000/svg" xmlns:xlink="http://www.w3.org/1999/xlink" x="0px" y="0px"
	 viewBox="0 0 35.7 35.6" style="enable-background:new 0 0 35.7 35.6;" xml:space="preserve">
<style type="text/css">
	.st0{fill:#FFFFFF;}
</style>
<g>
	<path class="st0" d="M3.1,10.1L13,14c1.1,0.4,2.4,0.6,3.8,0.6c1.4,0,2.8-0.2,3.8-0.6l9.9-3.9c1.9-0.7,2.2-1.9,2.2-2.5
		c0-0.6-0.3-1.7-2.2-2.5l-9.9-3.9c-2.1-0.8-5.5-0.8-7.7,0L3.1,5.1C1.2,5.9,0.9,7,0.9,7.6C0.9,8.2,1.2,9.3,3.1,10.1z M4,7.4l9.9-3.9
		c1.6-0.6,4.2-0.6,5.8,0l9.9,3.9c0.1,0.1,0.3,0.1,0.4,0.2c-0.1,0-0.2,0.1-0.4,0.2l-9.9,3.9c-1.6,0.6-4.2,0.6-5.8,0L4,7.8
		C3.8,7.7,3.7,7.6,3.6,7.6C3.7,7.5,3.8,7.5,4,7.4z"/>
	<path class="st0" d="M29.4,16.8l3.4-1.4c0.6-0.3,0.9-1,0.7-1.6c-0.3-0.6-1-0.9-1.6-0.7l-12.1,5c-1.6,0.6-4.2,0.6-5.8,0L2,13.2
		c-0.6-0.3-1.4,0-1.6,0.7c-0.3,0.6,0,1.4,0.7,1.6L13,20.4l0,0c1.1,0.4,2.4,0.6,3.8,0.6c0.7,0,1.4-0.1,2.1-0.2
		c-0.6,1.1-1,2.4-1.1,3.7c-1.4,0.1-2.9,0-3.9-0.4L2,19.3c-0.6-0.3-1.4,0-1.6,0.7c-0.3,0.6,0,1.4,0.7,1.6L13,26.5l0,0
		c1.1,0.4,2.4,0.6,3.8,0.6c0.4,0,0.8,0,1.2-0.1c0.3,1.3,0.8,2.5,1.6,3.5c-1.6,0.6-4.2,0.6-5.7,0L2,25.6c-0.6-0.3-1.4,0-1.6,0.7
		c-0.3,0.6,0,1.4,0.7,1.6L13,32.8l0,0c1.1,0.4,2.4,0.6,3.8,0.6c1.4,0,2.8-0.2,3.8-0.6l1-0.4c1.4,1,3.1,1.6,5,1.6
		c4.9,0,8.8-4,8.8-8.8C35.4,21.3,32.9,18,29.4,16.8z M26.6,31.5c-3.5,0-6.3-2.8-6.3-6.3s2.8-6.3,6.3-6.3s6.3,2.8,6.3,6.3
		S30.1,31.5,26.6,31.5z"/>
	<path class="st0" d="M29.8,23.9h-1.9V22c0-0.7-0.6-1.3-1.3-1.3s-1.3,0.6-1.3,1.3v1.9h-1.9c-0.7,0-1.3,0.6-1.3,1.3
		c0,0.7,0.6,1.3,1.3,1.3h1.9v1.9c0,0.7,0.6,1.3,1.3,1.3s1.3-0.6,1.3-1.3v-1.9h1.9c0.7,0,1.3-0.6,1.3-1.3
		C31,24.5,30.5,23.9,29.8,23.9z"/>
</g>
</svg>
