<?xml version="1.0" encoding="utf-8"?>
<!-- Generator: Adobe Illustrator 24.1.2, SVG Export Plug-In . SVG Version: 6.00 Build 0)  -->
<svg version="1.1" id="Layer_1" xmlns="http://www.w3.org/2000/svg" xmlns:xlink="http://www.w3.org/1999/xlink" x="0px" y="0px"
	 viewBox="0 0 35.7 35.6" style="enable-background:new 0 0 35.7 35.6;" xml:space="preserve">
<style type="text/css">
	.st0{fill:#FFFFFF;}
</style>
<g>
	<path class="st0" d="M12.9,18.6H5.3c-2.1,0-3.8,1.7-3.8,3.8v7.5c0,2.1,1.7,3.8,3.8,3.8h7.5c2.1,0,3.8-1.7,3.8-3.8v-7.5
		C16.7,20.3,15,18.6,12.9,18.6z M14.2,29.9c0,0.7-0.6,1.3-1.3,1.3H5.3c-0.7,0-1.3-0.6-1.3-1.3v-7.5c0-0.7,0.6-1.3,1.3-1.3h7.5
		c0.7,0,1.3,0.6,1.3,1.3V29.9z"/>
	<path class="st0" d="M30.3,1.4h-7.5c-2.1,0-3.8,1.7-3.8,3.8v7.5c0,2.1,1.7,3.8,3.8,3.8h7.5c2.1,0,3.8-1.7,3.8-3.8V5.2
		C34.1,3.1,32.4,1.4,30.3,1.4z M31.6,12.7c0,0.7-0.6,1.3-1.3,1.3h-7.5c-0.7,0-1.3-0.6-1.3-1.3V5.2c0-0.7,0.6-1.3,1.3-1.3h7.5
		c0.7,0,1.3,0.6,1.3,1.3V12.7z"/>
	<path class="st0" d="M12.9,1.4H5.3c-2.1,0-3.8,1.7-3.8,3.8v7.5c0,2.1,1.7,3.8,3.8,3.8h7.5c2.1,0,3.8-1.7,3.8-3.8V5.2
		C16.7,3.1,15,1.4,12.9,1.4z M14.2,12.7c0,0.7-0.6,1.3-1.3,1.3H5.3C4.6,14,4,13.4,4,12.7V5.2c0-0.7,0.6-1.3,1.3-1.3h7.5
		c0.7,0,1.3,0.6,1.3,1.3V12.7z"/>
	<path class="st0" d="M31.9,24.7h-3.8v-3.8c0-0.7-0.6-1.3-1.3-1.3s-1.3,0.6-1.3,1.3v3.8h-3.8c-0.7,0-1.3,0.6-1.3,1.3
		c0,0.7,0.6,1.3,1.3,1.3h3.8V31c0,0.7,0.6,1.3,1.3,1.3s1.3-0.6,1.3-1.3v-3.8h3.8c0.7,0,1.3-0.6,1.3-1.3
		C33.1,25.3,32.5,24.7,31.9,24.7z"/>
</g>
</svg>
