<?xml version="1.0" encoding="utf-8"?>
<!-- Generator: Adobe Illustrator 24.1.2, SVG Export Plug-In . SVG Version: 6.00 Build 0)  -->
<svg version="1.1" id="Layer_1" xmlns="http://www.w3.org/2000/svg" xmlns:xlink="http://www.w3.org/1999/xlink" x="0px" y="0px"
	 viewBox="0 0 35.7 35.6" style="enable-background:new 0 0 35.7 35.6;" xml:space="preserve">
<style type="text/css">
	.st0{fill:#FFFFFF;}
</style>
<g>
	<path class="st0" d="M31.8,18.1C31.8,18.1,31.8,18.1,31.8,18.1l0-13.4c0-2-1.6-3.6-3.6-3.6H4.5c-2,0-3.6,1.6-3.6,3.6V27
		c0,2,1.6,3.6,3.6,3.6h14.9c1.6,1.8,3.9,2.9,6.5,2.9c4.9,0,8.8-4,8.8-8.8C34.7,22,33.6,19.7,31.8,18.1z M12.9,3.5h6.9v6.8
		c0,0,0,0,0,0h-6.8c0,0,0,0,0,0V3.5z M4.5,28.1c-0.6,0-1.1-0.5-1.1-1.1V4.6c0-0.6,0.5-1.1,1.1-1.1h5.9v6.8c0,1.4,1.1,2.5,2.5,2.5
		h6.8c1.4,0,2.5-1.1,2.5-2.5V3.5h5.9c0.6,0,1.1,0.5,1.1,1.1v11.9c-1-0.4-2.2-0.7-3.4-0.7c-4.9,0-8.8,4-8.8,8.8
		c0,1.2,0.2,2.4,0.7,3.4H4.5z M25.9,31c-3.5,0-6.3-2.8-6.3-6.3s2.8-6.3,6.3-6.3s6.3,2.8,6.3,6.3S29.4,31,25.9,31z"/>
	<path class="st0" d="M29.1,23.4h-1.9v-1.9c0-0.7-0.6-1.3-1.3-1.3s-1.3,0.6-1.3,1.3v1.9h-1.9c-0.7,0-1.3,0.6-1.3,1.3
		c0,0.7,0.6,1.3,1.3,1.3h1.9v1.9c0,0.7,0.6,1.3,1.3,1.3s1.3-0.6,1.3-1.3v-1.9h1.9c0.7,0,1.3-0.6,1.3-1.3
		C30.4,24,29.8,23.4,29.1,23.4z"/>
</g>
</svg>
