<?xml version="1.0" encoding="utf-8"?>
<!-- Generator: Adobe Illustrator 24.1.2, SVG Export Plug-In . SVG Version: 6.00 Build 0)  -->
<svg version="1.1" id="Layer_1" xmlns="http://www.w3.org/2000/svg" xmlns:xlink="http://www.w3.org/1999/xlink" x="0px" y="0px"
	 viewBox="0 0 35.7 33.9" style="enable-background:new 0 0 35.7 33.9;" xml:space="preserve">
<style type="text/css">
	.st0{fill:#FFFFFF;}
</style>
<g>
	<path class="st0" d="M8.4,16h19.1c0.7,0,1.3-0.6,1.3-1.3c0-0.7-0.6-1.3-1.3-1.3H8.4c-0.7,0-1.3,0.6-1.3,1.3C7.1,15.5,7.7,16,8.4,16
		z"/>
	<path class="st0" d="M8.4,10.8h19.1c0.7,0,1.3-0.6,1.3-1.3c0-0.7-0.6-1.3-1.3-1.3H8.4c-0.7,0-1.3,0.6-1.3,1.3
		C7.1,10.3,7.7,10.8,8.4,10.8z"/>
	<path class="st0" d="M30.8,1.4H5c-2.1,0-3.8,1.7-3.8,3.8v24.4c0,2.1,1.7,3.8,3.8,3.8h25.8c2.1,0,3.8-1.7,3.8-3.8V5.2
		C34.7,3.1,33,1.4,30.8,1.4z M5,3.9h25.8c0.7,0,1.3,0.6,1.3,1.3v13.9h-9c-0.7,0-1.3,0.6-1.3,1.3c0,2.1-1.7,3.7-3.7,3.7
		s-3.7-1.7-3.7-3.7c0-0.7-0.6-1.3-1.3-1.3H3.7V5.2C3.7,4.5,4.3,3.9,5,3.9z M30.8,31H5c-0.7,0-1.3-0.6-1.3-1.3v-8h8.4
		c0.6,2.8,3.1,5,6.1,5s5.5-2.1,6.1-5h7.9v8C32.2,30.4,31.6,31,30.8,31z"/>
</g>
</svg>
