<?xml version="1.0" encoding="utf-8"?>
<!-- Generator: Adobe Illustrator 17.1.0, SVG Export Plug-In . SVG Version: 6.00 Build 0)  -->
<!DOCTYPE svg PUBLIC "-//W3C//DTD SVG 1.1//EN" "http://www.w3.org/Graphics/SVG/1.1/DTD/svg11.dtd">
<svg version="1.1" id="Layer_1" xmlns="http://www.w3.org/2000/svg" xmlns:xlink="http://www.w3.org/1999/xlink" x="0px" y="0px"
	 viewBox="0 0 20 17" enable-background="new 0 0 20 17" xml:space="preserve">
<g>
	<path fill="#EC1E24" d="M12,0L4,3v4.1l0.5,0.5l0.4-0.4V4l6.6,2.5v8.4l-0.6-0.2c0,0.2,0.1,0.4,0.1,0.5c0,0.1,0,0.3,0,0.4l1,0.4l8-3
		V3L12,0z M12,1l6.2,2.3l-2.4,0.9L9.6,1.9L12,1z M5.8,3.3l2.4-0.9l6.2,2.3L12,5.6L5.8,3.3z M19.1,12.4l-6.6,2.5V6.5L19.1,4V12.4z"/>
	<g>
		<path fill="#EC1E24" d="M8.8,15.8l-1,1C7.6,16.9,7.4,17,7.2,17c-0.2,0-0.4-0.1-0.5-0.2l-2.2-2.2l-2.2,2.2C2.1,16.9,1.9,17,1.8,17
			s-0.4-0.1-0.5-0.2l-1-1C0.1,15.6,0,15.4,0,15.2s0.1-0.4,0.2-0.5l2.2-2.2l-2.2-2.2C0.1,10.1,0,9.9,0,9.8s0.1-0.4,0.2-0.5l1-1
			C1.4,8.1,1.6,8,1.8,8s0.4,0.1,0.5,0.2l2.2,2.2l2.2-2.2C6.9,8.1,7.1,8,7.2,8c0.2,0,0.4,0.1,0.5,0.2l1,1C8.9,9.4,9,9.6,9,9.8
			s-0.1,0.4-0.2,0.5l-2.2,2.2l2.2,2.2C8.9,14.9,9,15.1,9,15.2S8.9,15.6,8.8,15.8z"/>
	</g>
</g>
</svg>
