<?xml version="1.0" encoding="utf-8"?>
<!-- Generator: Adobe Illustrator 17.1.0, SVG Export Plug-In . SVG Version: 6.00 Build 0)  -->
<!DOCTYPE svg PUBLIC "-//W3C//DTD SVG 1.1//EN" "http://www.w3.org/Graphics/SVG/1.1/DTD/svg11.dtd">
<svg version="1.1" id="Layer_1" xmlns="http://www.w3.org/2000/svg" xmlns:xlink="http://www.w3.org/1999/xlink" x="0px" y="0px"
	 viewBox="0 0 21 17" enable-background="new 0 0 21 17" xml:space="preserve">
<g>
	<path fill="#434343" d="M19.2,8.5l-1.1-3.7h-2.7V2H5v5.3l0.9-0.9V2.9h8.5v6.5h5.7v2.8h-1.2c-0.1-0.2-0.2-0.3-0.3-0.4
		c-0.1-0.1-0.2-0.2-0.4-0.3c-0.1-0.1-0.3-0.1-0.4-0.2c-0.1,0-0.3-0.1-0.5-0.1c-0.2,0-0.4,0-0.5,0.1c-0.1,0-0.3,0.1-0.4,0.2
		c-0.1,0.1-0.3,0.2-0.4,0.3c-0.1,0.1-0.2,0.2-0.3,0.4h-5.2c-0.1-0.2-0.2-0.3-0.3-0.4c-0.1-0.1-0.2-0.2-0.4-0.3c0,0,0,0-0.1,0
		l-0.8,0.7c0.1,0,0.2,0,0.3,0c0.1,0,0.2,0.1,0.3,0.2c0.1,0.1,0.2,0.2,0.2,0.3c0,0.1,0.1,0.2,0.1,0.3s0,0.2-0.1,0.4
		c0,0.1-0.1,0.2-0.2,0.3C9.3,13.9,9.3,14,9.1,14c-0.1,0-0.2,0.1-0.4,0.1c-0.1,0-0.2,0-0.4-0.1c-0.1,0-0.2-0.1-0.3-0.2
		c-0.1-0.1-0.2-0.2-0.2-0.3c0-0.1-0.1-0.2-0.1-0.3l-0.8,0.7c0.1,0.2,0.2,0.4,0.4,0.5c0.2,0.2,0.4,0.3,0.6,0.4C8.3,15,8.5,15,8.8,15
		c0.3,0,0.5,0,0.8-0.1s0.4-0.2,0.6-0.4c0.2-0.2,0.3-0.4,0.4-0.6s0.2-0.5,0.2-0.7v0h4.7v0c0,0.3,0.1,0.5,0.2,0.7s0.2,0.4,0.4,0.6
		c0.2,0.2,0.4,0.3,0.6,0.4S17,15,17.3,15c0.3,0,0.5,0,0.7-0.1c0.2-0.1,0.4-0.2,0.6-0.4c0.2-0.2,0.3-0.4,0.4-0.6
		c0.1-0.2,0.2-0.5,0.2-0.7v0H21V8.5H19.2z M15.3,8.5V5.7h2l0.8,2.8H15.3z M18.1,13.5c0,0.1-0.1,0.2-0.2,0.3
		c-0.1,0.1-0.2,0.2-0.3,0.2s-0.2,0.1-0.4,0.1c-0.2,0-0.3,0-0.4-0.1s-0.2-0.1-0.3-0.2c-0.1-0.1-0.2-0.2-0.2-0.3
		c0-0.1-0.1-0.2-0.1-0.4s0-0.2,0.1-0.3c0-0.1,0.1-0.2,0.2-0.3c0.1-0.1,0.2-0.2,0.3-0.2s0.2-0.1,0.4-0.1c0.1,0,0.3,0,0.4,0.1
		s0.2,0.1,0.3,0.2c0.1,0.1,0.2,0.2,0.2,0.3c0,0.1,0.1,0.2,0.1,0.3S18.2,13.4,18.1,13.5z"/>
	<g>
		<path fill="#41B655" d="M10.8,8l-5.1,4.9l-1,0.9C4.6,13.9,4.4,14,4.2,14c-0.2,0-0.4-0.1-0.5-0.2l-1-0.9l-2.6-2.4
			C0.1,10.3,0,10.2,0,10s0.1-0.3,0.2-0.5l1-0.9c0.1-0.1,0.3-0.2,0.5-0.2c0.2,0,0.4,0.1,0.5,0.2l2.1,2l4.7-4.4C9,6.1,9.2,6,9.4,6
			c0.2,0,0.4,0.1,0.5,0.2l1,0.9C10.9,7.2,11,7.4,11,7.6S10.9,7.9,10.8,8z"/>
	</g>
</g>
</svg>
