<?xml version="1.0" encoding="utf-8"?>
<!-- Generator: Adobe Illustrator 17.1.0, SVG Export Plug-In . SVG Version: 6.00 Build 0)  -->
<!DOCTYPE svg PUBLIC "-//W3C//DTD SVG 1.1//EN" "http://www.w3.org/Graphics/SVG/1.1/DTD/svg11.dtd">
<svg version="1.1" id="Layer_1" xmlns="http://www.w3.org/2000/svg" xmlns:xlink="http://www.w3.org/1999/xlink" x="0px" y="0px"
	 viewBox="0 0 27 18" enable-background="new 0 0 27 18" xml:space="preserve">
<g>
	<rect fill="#01247D" width="27" height="18"/>
	<polygon fill="#FFFFFF" points="27,6.3 16.2,6.3 16.2,0 10.8,0 10.8,6.3 0,6.3 0,11.7 10.8,11.7 10.8,18 16.2,18 16.2,11.7 
		27,11.7 	"/>
	<polygon fill="#FFFFFF" points="27,15.9 3.1,0 0,0 0,2.1 23.9,18 27,18 	"/>
	<polygon fill="#FFFFFF" points="0,15.9 23.9,0 27,0 27,2.1 3.1,18 0,18 	"/>
	<polygon fill="#CF142B" points="27,7.4 15.1,7.4 15.1,0 11.9,0 11.9,7.4 0,7.4 0,10.6 11.9,10.6 11.9,18 15.1,18 15.1,10.6 
		27,10.6 	"/>
	<polygon fill="#CF142B" points="27,17.9 27,16.5 19.7,11.7 17.6,11.7 	"/>
	<polygon fill="#CF142B" points="27,0 24.9,0 16.2,5.8 16.2,6.3 17.5,6.3 27,0 	"/>
	<polygon fill="#CF142B" points="9.4,11.7 0,17.9 0,18 2.1,18 10.8,12.2 10.8,11.7 	"/>
	<polygon fill="#CF142B" points="0,0 0,1.4 7.3,6.3 9.5,6.3 	"/>
</g>
</svg>
