<?xml version="1.0" encoding="utf-8"?>
<!-- Generator: Adobe Illustrator 17.1.0, SVG Export Plug-In . SVG Version: 6.00 Build 0)  -->
<!DOCTYPE svg PUBLIC "-//W3C//DTD SVG 1.1//EN" "http://www.w3.org/Graphics/SVG/1.1/DTD/svg11.dtd">
<svg version="1.1" id="Layer_2" xmlns="http://www.w3.org/2000/svg" xmlns:xlink="http://www.w3.org/1999/xlink" x="0px" y="0px"
	 viewBox="0 0 248.2 20.6" enable-background="new 0 0 248.2 20.6" xml:space="preserve">
<path fill="#FFFFFF" d="M7.8,20.3H4.2V6.2H1.7c-0.7,0-1.7,0-1.7,0V3.3c0,0,1.1,0,2.3,0l9.7,0v2.9c0,0-1.1,0-2.3,0H7.8V20.3z"/>
<path fill="#FFFFFF" d="M20.3,13.7c-0.3,0-0.5,0-0.8,0s-0.7,0-1.3-0.1v6.6h-3.4V3.2C16,3.1,17.5,3,19.2,3c2.4,0,4.1,0.4,5.3,1.3
	c1.2,0.9,1.7,2.2,1.7,4c0,1.4-0.5,2.6-1.6,3.6c-0.3,0.3-0.7,0.6-1.2,0.8l3.7,7.6l-3.9,0L20.3,13.7z M19.5,6c-0.4,0-0.9,0-1.3,0.1
	v4.9c0.4,0.1,0.9,0.1,1.5,0.1c0.6,0,1,0,1.4-0.1c0.4-0.1,0.7-0.2,1-0.5c0.6-0.5,0.9-1.1,0.9-2s-0.3-1.5-0.9-1.9
	C21.5,6.2,20.6,6,19.5,6z"/>
<path fill="#FFFFFF" d="M39.8,3.2l3.5,0v10.5c0,2.1-0.6,3.8-1.9,5c-1.2,1.2-2.7,1.8-4.5,1.8c-2,0-3.6-0.5-4.8-1.5
	c-1.4-1.2-2.1-2.8-2.1-5V3.2h3.6v11c0,1.1,0.3,1.9,1,2.5c0.6,0.5,1.4,0.8,2.3,0.8c1.4,0,2.3-0.7,2.7-2.1c0.2-0.5,0.2-1.1,0.2-1.9
	V3.2z"/>
<path fill="#FFFFFF" d="M57.6,17.2l0,3.1h-9.7V3.2l9.4,0l0,3.2l-6.1,0v3.3l4.7,0l0,3l-4.7,0v4.6H57.6z"/>
<path fill="#FFFFFF" d="M61.4,20.3V3.2h3.5v14h4.5l0,3.1H61.4z"/>
<path fill="#FFFFFF" d="M93,20.3h-3.6l5.9-16.8l0.1-0.2l3.4,0l0,0.2l6.1,16.9c-0.2,0-3.8,0-3.8,0l-1.2-3.7h-5.8L93,20.3z M99,13.5
	l-1.9-5.9l-1.9,5.9H99z"/>
<path fill="#FFFFFF" d="M111.5,20.6c-1.4,0-2.7-0.1-3.9-0.3V3.2C108.7,3,110,3,111.5,3s2.8,0.2,4,0.6c1.2,0.4,2.2,1,3,1.7
	c1.6,1.5,2.5,3.6,2.5,6.3c0,3-0.9,5.3-2.7,6.9C116.7,19.9,114.4,20.6,111.5,20.6z M110.9,17.5c0.6,0.1,1.1,0.2,1.7,0.2
	s1.2-0.1,1.8-0.3c0.6-0.2,1.2-0.6,1.7-1c1-1,1.5-2.4,1.5-4.2c0-3.1-1.1-4.9-3.3-5.6c-0.7-0.2-1.6-0.3-2.5-0.3h-0.3
	c-0.1,0-0.3,0-0.4,0V17.5z"/>
<path fill="#FFFFFF" d="M133.9,17.2l0,3.1h-9.7V3.2l9.4,0l0,3.2l-6.1,0v3.3l4.7,0l0,3l-4.7,0v4.6H133.9z"/>
<path fill="#FFFFFF" d="M141.5,20.6c-1.4,0-2.7-0.1-3.9-0.3V3.2C138.7,3,140,3,141.5,3c1.5,0,2.8,0.2,4,0.6c1.2,0.4,2.2,1,3,1.7
	c1.6,1.5,2.5,3.6,2.5,6.3c0,3-0.9,5.3-2.7,6.9C146.6,19.9,144.4,20.6,141.5,20.6z M140.9,17.5c0.6,0.1,1.1,0.2,1.7,0.2
	s1.2-0.1,1.8-0.3c0.6-0.2,1.2-0.6,1.7-1c1-1,1.5-2.4,1.5-4.2c0-3.1-1.1-4.9-3.3-5.6c-0.7-0.2-1.6-0.3-2.5-0.3h-0.3
	c-0.1,0-0.3,0-0.4,0V17.5z"/>
<path fill="#1CB522" d="M80.3,6.2c2.8,0.3,5.1,2.7,5.1,5.6c0,0.3,0,0.6-0.1,1l3,1.1c0.2-0.7,0.3-1.4,0.3-2.1c0-4.7-3.7-8.5-8.3-8.8
	V6.2z"/>
<path fill="#FDAB02" d="M74.2,12.8c-0.1-0.3-0.1-0.6-0.1-1c0-2.9,2.2-5.3,5.1-5.6V3C74.6,3.3,71,7.1,71,11.8c0,0.7,0.1,1.4,0.3,2.1
	L74.2,12.8z"/>
<path fill="#008FE9" d="M85,13.8c-0.8,2.1-2.9,3.6-5.2,3.6c-2.4,0-4.4-1.5-5.2-3.6l-3,1.1c1.3,3.3,4.5,5.7,8.2,5.7
	c3.8,0,7-2.4,8.2-5.7L85,13.8z"/>
<g>
	<path fill="#FFFFFF" d="M189.1,1.7h3.3v6.5h5.8V1.7h3.3V19h-3.3v-7.6h-5.8V19h-3.3V1.7z"/>
	<path fill="#FFFFFF" d="M211.7,5.9c1.2,0,2.3,0.3,3.4,0.9s1.9,1.4,2.5,2.4s0.9,2.1,0.9,3.3c0,1.2-0.3,2.3-0.9,3.4s-1.4,1.9-2.4,2.5
		s-2.2,0.9-3.4,0.9c-1.8,0-3.4-0.7-4.7-2s-1.9-2.9-1.9-4.7c0-2,0.7-3.7,2.2-5C208.6,6.5,210,5.9,211.7,5.9z M211.8,8.9
		c-1,0-1.8,0.3-2.5,1c-0.7,0.7-1,1.6-1,2.7c0,1.1,0.3,2,1,2.7c0.7,0.7,1.5,1,2.5,1s1.8-0.3,2.5-1s1-1.6,1-2.7s-0.3-2-1-2.7
		S212.8,8.9,211.8,8.9z"/>
	<path fill="#FFFFFF" d="M221.5,1.3h3.2V19h-3.2V1.3z"/>
	<path fill="#FFFFFF" d="M231.6,1.3v6.3c0.6-0.6,1.2-1,1.9-1.3s1.4-0.4,2.2-0.4c1.7,0,3.1,0.6,4.2,1.9s1.7,2.9,1.7,4.8
		c0,1.9-0.6,3.5-1.8,4.8s-2.6,1.9-4.3,1.9c-0.7,0-1.4-0.1-2.1-0.4s-1.3-0.7-1.9-1.3V19h-3.2V1.3H231.6z M234.9,8.8
		c-1,0-1.8,0.3-2.5,1s-1,1.6-1,2.7c0,1.1,0.3,2,1,2.7s1.5,1,2.5,1c1,0,1.8-0.4,2.5-1.1s1-1.6,1-2.7c0-1.1-0.3-2-1-2.7
		S235.9,8.8,234.9,8.8z"/>
	<path fill="#FFFFFF" d="M244.6,6.2h3.2V19h-3.2V6.2z"/>
	<path fill="#4476A8" d="M246.2,1c0.6,0,1,0.2,1.4,0.6c0.4,0.4,0.6,0.9,0.6,1.5c0,0.6-0.2,1.1-0.6,1.5s-0.9,0.6-1.4,0.6
		c-0.6,0-1.1-0.2-1.5-0.6s-0.6-0.9-0.6-1.5c0-0.6,0.2-1,0.6-1.4S245.6,1,246.2,1z"/>
	<path fill="#EEB642" d="M241.2,1c0.6,0,1,0.2,1.4,0.6c0.4,0.4,0.6,0.9,0.6,1.5c0,0.6-0.2,1.1-0.6,1.5s-0.9,0.6-1.4,0.6
		c-0.6,0-1.1-0.2-1.5-0.6s-0.6-0.9-0.6-1.5c0-0.6,0.2-1,0.6-1.4S240.6,1,241.2,1z"/>
	<path fill="#7EB528" d="M236.2,1c0.6,0,1,0.2,1.4,0.6c0.4,0.4,0.6,0.9,0.6,1.5c0,0.6-0.2,1.1-0.6,1.5s-0.9,0.6-1.4,0.6
		c-0.6,0-1.1-0.2-1.5-0.6s-0.6-0.9-0.6-1.5c0-0.6,0.2-1,0.6-1.4S235.6,1,236.2,1z"/>
	<g>
		<path fill="#FFFFFF" d="M165.1,16.6c-0.6,0-1.1-0.1-1.5-0.4s-0.8-0.7-1-1.2h-0.1l-0.6,1.5h-1.1l2.9-13.7h1.5
			c-0.3,1.4-0.5,2.5-0.7,3.3s-0.4,1.6-0.7,2.6h0.1c0.5-0.7,1.1-1.2,1.6-1.5s1.1-0.5,1.6-0.5c0.8,0,1.5,0.3,1.9,0.9s0.7,1.4,0.7,2.4
			c0,1.2-0.2,2.4-0.6,3.4s-1,1.9-1.7,2.4S166,16.6,165.1,16.6z M166.7,7.9c-0.6,0-1.1,0.3-1.7,0.8s-1,1.3-1.4,2.1s-0.5,1.7-0.5,2.6
			c0,0.6,0.2,1.1,0.5,1.5s0.8,0.5,1.4,0.5c0.6,0,1.1-0.2,1.6-0.7s0.9-1.1,1.2-2s0.5-1.8,0.5-2.8C168.3,8.5,167.8,7.9,166.7,7.9z"/>
		<path fill="#FFFFFF" d="M171.9,6.8h1.5l0.7,4.8c0.1,0.4,0.1,1,0.2,1.8s0.1,1.4,0.1,1.9h0.1c0.2-0.5,0.5-1.1,0.8-1.8
			s0.5-1.1,0.7-1.4l2.9-5.4h1.6l-6.1,11.3c-0.5,1-1.1,1.7-1.6,2.1s-1.2,0.6-1.9,0.6c-0.4,0-0.8-0.1-1.2-0.2v-1.2
			c0.4,0.1,0.8,0.2,1.2,0.2c0.5,0,0.9-0.1,1.2-0.4s0.7-0.7,1-1.3l0.7-1.2L171.9,6.8z"/>
	</g>
</g>
</svg>
