<?xml version="1.0" encoding="utf-8"?>
<!-- Generator: Adobe Illustrator 17.1.0, SVG Export Plug-In . SVG Version: 6.00 Build 0)  -->
<!DOCTYPE svg PUBLIC "-//W3C//DTD SVG 1.1//EN" "http://www.w3.org/Graphics/SVG/1.1/DTD/svg11.dtd">
<svg version="1.1" id="Layer_2" xmlns="http://www.w3.org/2000/svg" xmlns:xlink="http://www.w3.org/1999/xlink" x="0px" y="0px"
	 viewBox="-20.9 258.4 868.5 79.5" enable-background="new -20.9 258.4 868.5 79.5" xml:space="preserve">
<g>
	<path fill="#FFFFFF" d="M641.4,268.1h11.2v22h19.7v-22h11.2v58.3h-11.2v-25.8h-19.7v25.8h-11.2V268.1z"/>
	<path fill="#FFFFFF" d="M718.1,282c4.1,0,7.8,1,11.5,3.1s6.4,4.7,8.5,8.1c2,3.4,3.1,7.1,3.1,11.2s-1,7.8-3.1,11.5
		c-2,3.7-4.7,6.4-8.1,8.5s-7.5,3.1-11.5,3.1c-6.1,0-11.5-2.4-15.9-6.8s-6.4-9.8-6.4-15.9c0-6.8,2.4-12.6,7.5-17
		C707.6,284.1,712.3,282,718.1,282z M718.4,292.6c-3.4,0-6.1,1-8.5,3.4c-2.4,2.4-3.4,5.4-3.4,9.2c0,3.7,1,6.8,3.4,9.2
		s5.1,3.4,8.5,3.4s6.1-1,8.5-3.4c2.4-2.4,3.4-5.4,3.4-9.2c0-3.7-1-6.8-3.4-9.2C724.5,293.6,721.8,292.6,718.4,292.6z"/>
	<path fill="#FFFFFF" d="M751.3,266.8h10.9v60h-10.9V266.8z"/>
	<path fill="#FFFFFF" d="M785.6,266.8v21.4c2-2,4.1-3.4,6.4-4.4c2.4-1,4.7-1.4,7.5-1.4c5.8,0,10.5,2,14.2,6.4
		c3.7,4.4,5.8,9.8,5.8,16.3s-2,11.9-6.1,16.3s-8.8,6.4-14.6,6.4c-2.4,0-4.7-0.3-7.1-1.4c-2.4-1-4.4-2.4-6.4-4.4v4.4h-10.9v-59.7
		H785.6z M796.8,292.2c-3.4,0-6.1,1-8.5,3.4c-2.4,2.4-3.4,5.4-3.4,9.2c0,3.7,1,6.8,3.4,9.2c2.4,2.4,5.1,3.4,8.5,3.4s6.1-1.4,8.5-3.7
		s3.4-5.4,3.4-9.2c0-3.7-1-6.8-3.4-9.2S800.2,292.2,796.8,292.2z"/>
	<path fill="#FFFFFF" d="M829.7,283.4h10.9v43.4h-10.9V283.4z"/>
	<path fill="#54ACE9" d="M835.1,262.7c2,0,3.4,0.7,4.7,2c1.4,1.4,2,3.1,2,5.1s-0.7,3.7-2,5.1c-1.4,1.4-3.1,2-4.7,2
		c-2,0-3.7-0.7-5.1-2s-2-3.1-2-5.1s0.7-3.4,2-4.7C831.4,263.7,833.1,262.7,835.1,262.7z"/>
	<path fill="#EEB642" d="M818.1,262.7c2,0,3.4,0.7,4.7,2c1.4,1.4,2,3.1,2,5.1s-0.7,3.7-2,5.1c-1.4,1.4-3.1,2-4.7,2
		c-2,0-3.7-0.7-5.1-2c-1.4-1.4-2-3.1-2-5.1s0.7-3.4,2-4.7C814.4,263.7,816.1,262.7,818.1,262.7z"/>
	<path fill="#7EB528" d="M801.2,262.7c2,0,3.4,0.7,4.7,2c1.4,1.4,2,3.1,2,5.1s-0.7,3.7-2,5.1c-1.4,1.4-3.1,2-4.7,2
		c-2,0-3.7-0.7-5.1-2c-1.4-1.4-2-3.1-2-5.1s0.7-3.4,2-4.7C797.5,263.7,799.2,262.7,801.2,262.7z"/>
	<g>
		<path fill="#FFFFFF" d="M560,318.7c-2,0-3.7-0.3-5.1-1.4c-1.4-1-2.7-2.4-3.4-4.1h-0.3l-2,5.1h-3.7l9.8-46.5h5.1
			c-1,4.7-1.7,8.5-2.4,11.2c-0.7,2.7-1.4,5.4-2.4,8.8h0.3c1.7-2.4,3.7-4.1,5.4-5.1c1.7-1,3.7-1.7,5.4-1.7c2.7,0,5.1,1,6.4,3.1
			c1.4,2,2.4,4.7,2.4,8.1c0,4.1-0.7,8.1-2,11.5c-1.4,3.4-3.4,6.4-5.8,8.1C565.8,317.7,563.1,318.7,560,318.7z M565.4,288.8
			c-2,0-3.7,1-5.8,2.7c-2,1.7-3.4,4.4-4.7,7.1c-1.4,2.7-1.7,5.8-1.7,8.8c0,2,0.7,3.7,1.7,5.1c1,1.4,2.7,1.7,4.7,1.7
			c2,0,3.7-0.7,5.4-2.4c1.7-1.7,3.1-3.7,4.1-6.8c1-3.1,1.7-6.1,1.7-9.5C570.9,291.2,569.2,288.8,565.4,288.8z"/>
		<path fill="#FFFFFF" d="M583.1,285.4h5.1l2.4,16.3c0.3,1.4,0.3,3.4,0.7,6.1s0.3,4.7,0.3,6.4h0.3c0.7-1.7,1.7-3.7,2.7-6.1
			c1-2.4,1.7-3.7,2.4-4.7l9.8-18.3h5.4l-20.7,38.3c-1.7,3.4-3.7,5.8-5.4,7.1s-4.1,2-6.4,2c-1.4,0-2.7-0.3-4.1-0.7v-4.1
			c1.4,0.3,2.7,0.7,4.1,0.7c1.7,0,3.1-0.3,4.1-1.4c1-1,2.4-2.4,3.4-4.4l2.4-4.1L583.1,285.4z"/>
	</g>
</g>
<g>
	<path fill="#FFFFFF" d="M30.2,273.9c-1-1-2.1-1.3-3.4-1.3h-38.6c-1.3,0-2.4,0.5-3.4,1.3c-1,1-1.3,2.1-1.3,3.4s0.5,2.4,1.3,3.4
		c1,1,2.1,1.3,3.4,1.3H2.5v44.4c0,1.5,0.5,2.6,1.5,3.6c1,1,2.1,1.5,3.6,1.5c1.5,0,2.6-0.5,3.6-1.5s1.5-2.1,1.5-3.6V282h14.3
		c1.3,0,2.4-0.5,3.4-1.3c1-1,1.3-2.1,1.3-3.4S31,274.7,30.2,273.9z"/>
	<path fill="#FFFFFF" d="M76.1,323.7l-10.2-16.5c2.6-1.5,4.7-3.4,6.3-5.8c1.8-2.9,2.8-6.2,2.8-9.7c0-3.7-0.8-7-2.6-9.9
		c-1.6-2.9-4.1-5.2-7.1-6.8c-2.9-1.6-6.3-2.4-10.2-2.4H42c-1.5,0-2.6,0.5-3.6,1.5c-1,1-1.5,2.1-1.5,3.6v48.8c0,1.5,0.5,2.6,1.5,3.6
		c1,1,2.1,1.5,3.6,1.5c1.5,0,2.6-0.5,3.6-1.5c1-1,1.5-2.1,1.5-3.6v-16.5h8.6l12,19.3c1,1.6,2.4,2.4,4.4,2.4c1.5,0,2.6-0.5,3.6-1.3
		c1-1,1.3-1.9,1.3-3.2C77.1,325.6,76.8,324.6,76.1,323.7z M65.2,291.5c0,2.6-1,4.5-2.8,6.2c-1.9,1.6-4.2,2.4-7.3,2.4h-7.9V282h7.9
		c2.9,0,5.4,0.8,7.1,2.8C64.3,286.5,65.2,288.6,65.2,291.5z"/>
	<path fill="#FFFFFF" d="M130.4,273.9c-1-1-2.1-1.5-3.6-1.5c-1.5,0-2.6,0.5-3.6,1.5c-1,1-1.5,2.1-1.5,3.6v33.7
		c0,2.3-0.6,4.4-1.8,6.2c-1.1,1.8-2.9,3.2-5,4.2c-2.1,1-4.7,1.6-7.5,1.6c-2.9,0-5.5-0.5-7.8-1.6c-2.3-1-3.9-2.4-5.2-4.2
		c-1.3-1.8-1.8-3.9-1.8-6.2v-33.6c0-1.5-0.5-2.6-1.5-3.6c-1-1-2.1-1.5-3.6-1.5c-1.5,0-2.6,0.5-3.6,1.5s-1.5,2.1-1.5,3.6v33.7
		c0,4.1,1.1,7.8,3.2,11c2.1,3.2,5,5.7,8.9,7.6c3.7,1.8,8.1,2.8,12.8,2.8c4.5,0,8.8-1,12.5-2.8c3.7-1.8,6.7-4.4,8.6-7.6
		c2.1-3.2,3.1-7,3.1-11v-33.7C131.9,276.1,131.4,274.8,130.4,273.9z"/>
	<path fill="#FFFFFF" d="M181.4,321.9h-27.6v-15.4h19.5c1.5,0,2.6-0.5,3.6-1.3c1-0.8,1.5-2.1,1.5-3.4s-0.5-2.6-1.5-3.4
		c-1-0.8-2.1-1.3-3.6-1.3h-19.5v-14.9h27.6c1.5,0,2.6-0.5,3.6-1.3c1-0.8,1.5-2.1,1.5-3.4c0-1.5-0.5-2.6-1.5-3.4
		c-1-0.8-2.1-1.3-3.6-1.3h-32.6c-1.5,0-2.6,0.5-3.6,1.5c-1,1-1.5,2.1-1.5,3.6v48.8c0,1.5,0.5,2.6,1.5,3.6s2.1,1.5,3.6,1.5h32.6
		c1.5,0,2.6-0.5,3.6-1.3c1-1,1.5-2.1,1.5-3.4s-0.5-2.4-1.5-3.4C184,322.4,182.8,321.9,181.4,321.9z"/>
	<path fill="#FFFFFF" d="M232.6,322.9c-1-1-2.1-1.5-3.6-1.5h-24.8v-43.8c0-1.5-0.5-2.6-1.5-3.6s-2.1-1.5-3.6-1.5
		c-1.3,0-2.6,0.5-3.6,1.5c-1,1-1.5,2.1-1.5,3.6v48.8c0,1.5,0.5,2.6,1.5,3.6c1,1,2.1,1.5,3.6,1.5h29.8c1.5,0,2.6-0.5,3.6-1.5
		c1-1,1.5-2.1,1.5-3.6S233.6,323.8,232.6,322.9z"/>
	<path fill="#FFFFFF" d="M345.1,324.3l-20.3-48.5c-0.8-2.3-2.4-3.4-4.7-3.4c-1.5,0-3.6,0.6-4.7,3.2l-20.4,48.7
		c-0.3,0.8-0.5,1.5-0.5,2.1c0,1.3,0.5,2.6,1.5,3.6c1,1,2.1,1.5,3.6,1.5c1,0,1.9-0.3,2.8-0.8s1.5-1.3,1.9-2.3l3.7-9.2h24.2l3.7,9.2
		c0.3,1,1,1.8,1.9,2.3c0.8,0.5,1.8,0.8,2.8,0.8c1.5,0,2.6-0.5,3.6-1.5c1-1,1.5-2.1,1.5-3.6C345.4,325.8,345.4,325.1,345.1,324.3z
		 M328.5,310.2h-17l8.6-21.1L328.5,310.2z"/>
	<path fill="#FFFFFF" d="M394.7,286.8c-2.4-4.4-6-7.9-10.4-10.5c-4.4-2.4-9.6-3.7-15.1-3.7h-13c-1.5,0-2.6,0.5-3.6,1.5
		s-1.5,2.1-1.5,3.6v48.8c0,1.5,0.5,2.6,1.5,3.6c1,1,2.1,1.5,3.6,1.5h13c5.7,0,10.7-1.3,15.1-3.7c4.4-2.4,7.9-6,10.4-10.5
		c2.4-4.4,3.7-9.6,3.7-15.2C398.4,296.2,397.1,291.2,394.7,286.8z M369.2,322.2h-8.1v-40.6h7.9c3.7,0,7.1,0.8,10.1,2.6
		c2.9,1.6,5.2,4.1,6.8,7.1c1.6,3.1,2.4,6.7,2.4,10.5c0,3.9-0.8,7.5-2.4,10.5c-1.6,3.1-3.9,5.5-6.8,7.1
		C376.4,321.4,373,322.2,369.2,322.2z"/>
	<path fill="#FFFFFF" d="M445.1,321.9h-27.6v-15.4H437c1.5,0,2.6-0.5,3.6-1.3c1-0.8,1.5-2.1,1.5-3.4s-0.5-2.6-1.5-3.4
		c-1-0.8-2.1-1.3-3.6-1.3h-19.5v-14.9h27.6c1.5,0,2.6-0.5,3.6-1.3c1-0.8,1.5-2.1,1.5-3.4c0-1.5-0.5-2.6-1.5-3.4
		c-1-0.8-2.1-1.3-3.6-1.3h-32.6c-1.5,0-2.6,0.5-3.6,1.5c-1,1-1.5,2.1-1.5,3.6v48.8c0,1.5,0.5,2.6,1.5,3.6c1,1,2.1,1.5,3.6,1.5h32.6
		c1.5,0,2.6-0.5,3.6-1.3c1-1,1.5-2.1,1.5-3.4s-0.5-2.4-1.5-3.4C447.9,322.4,446.6,321.9,445.1,321.9z"/>
	<path fill="#FFFFFF" d="M501.6,286.8c-2.4-4.4-6-7.9-10.4-10.5c-4.4-2.4-9.6-3.7-15.1-3.7h-13c-1.5,0-2.6,0.5-3.6,1.5
		c-1,1-1.5,2.1-1.5,3.6v48.8c0,1.5,0.5,2.6,1.5,3.6c1,1,2.1,1.5,3.6,1.5h13c5.7,0,10.7-1.3,15.1-3.7c4.4-2.4,7.9-6,10.4-10.5
		c2.4-4.4,3.7-9.6,3.7-15.2C505.3,296.2,504,291.2,501.6,286.8z M476.1,322.2h-7.9v-40.6h7.9c3.7,0,7.1,0.8,10.1,2.6
		c2.9,1.6,5.2,4.1,6.8,7.1c1.6,3.1,2.4,6.7,2.4,10.5c0,3.9-0.8,7.5-2.4,10.5c-1.6,3.1-3.9,5.5-6.8,7.1
		C483.3,321.4,479.9,322.2,476.1,322.2z"/>
	<g>
		<path fill="#FFFFFF" d="M264.4,270.6l-1.3-0.2v9.2l1.1,0.2c10.9,0.8,19.3,9.9,19.3,20.8c0,1.3-0.2,2.8-0.3,4.1l-0.2,1.1l8.9,3.2
			l0.3-1.5c0.5-2.3,0.8-4.5,0.8-6.7C293,284.9,280.3,271.6,264.4,270.6z"/>
		<path fill="#FFFFFF" d="M241.9,304.5c-0.3-1.3-0.3-2.8-0.3-4.1c0-10.9,8.4-20,19.3-20.8l1.1-0.2v-9.2l-1.3,0.2
			c-16.1,1-28.5,14.3-28.5,30.3c0,2.1,0.3,4.4,0.8,6.7l0.3,1.5l8.9-3.2L241.9,304.5z"/>
		<path fill="#FFFFFF" d="M281.8,308.7c-3.2,7.6-10.9,12.7-19.1,12.7c-8.6,0-16.2-5.2-19.3-13l-0.5-1.1l-9.6,2.8l0.5,1.3
			c4.4,12,15.9,20.1,28.7,20.1c12.5,0,24-7.9,28.5-19.6l0.5-1.3l-9.1-2.9L281.8,308.7z"/>
	</g>
	<g>
		<path fill="#FFFFFF" d="M291.7,301L291.7,301L291.7,301L291.7,301z"/>
		<polygon fill="#FFFFFF" points="293,301.1 291.9,301 291.4,301 290.4,301.1 290.4,301 290.4,300.8 291.2,301 291.7,301 293,300.8 
			293,301 		"/>
	</g>
	<g>
		<path fill="#FFFFFF" d="M528.4,274.2c1.8,1,3.1,2.4,4.1,4.1c1,1.8,1.5,3.6,1.5,5.7s-0.5,4.1-1.5,5.7c-1,1.8-2.4,3.1-4.1,4.1
			c-1.8,1-3.6,1.5-5.7,1.5c-2.1,0-3.9-0.5-5.7-1.5c-1.8-1-3.1-2.3-4.1-4.1c-1-1.8-1.5-3.6-1.5-5.7s0.5-3.9,1.5-5.7
			c1-1.8,2.4-3.1,4.1-4.1c1.8-1,3.6-1.5,5.7-1.5C524.8,272.6,526.6,273.1,528.4,274.2z M527.2,291.5c1.3-0.8,2.4-1.9,3.2-3.2
			c0.8-1.3,1.1-2.9,1.1-4.5c0-1.6-0.3-3.1-1.1-4.5c-0.8-1.3-1.9-2.4-3.2-3.2c-1.3-0.8-2.9-1.1-4.5-1.1s-3.1,0.3-4.5,1.1
			c-1.3,0.8-2.4,1.9-3.2,3.2c-0.8,1.3-1.1,2.9-1.1,4.5c0,1.6,0.3,3.1,1.1,4.5c0.8,1.3,1.9,2.4,3.2,3.2c1.3,0.8,2.9,1.1,4.5,1.1
			C524.3,292.8,525.8,292.4,527.2,291.5z M527.4,288.6c0.2,0.3,0.2,0.5,0.2,0.8c0,0.3-0.2,0.5-0.3,0.6c-0.2,0.2-0.5,0.3-0.8,0.3
			c-0.2,0-0.5,0-0.6-0.2c-0.2-0.2-0.3-0.2-0.5-0.3l-2.6-4.5h-0.3h-1.8v3.9c0,0.3-0.2,0.6-0.3,0.8c-0.2,0.2-0.5,0.3-0.8,0.3
			c-0.3,0-0.6-0.2-0.8-0.3c-0.2-0.2-0.3-0.5-0.3-0.8v-11.4c0-0.3,0.2-0.6,0.3-0.8s0.5-0.3,1-0.3h2.9c1.5,0,2.6,0.3,3.4,1.1
			c1,0.8,1.3,1.8,1.3,3.1c0,0.8-0.2,1.5-0.6,2.1c-0.3,0.6-1,1.1-1.6,1.6L527.4,288.6z M520.7,283.3h1.9c0.6,0,1.3-0.2,1.6-0.6
			c0.5-0.5,0.6-1,0.6-1.6c0-0.6-0.2-1.3-0.6-1.6s-1-0.6-1.6-0.6h-1.9V283.3z"/>
	</g>
</g>
</svg>
