<?xml version="1.0" encoding="utf-8"?>
<!-- Generator: Adobe Illustrator 17.1.0, SVG Export Plug-In . SVG Version: 6.00 Build 0)  -->
<!DOCTYPE svg PUBLIC "-//W3C//DTD SVG 1.1//EN" "http://www.w3.org/Graphics/SVG/1.1/DTD/svg11.dtd">
<svg version="1.1" id="Layer_2" xmlns="http://www.w3.org/2000/svg" xmlns:xlink="http://www.w3.org/1999/xlink" x="0px" y="0px"
	 viewBox="0 0 276.9 63" enable-background="new 0 0 276.9 63" xml:space="preserve">
<path fill="#545759" d="M14.3,31.8H7.7V5.8H3.1c-1.4,0-3.1,0-3.1,0V0.6c0,0,2,0,4.2,0l17.8,0v5.3c0,0-2,0-4.2,0h-3.5V31.8z"/>
<path fill="#545759" d="M37.3,19.6c-0.5,0-1,0-1.5,0s-1.3,0-2.4-0.1v12.2h-6.2V0.4C29.4,0.1,32.1,0,35.2,0c4.3,0,7.6,0.8,9.7,2.4
	s3.2,4.1,3.2,7.4c0,2.6-1,4.8-2.9,6.7c-0.6,0.6-1.4,1.1-2.2,1.5l6.8,13.9l-7.1,0L37.3,19.6z M35.7,5.5c-0.8,0-1.6,0-2.3,0.1v9
	c0.8,0.1,1.7,0.2,2.7,0.2s1.9-0.1,2.6-0.3s1.3-0.5,1.8-0.8c1.1-0.8,1.7-2.1,1.7-3.7s-0.6-2.8-1.7-3.5C39.4,5.8,37.8,5.5,35.7,5.5z"
	/>
<path fill="#545759" d="M73.1,0.5l6.4,0v19.3c0,3.8-1.2,6.9-3.5,9.3c-2.2,2.2-5,3.3-8.3,3.3c-3.6,0-6.6-0.9-8.8-2.8
	c-2.5-2.1-3.8-5.2-3.8-9.2V0.5h6.5v20.2c0,2,0.6,3.5,1.8,4.6c1.1,1,2.5,1.5,4.2,1.5c2.5,0,4.2-1.3,5-3.8c0.3-0.9,0.4-2.1,0.4-3.4
	V0.5z"/>
<path fill="#545759" d="M105.6,26.1l0,5.6H87.9V0.4l17.2,0l0,5.8L94,6.2v6l8.6,0l0,5.5l-8.6,0v8.4H105.6z"/>
<path fill="#545759" d="M112.6,31.8V0.4h6.4v25.7h8.2l0,5.6H112.6z"/>
<path fill="#545759" d="M170.6,31.8H164l10.9-30.8l0.2-0.4l6.3,0l0.1,0.3l11.1,30.9c-0.3,0-7,0-7,0l-2.2-6.8h-10.6L170.6,31.8z
	 M181.5,19.4L178,8.5l-3.4,10.9H181.5z"/>
<path fill="#545759" d="M204.5,32.3c-2.5,0-4.9-0.2-7.1-0.6V0.4c2.1-0.3,4.5-0.4,7.2-0.4s5.2,0.4,7.4,1.1s4.1,1.8,5.5,3.2
	c3,2.8,4.5,6.6,4.5,11.6c0,5.5-1.7,9.8-5,12.6C213.9,31.1,209.8,32.3,204.5,32.3z M203.4,26.6c1,0.2,2,0.3,3,0.3s2.1-0.2,3.3-0.6
	s2.2-1,3-1.9c1.8-1.8,2.8-4.4,2.8-7.8c0-5.6-2-9-6.1-10.3c-1.3-0.4-2.9-0.6-4.7-0.6h-0.6c-0.2,0-0.5,0-0.7,0V26.6z"/>
<path fill="#545759" d="M245.5,26.1l0,5.6h-17.8V0.4l17.2,0l0,5.8l-11.1,0v6l8.6,0l0,5.5l-8.6,0v8.4H245.5z"/>
<path fill="#545759" d="M259.4,32.3c-2.5,0-4.9-0.2-7.1-0.6V0.4c2.1-0.3,4.5-0.4,7.2-0.4s5.2,0.4,7.4,1.1s4.1,1.8,5.5,3.2
	c3,2.8,4.5,6.6,4.5,11.6c0,5.5-1.7,9.8-5,12.6C268.8,31.1,264.7,32.3,259.4,32.3z M258.3,26.6c1,0.2,2,0.3,3,0.3s2.1-0.2,3.3-0.6
	s2.2-1,3-1.9c1.8-1.8,2.8-4.4,2.8-7.8c0-5.6-2-9-6.1-10.3c-1.3-0.4-2.9-0.6-4.7-0.6H259c-0.2,0-0.5,0-0.7,0V26.6z"/>
<g id="Layer_5">
	<path fill="#1CB522" d="M147.3,5.9c5.2,0.5,9.3,4.9,9.3,10.3c0,0.6-0.1,1.2-0.2,1.8L162,20c0.3-1.2,0.5-2.5,0.5-3.8
		c0-8.6-6.7-15.6-15.1-16.1V5.9z"/>
	<path fill="#FDAB02" d="M136.1,17.9c-0.1-0.6-0.2-1.2-0.2-1.8c0-5.4,4.1-9.8,9.3-10.3V0c-8.5,0.5-15.2,7.5-15.2,16.1
		c0,1.3,0.2,2.6,0.5,3.8L136.1,17.9z"/>
	<path fill="#008FE9" d="M155.9,19.9c-1.5,3.9-5.2,6.6-9.6,6.6c-4.4,0-8.1-2.8-9.6-6.6l-5.5,2c2.3,6.1,8.2,10.4,15.1,10.4
		c6.9,0,12.8-4.3,15.1-10.4L155.9,19.9z"/>
</g>
<g id="Layer_6">
	<path fill="#3C3B3B" d="M113,44.1h3.3v6.5h5.8v-6.5h3.3v17.2h-3.3v-7.6h-5.8v7.6H113V44.1z"/>
	<path fill="#3C3B3B" d="M135.6,48.2c1.2,0,2.3,0.3,3.4,0.9s1.9,1.4,2.5,2.4s0.9,2.1,0.9,3.3c0,1.2-0.3,2.3-0.9,3.4
		s-1.4,1.9-2.4,2.5s-2.2,0.9-3.4,0.9c-1.8,0-3.4-0.7-4.7-2s-1.9-2.9-1.9-4.7c0-2,0.7-3.7,2.2-5C132.4,48.8,133.9,48.2,135.6,48.2z
		 M135.6,51.2c-1,0-1.8,0.3-2.5,1c-0.7,0.7-1,1.6-1,2.7c0,1.1,0.3,2,1,2.7c0.7,0.7,1.5,1,2.5,1s1.8-0.3,2.5-1s1-1.6,1-2.7
		s-0.3-2-1-2.7S136.7,51.2,135.6,51.2z"/>
	<path fill="#3C3B3B" d="M145.4,43.6h3.2v17.7h-3.2V43.6z"/>
	<path fill="#3C3B3B" d="M155.5,43.6v6.3c0.6-0.6,1.2-1,1.9-1.3s1.4-0.4,2.2-0.4c1.7,0,3.1,0.6,4.2,1.9s1.7,2.9,1.7,4.8
		c0,1.9-0.6,3.5-1.8,4.8s-2.6,1.9-4.3,1.9c-0.7,0-1.4-0.1-2.1-0.4s-1.3-0.7-1.9-1.3v1.3h-3.2V43.6H155.5z M158.8,51.2
		c-1,0-1.8,0.3-2.5,1s-1,1.6-1,2.7c0,1.1,0.3,2,1,2.7s1.5,1,2.5,1c1,0,1.8-0.4,2.5-1.1s1-1.6,1-2.7c0-1.1-0.3-2-1-2.7
		S159.8,51.2,158.8,51.2z"/>
	<path fill="#3C3B3B" d="M168.5,48.5h3.2v12.8h-3.2V48.5z"/>
	<path fill="#4476A8" d="M170.1,43.3c0.6,0,1,0.2,1.4,0.6c0.4,0.4,0.6,0.9,0.6,1.5c0,0.6-0.2,1.1-0.6,1.5s-0.9,0.6-1.4,0.6
		c-0.6,0-1.1-0.2-1.5-0.6s-0.6-0.9-0.6-1.5c0-0.6,0.2-1,0.6-1.4S169.5,43.3,170.1,43.3z"/>
	<path fill="#EEB642" d="M165.1,43.3c0.6,0,1,0.2,1.4,0.6c0.4,0.4,0.6,0.9,0.6,1.5c0,0.6-0.2,1.1-0.6,1.5s-0.9,0.6-1.4,0.6
		c-0.6,0-1.1-0.2-1.5-0.6s-0.6-0.9-0.6-1.5c0-0.6,0.2-1,0.6-1.4S164.5,43.3,165.1,43.3z"/>
	<path fill="#7EB528" d="M160.1,43.3c0.6,0,1,0.2,1.4,0.6c0.4,0.4,0.6,0.9,0.6,1.5c0,0.6-0.2,1.1-0.6,1.5s-0.9,0.6-1.4,0.6
		c-0.6,0-1.1-0.2-1.5-0.6s-0.6-0.9-0.6-1.5c0-0.6,0.2-1,0.6-1.4S159.5,43.3,160.1,43.3z"/>
	<text transform="matrix(1 0 0 1 84.1587 58.758)" fill="#3C3B3B" font-family="'OpenSans-Italic'" font-size="18">by</text>
</g>
</svg>
