<?xml version="1.0" encoding="utf-8"?>
<!-- Generator: Adobe Illustrator 17.1.0, SVG Export Plug-In . SVG Version: 6.00 Build 0)  -->
<!DOCTYPE svg PUBLIC "-//W3C//DTD SVG 1.1//EN" "http://www.w3.org/Graphics/SVG/1.1/DTD/svg11.dtd">
<svg version="1.1" id="Layer_1" xmlns="http://www.w3.org/2000/svg" xmlns:xlink="http://www.w3.org/1999/xlink" x="0px" y="0px"
	 viewBox="0 0 20 17" enable-background="new 0 0 20 17" xml:space="preserve">
<g>
	<path fill="#434343" d="M12,0L4,3v2.5h0.5c0.1,0,0.3,0,0.4,0V4l6.6,2.5v8.4l-2-0.8v0.9L12,16l8-3V3L12,0z M12,1l6.2,2.3l-2.4,0.9
		L9.6,1.9L12,1z M5.8,3.3l2.4-0.9l6.2,2.3L12,5.6L5.8,3.3z M19.1,12.4l-6.6,2.5V6.5L19.1,4V12.4z"/>
	<g>
		<path fill="#F9A823" d="M8,10.4V16c0,0.6-0.4,1-1,1H1c-0.6,0-1-0.4-1-1V8c0-0.6,0.4-1,1-1h3.6c0.3,0,0.5,0.1,0.7,0.3l2.4,2.4
			C7.9,9.9,8,10.1,8,10.4z M7,11H4.5C4.2,11,4,10.8,4,10.5V8H1v8h6V11z M5,10h1.8L5,8V10z"/>
		<rect x="2" y="12" fill="#F9A823" width="4" height="1"/>
		<rect x="2" y="14" fill="#F9A823" width="4" height="1"/>
		<rect x="2" y="10" fill="#F9A823" width="1" height="1"/>
	</g>
</g>
</svg>
