<?xml version="1.0" encoding="utf-8"?>
<!-- Generator: Adobe Illustrator 17.1.0, SVG Export Plug-In . SVG Version: 6.00 Build 0)  -->
<!DOCTYPE svg PUBLIC "-//W3C//DTD SVG 1.1//EN" "http://www.w3.org/Graphics/SVG/1.1/DTD/svg11.dtd">
<svg version="1.1" id="Layer_1" xmlns="http://www.w3.org/2000/svg" xmlns:xlink="http://www.w3.org/1999/xlink" x="0px" y="0px"
	 viewBox="0 0 97 92" enable-background="new 0 0 97 92" xml:space="preserve">
<g>
	<path d="M47.6,10.5l33.9,33.9L41.9,84L8,50.1L47.6,10.5 M47.6,0c-0.5,0-1,0.2-1.4,0.6L2.3,44.4c-3.1,3.1-3.1,8.2,0,11.3l33.9,33.9
		c1.6,1.6,3.6,2.3,5.7,2.3s4.1-0.8,5.7-2.3l43.8-43.8c0.8-0.8,0.8-2,0-2.8L49,0.6C48.6,0.2,48.1,0,47.6,0L47.6,0z"/>
</g>
<g>
	<path d="M86.9,65.2l-0.1-0.1c-2.3-2.4-2.3-6.2,0-8.5l6.8-6.9c1.3-1.3,3.4-0.4,3.4,1.4V61C97,66.3,90.6,69,86.9,65.2z"/>
</g>
<circle cx="55" cy="37" r="7"/>
<g>
	<path d="M55,40.5c-0.4,0-0.8-0.1-1.2-0.2l-48-15.5c-2.1-0.7-3.2-2.9-2.6-5c0.7-2.1,2.9-3.3,5-2.6l48,15.5c2.1,0.7,3.2,2.9,2.6,5
		C58.3,39.4,56.7,40.5,55,40.5z"/>
</g>
</svg>
