<?xml version="1.0" encoding="utf-8"?>
<!-- Generator: Adobe Illustrator 17.1.0, SVG Export Plug-In . SVG Version: 6.00 Build 0)  -->
<!DOCTYPE svg PUBLIC "-//W3C//DTD SVG 1.1//EN" "http://www.w3.org/Graphics/SVG/1.1/DTD/svg11.dtd">
<svg version="1.1" id="Layer_1" xmlns="http://www.w3.org/2000/svg" xmlns:xlink="http://www.w3.org/1999/xlink" x="0px" y="0px"
	 viewBox="0 0 21 17" enable-background="new 0 0 21 17" xml:space="preserve">
<path fill="#434343" d="M13,0L5,3v2c0.2,0,0.3,0,0.5,0c0.2,0,0.3,0,0.4,0V4l6.6,2.5v8.4l-1.2-0.5c-0.1,0.3-0.3,0.5-0.5,0.8L13,16
	l8-3V3L13,0z M13,1l6.2,2.3l-2.4,0.9l-6.2-2.3L13,1z M6.8,3.3l2.4-0.9l6.2,2.3L13,5.6L6.8,3.3z M20.1,12.4l-6.6,2.5V6.5L20.1,4V12.4
	z"/>
<path fill="#8EA3AB" d="M5.5,17c-3,0-5.5-2.5-5.5-5.5S2.5,6,5.5,6S11,8.5,11,11.5S8.5,17,5.5,17z M5.5,7.5c-2.2,0-4,1.8-4,4
	s1.8,4,4,4s4-1.8,4-4S7.7,7.5,5.5,7.5z M6.5,12.3c0,0.1-0.2,0.2-0.3,0.2H3.9c-0.1,0-0.2-0.1-0.2-0.2l0-0.6c0-0.1,0.1-0.2,0.2-0.2
	h1.6V9c0-0.1,0.1-0.2,0.2-0.2h0.6c0.1,0,0.2,0.1,0.2,0.2V12.3z"/>
</svg>
