<?xml version="1.0" encoding="utf-8"?>
<!-- Generator: Adobe Illustrator 24.1.2, SVG Export Plug-In . SVG Version: 6.00 Build 0)  -->
<svg version="1.1" id="Layer_1" xmlns="http://www.w3.org/2000/svg" xmlns:xlink="http://www.w3.org/1999/xlink" x="0px" y="0px"
	 viewBox="0 0 15.2 15.5" style="enable-background:new 0 0 15.2 15.5;" xml:space="preserve">
<style type="text/css">
	.st0{fill:#23CC00;}
</style>
<g>
	<path class="st0" d="M7.6,0.5c-4,0-7.3,3.3-7.3,7.3s3.3,7.3,7.3,7.3s7.3-3.3,7.3-7.3S11.6,0.5,7.6,0.5z M7.6,13.5
		c-3.1,0-5.7-2.6-5.7-5.7c0-3.1,2.6-5.7,5.7-5.7s5.7,2.6,5.7,5.7C13.3,10.9,10.7,13.5,7.6,13.5z"/>
	<path class="st0" d="M10.3,7H8.4V5.1c0-0.5-0.4-0.8-0.8-0.8S6.8,4.6,6.8,5.1V7H4.9C4.4,7,4,7.4,4,7.8c0,0.5,0.4,0.8,0.8,0.8h1.9
		v1.9c0,0.5,0.4,0.8,0.8,0.8s0.8-0.4,0.8-0.8V8.6h1.9c0.5,0,0.8-0.4,0.8-0.8C11.2,7.4,10.8,7,10.3,7z"/>
</g>
</svg>
