<?xml version="1.0" encoding="utf-8"?>
<!-- Generator: Adobe Illustrator 24.1.2, SVG Export Plug-In . SVG Version: 6.00 Build 0)  -->
<svg version="1.1" id="Layer_1" xmlns="http://www.w3.org/2000/svg" xmlns:xlink="http://www.w3.org/1999/xlink" x="0px" y="0px"
	 viewBox="0 0 318.4 27.1" style="enable-background:new 0 0 318.4 27.1;" xml:space="preserve">
<style type="text/css">
	.st0{fill:#FFFFFF;}
	.st1{fill:#FF3C00;}
</style>
<g>
	<g>
		<path class="st0" d="M27.5,15.8v3.9c-0.2,0-0.4,0.1-0.7,0.1c-0.3,0-0.7,0.1-1,0.1c-0.7,0-1.3-0.1-1.5-0.4
			c-0.3-0.3-0.4-0.7-0.4-1.4V8.3c0-0.3,0.1-0.5,0.2-0.7c0.2-0.2,0.4-0.3,0.7-0.4c0.5-0.2,1-0.3,1.7-0.4c0.7-0.1,1.2-0.1,1.8-0.1
			c1.9,0,3.4,0.4,4.4,1.2c1,0.8,1.5,1.9,1.5,3.4c0,0.7-0.1,1.3-0.4,1.9c-0.3,0.6-0.6,1-1.1,1.4c-0.5,0.4-1,0.7-1.7,0.9
			c-0.7,0.2-1.4,0.3-2.2,0.3H27.5z M28.5,13c0.6,0,1.1-0.1,1.4-0.4c0.3-0.3,0.5-0.7,0.5-1.2c0-0.5-0.2-0.9-0.5-1.2
			c-0.3-0.3-0.8-0.4-1.4-0.4c-0.2,0-0.4,0-0.6,0c-0.1,0-0.3,0-0.5,0.1V13H28.5z"/>
		<path class="st0" d="M45.8,14.7c0,0.8-0.1,1.6-0.4,2.3c-0.3,0.7-0.6,1.2-1.1,1.7c-0.5,0.5-1.1,0.8-1.7,1.1
			c-0.7,0.3-1.4,0.4-2.3,0.4s-1.6-0.1-2.3-0.4c-0.7-0.2-1.2-0.6-1.7-1.1c-0.5-0.5-0.9-1-1.1-1.7c-0.3-0.7-0.4-1.4-0.4-2.3
			c0-0.8,0.1-1.6,0.4-2.2c0.3-0.7,0.6-1.2,1.1-1.7c0.5-0.5,1.1-0.8,1.7-1.1c0.7-0.3,1.4-0.4,2.2-0.4c0.8,0,1.6,0.1,2.2,0.4
			c0.7,0.3,1.2,0.6,1.7,1.1c0.5,0.5,0.9,1,1.1,1.7C45.7,13.1,45.8,13.9,45.8,14.7z M40.4,12.1c-0.6,0-1,0.2-1.4,0.7
			c-0.3,0.5-0.5,1.1-0.5,1.9c0,0.9,0.2,1.5,0.5,2c0.3,0.4,0.8,0.7,1.4,0.7c0.6,0,1-0.2,1.4-0.7c0.3-0.4,0.5-1.1,0.5-2
			c0-0.8-0.2-1.5-0.5-1.9C41.4,12.3,40.9,12.1,40.4,12.1z"/>
		<path class="st0" d="M54.6,14.1c-0.1,0.5-0.2,1-0.4,1.5c-0.1,0.5-0.3,1-0.4,1.5c-0.1,0.5-0.3,0.9-0.4,1.3c-0.1,0.4-0.2,0.7-0.3,1
			c-0.2,0.2-0.5,0.3-0.8,0.4C52,19.9,51.6,20,51.1,20c-0.6,0-1.1-0.1-1.5-0.2c-0.4-0.2-0.7-0.4-0.8-0.7c-0.1-0.2-0.2-0.5-0.3-0.9
			c-0.1-0.4-0.3-0.9-0.4-1.4c-0.1-0.5-0.3-1.1-0.4-1.6c-0.1-0.6-0.3-1.2-0.4-1.8c-0.1-0.6-0.2-1.2-0.3-1.7c-0.1-0.6-0.2-1.1-0.3-1.5
			c0.2-0.2,0.5-0.4,0.8-0.5c0.3-0.1,0.7-0.2,1.1-0.2c0.5,0,0.9,0.1,1.2,0.3c0.3,0.2,0.5,0.6,0.6,1.1c0.1,1.1,0.3,1.9,0.4,2.6
			c0.1,0.7,0.2,1.3,0.2,1.7c0.1,0.4,0.1,0.8,0.1,1c0,0.2,0.1,0.4,0.1,0.6h0.1c0-0.2,0.1-0.5,0.2-1c0.1-0.4,0.2-0.9,0.4-1.5
			c0.1-0.5,0.3-1.1,0.4-1.8c0.2-0.6,0.3-1.3,0.5-1.9c0.3-0.2,0.6-0.3,0.8-0.4c0.3-0.1,0.6-0.1,1-0.1c0.5,0,0.9,0.1,1.3,0.2
			c0.3,0.2,0.6,0.4,0.7,0.7c0.2,0.6,0.3,1.2,0.5,1.8c0.2,0.6,0.3,1.1,0.4,1.6c0.1,0.5,0.2,0.9,0.3,1.3c0.1,0.4,0.2,0.7,0.2,0.9h0.1
			c0.2-1.1,0.3-2.2,0.5-3.4c0.1-1.2,0.3-2.3,0.4-3.5c0.3-0.2,0.5-0.3,0.8-0.3c0.3-0.1,0.6-0.1,0.8-0.1c0.5,0,0.9,0.1,1.2,0.3
			c0.3,0.2,0.5,0.6,0.5,1.1c0,0.2,0,0.6-0.1,1c-0.1,0.4-0.2,0.9-0.3,1.5c-0.1,0.6-0.2,1.1-0.4,1.8c-0.1,0.6-0.3,1.2-0.4,1.8
			c-0.1,0.6-0.3,1.1-0.4,1.5c-0.1,0.5-0.2,0.8-0.3,1.1c-0.2,0.2-0.5,0.3-0.9,0.4C59,19.9,58.6,20,58.1,20c-1.2,0-1.9-0.3-2.1-0.9
			c-0.1-0.3-0.2-0.6-0.3-1c-0.1-0.4-0.3-0.8-0.4-1.2c-0.1-0.4-0.3-0.9-0.4-1.4C54.8,15,54.7,14.5,54.6,14.1z"/>
		<path class="st0" d="M66.8,16.1c0.2,0.5,0.5,0.9,1,1.1c0.5,0.2,1,0.3,1.6,0.3c0.6,0,1.1-0.1,1.7-0.2c0.5-0.1,1-0.3,1.3-0.5
			c0.2,0.1,0.4,0.3,0.6,0.6c0.2,0.3,0.2,0.5,0.2,0.8c0,0.3-0.1,0.7-0.3,0.9c-0.2,0.3-0.5,0.5-0.8,0.6s-0.8,0.3-1.3,0.4
			c-0.5,0.1-1,0.1-1.6,0.1c-0.8,0-1.6-0.1-2.3-0.3c-0.7-0.2-1.3-0.6-1.8-1c-0.5-0.5-0.9-1-1.2-1.7c-0.3-0.7-0.4-1.5-0.4-2.5
			c0-0.9,0.1-1.7,0.5-2.4c0.3-0.7,0.7-1.2,1.2-1.6c0.5-0.4,1.1-0.7,1.7-0.9c0.6-0.2,1.3-0.3,1.9-0.3c0.7,0,1.4,0.1,2,0.3
			c0.6,0.2,1.1,0.5,1.6,0.9c0.4,0.4,0.8,0.9,1,1.4c0.2,0.5,0.4,1.1,0.4,1.8c0,0.5-0.1,0.8-0.4,1.1c-0.3,0.3-0.6,0.4-1.1,0.5
			L66.8,16.1z M68.6,11.9c-0.5,0-1,0.2-1.3,0.5c-0.4,0.3-0.6,0.8-0.6,1.4l3.6-0.6c0-0.1-0.1-0.3-0.1-0.4c-0.1-0.1-0.2-0.3-0.3-0.4
			c-0.1-0.1-0.3-0.2-0.5-0.3C69.1,11.9,68.8,11.9,68.6,11.9z"/>
		<path class="st0" d="M78.6,19.8c-0.2,0-0.4,0.1-0.7,0.1c-0.3,0-0.6,0.1-0.9,0.1c-0.7,0-1.2-0.1-1.5-0.3c-0.3-0.2-0.5-0.7-0.5-1.3
			V12c0-0.4,0.1-0.8,0.3-1.1c0.2-0.3,0.5-0.6,0.9-0.8c0.5-0.3,1.1-0.5,1.7-0.7c0.7-0.2,1.3-0.2,2-0.2c1.5,0,2.3,0.5,2.3,1.6
			c0,0.3,0,0.5-0.1,0.7c-0.1,0.2-0.2,0.4-0.3,0.6c-0.3-0.1-0.7-0.1-1.2-0.1c-0.4,0-0.7,0-1.1,0.1c-0.4,0.1-0.7,0.2-1,0.4V19.8z"/>
		<path class="st0" d="M86.9,10.4h3.4c0.1,0.2,0.2,0.3,0.2,0.6c0.1,0.2,0.1,0.5,0.1,0.8c0,0.5-0.1,0.8-0.3,1.1
			c-0.2,0.2-0.5,0.3-0.9,0.3h-2.4v6.6c-0.2,0-0.4,0.1-0.7,0.1c-0.3,0-0.6,0.1-0.9,0.1c-0.7,0-1.2-0.1-1.5-0.3
			c-0.3-0.2-0.5-0.7-0.5-1.3V9.6c0-0.7,0.1-1.3,0.4-1.8c0.2-0.5,0.6-0.9,1-1.3c0.4-0.3,0.9-0.6,1.5-0.7c0.6-0.2,1.2-0.2,1.8-0.2
			c1,0,1.8,0.1,2.3,0.4c0.5,0.3,0.7,0.7,0.7,1.4c0,0.3-0.1,0.5-0.2,0.8c-0.1,0.2-0.2,0.4-0.4,0.5c-0.3-0.1-0.5-0.1-0.8-0.2
			c-0.3,0-0.6-0.1-1-0.1c-0.6,0-1.1,0.1-1.4,0.3c-0.3,0.2-0.5,0.6-0.5,1.1V10.4z"/>
		<path class="st0" d="M92.1,9.6c0.2,0,0.4-0.1,0.7-0.1c0.3,0,0.6-0.1,0.9-0.1c0.7,0,1.2,0.1,1.5,0.3c0.3,0.2,0.5,0.7,0.5,1.3v4.6
			c0,0.6,0.1,1,0.4,1.2c0.3,0.2,0.7,0.4,1.2,0.4c0.3,0,0.6,0,0.8-0.1c0.2-0.1,0.4-0.1,0.5-0.2V9.6c0.2,0,0.4-0.1,0.7-0.1
			c0.3,0,0.6-0.1,0.9-0.1c0.7,0,1.2,0.1,1.5,0.3c0.3,0.2,0.5,0.7,0.5,1.3v6.5c0,0.7-0.3,1.2-0.9,1.6c-0.5,0.3-1.1,0.5-1.8,0.7
			c-0.7,0.2-1.4,0.2-2.2,0.2c-0.8,0-1.5-0.1-2.1-0.3c-0.6-0.2-1.2-0.4-1.6-0.8c-0.5-0.3-0.8-0.8-1.1-1.4c-0.3-0.6-0.4-1.2-0.4-2V9.6
			z"/>
		<path class="st0" d="M106.3,19.9c-0.7,0-1.2-0.1-1.5-0.3s-0.5-0.7-0.5-1.3V6.1c0.2,0,0.4-0.1,0.7-0.1c0.3,0,0.6-0.1,0.9-0.1
			c0.7,0,1.2,0.1,1.5,0.3c0.3,0.2,0.5,0.7,0.5,1.3v12.2c-0.2,0-0.4,0.1-0.7,0.1C106.9,19.9,106.6,19.9,106.3,19.9z"/>
		<path class="st0" d="M124.2,8.9c0,0.4-0.1,0.7-0.3,0.9c-0.2,0.3-0.4,0.5-0.6,0.6c-0.4-0.2-0.8-0.4-1.2-0.6
			c-0.4-0.2-0.9-0.3-1.4-0.3c-1.1,0-1.9,0.3-2.5,1c-0.6,0.7-0.9,1.6-0.9,2.8c0,1.2,0.3,2.2,0.9,2.8c0.6,0.6,1.5,1,2.6,1
			c0.6,0,1.1-0.1,1.5-0.2c0.4-0.2,0.8-0.3,1.1-0.5c0.2,0.2,0.4,0.4,0.6,0.7c0.1,0.3,0.2,0.6,0.2,1c0,0.3-0.1,0.6-0.3,0.9
			c-0.2,0.3-0.5,0.5-0.9,0.7c-0.3,0.1-0.6,0.2-1.1,0.3c-0.5,0.1-1,0.2-1.7,0.2c-1,0-1.8-0.1-2.7-0.4c-0.8-0.3-1.5-0.7-2.2-1.2
			c-0.6-0.5-1.1-1.2-1.4-2.1c-0.3-0.8-0.5-1.9-0.5-3c0-1.1,0.2-2.1,0.5-2.9c0.3-0.8,0.8-1.5,1.4-2.1c0.6-0.6,1.3-1,2.1-1.3
			c0.8-0.3,1.6-0.4,2.6-0.4c1.3,0,2.3,0.2,3,0.6C123.9,7.7,124.2,8.3,124.2,8.9z"/>
		<path class="st0" d="M136.1,14.7c0,0.8-0.1,1.6-0.4,2.3c-0.3,0.7-0.6,1.2-1.1,1.7c-0.5,0.5-1.1,0.8-1.7,1.1
			c-0.7,0.3-1.4,0.4-2.3,0.4s-1.6-0.1-2.3-0.4c-0.7-0.2-1.2-0.6-1.7-1.1c-0.5-0.5-0.9-1-1.1-1.7c-0.3-0.7-0.4-1.4-0.4-2.3
			c0-0.8,0.1-1.6,0.4-2.2c0.3-0.7,0.6-1.2,1.1-1.7c0.5-0.5,1.1-0.8,1.7-1.1c0.7-0.3,1.4-0.4,2.2-0.4c0.8,0,1.6,0.1,2.2,0.4
			c0.7,0.3,1.2,0.6,1.7,1.1c0.5,0.5,0.9,1,1.1,1.7C135.9,13.1,136.1,13.9,136.1,14.7z M130.6,12.1c-0.6,0-1,0.2-1.4,0.7
			c-0.3,0.5-0.5,1.1-0.5,1.9c0,0.9,0.2,1.5,0.5,2c0.3,0.4,0.8,0.7,1.4,0.7s1-0.2,1.4-0.7c0.3-0.4,0.5-1.1,0.5-2
			c0-0.8-0.2-1.5-0.5-1.9C131.6,12.3,131.2,12.1,130.6,12.1z"/>
		<path class="st0" d="M153.2,19.8c-0.2,0-0.4,0.1-0.7,0.1c-0.3,0-0.6,0.1-0.9,0.1c-0.7,0-1.2-0.1-1.5-0.3s-0.5-0.7-0.5-1.3v-5
			c0-0.4-0.1-0.7-0.3-0.9c-0.2-0.2-0.5-0.3-0.9-0.3c-0.2,0-0.5,0-0.7,0.1c-0.2,0.1-0.4,0.2-0.6,0.3c0,0.1,0,0.1,0,0.2
			c0,0,0,0.1,0,0.1v7c-0.2,0-0.4,0.1-0.7,0.1c-0.3,0-0.6,0.1-0.9,0.1c-0.7,0-1.2-0.1-1.5-0.3c-0.3-0.2-0.5-0.7-0.5-1.3v-5
			c0-0.4-0.1-0.7-0.4-0.9c-0.2-0.2-0.5-0.3-0.9-0.3c-0.3,0-0.5,0-0.7,0.1c-0.2,0.1-0.4,0.2-0.5,0.2v7.4c-0.2,0-0.4,0.1-0.7,0.1
			c-0.3,0-0.6,0.1-0.9,0.1c-0.7,0-1.2-0.1-1.5-0.3c-0.3-0.2-0.5-0.7-0.5-1.3V12c0-0.4,0.1-0.7,0.2-0.9c0.2-0.2,0.4-0.5,0.7-0.7
			c0.5-0.3,1.1-0.6,1.8-0.8c0.7-0.2,1.4-0.3,2.2-0.3c0.6,0,1.1,0.1,1.6,0.2c0.5,0.2,1,0.4,1.5,0.7c0.4-0.3,0.9-0.5,1.4-0.7
			c0.5-0.2,1.2-0.3,1.9-0.3c0.5,0,1.1,0.1,1.6,0.2c0.5,0.1,1,0.4,1.4,0.7c0.4,0.3,0.7,0.7,1,1.2c0.2,0.5,0.4,1.1,0.4,1.8V19.8z"/>
		<path class="st0" d="M170.8,19.8c-0.2,0-0.4,0.1-0.7,0.1c-0.3,0-0.6,0.1-0.9,0.1c-0.7,0-1.2-0.1-1.5-0.3s-0.5-0.7-0.5-1.3v-5
			c0-0.4-0.1-0.7-0.3-0.9c-0.2-0.2-0.5-0.3-0.9-0.3c-0.2,0-0.5,0-0.7,0.1c-0.2,0.1-0.4,0.2-0.6,0.3c0,0.1,0,0.1,0,0.2
			c0,0,0,0.1,0,0.1v7c-0.2,0-0.4,0.1-0.7,0.1c-0.3,0-0.6,0.1-0.9,0.1c-0.7,0-1.2-0.1-1.5-0.3c-0.3-0.2-0.5-0.7-0.5-1.3v-5
			c0-0.4-0.1-0.7-0.4-0.9c-0.2-0.2-0.5-0.3-0.9-0.3c-0.3,0-0.5,0-0.7,0.1c-0.2,0.1-0.4,0.2-0.5,0.2v7.4c-0.2,0-0.4,0.1-0.7,0.1
			c-0.3,0-0.6,0.1-0.9,0.1c-0.7,0-1.2-0.1-1.5-0.3c-0.3-0.2-0.5-0.7-0.5-1.3V12c0-0.4,0.1-0.7,0.2-0.9c0.2-0.2,0.4-0.5,0.7-0.7
			c0.5-0.3,1.1-0.6,1.8-0.8c0.7-0.2,1.4-0.3,2.2-0.3c0.6,0,1.1,0.1,1.6,0.2c0.5,0.2,1,0.4,1.5,0.7c0.4-0.3,0.9-0.5,1.4-0.7
			c0.5-0.2,1.2-0.3,1.9-0.3c0.5,0,1.1,0.1,1.6,0.2c0.5,0.1,1,0.4,1.4,0.7c0.4,0.3,0.7,0.7,1,1.2c0.2,0.5,0.4,1.1,0.4,1.8V19.8z"/>
		<path class="st0" d="M175.9,16.1c0.2,0.5,0.5,0.9,1,1.1c0.5,0.2,1,0.3,1.6,0.3c0.6,0,1.1-0.1,1.7-0.2c0.5-0.1,1-0.3,1.3-0.5
			c0.2,0.1,0.4,0.3,0.6,0.6c0.2,0.3,0.2,0.5,0.2,0.8c0,0.3-0.1,0.7-0.3,0.9c-0.2,0.3-0.5,0.5-0.8,0.6c-0.4,0.2-0.8,0.3-1.3,0.4
			c-0.5,0.1-1,0.1-1.6,0.1c-0.8,0-1.6-0.1-2.3-0.3c-0.7-0.2-1.3-0.6-1.8-1c-0.5-0.5-0.9-1-1.2-1.7c-0.3-0.7-0.4-1.5-0.4-2.5
			c0-0.9,0.1-1.7,0.5-2.4c0.3-0.7,0.7-1.2,1.2-1.6c0.5-0.4,1.1-0.7,1.7-0.9c0.6-0.2,1.3-0.3,1.9-0.3c0.7,0,1.4,0.1,2,0.3
			c0.6,0.2,1.1,0.5,1.6,0.9c0.4,0.4,0.8,0.9,1,1.4c0.2,0.5,0.4,1.1,0.4,1.8c0,0.5-0.1,0.8-0.4,1.1c-0.3,0.3-0.6,0.4-1.1,0.5
			L175.9,16.1z M177.7,11.9c-0.5,0-1,0.2-1.3,0.5c-0.4,0.3-0.6,0.8-0.6,1.4l3.6-0.6c0-0.1-0.1-0.3-0.1-0.4c-0.1-0.1-0.2-0.3-0.3-0.4
			c-0.1-0.1-0.3-0.2-0.5-0.3C178.2,11.9,177.9,11.9,177.7,11.9z"/>
		<path class="st0" d="M187.7,19.8c-0.2,0-0.4,0.1-0.7,0.1c-0.3,0-0.6,0.1-0.9,0.1c-0.7,0-1.2-0.1-1.5-0.3c-0.3-0.2-0.5-0.7-0.5-1.3
			V12c0-0.4,0.1-0.8,0.3-1.1c0.2-0.3,0.5-0.6,0.9-0.8c0.5-0.3,1.1-0.5,1.7-0.7c0.7-0.2,1.3-0.2,2-0.2c1.5,0,2.3,0.5,2.3,1.6
			c0,0.3,0,0.5-0.1,0.7c-0.1,0.2-0.2,0.4-0.3,0.6c-0.3-0.1-0.7-0.1-1.2-0.1c-0.4,0-0.7,0-1.1,0.1c-0.4,0.1-0.7,0.2-1,0.4V19.8z"/>
		<path class="st0" d="M198,12.1c-0.3,0-0.7,0.1-1,0.2c-0.3,0.1-0.6,0.3-0.8,0.5c-0.2,0.2-0.4,0.5-0.6,0.8c-0.1,0.3-0.2,0.7-0.2,1.1
			c0,0.9,0.2,1.5,0.7,1.9c0.5,0.4,1.1,0.6,1.8,0.6c0.4,0,0.8-0.1,1.1-0.2c0.3-0.1,0.6-0.2,0.8-0.3c0.3,0.2,0.5,0.4,0.6,0.6
			c0.1,0.2,0.2,0.5,0.2,0.8c0,0.6-0.3,1-0.8,1.3c-0.6,0.3-1.3,0.5-2.4,0.5c-0.9,0-1.7-0.1-2.4-0.3c-0.7-0.2-1.3-0.6-1.8-1
			c-0.5-0.5-0.9-1-1.1-1.7c-0.3-0.7-0.4-1.4-0.4-2.3c0-0.9,0.1-1.7,0.5-2.4c0.3-0.7,0.7-1.3,1.2-1.7c0.5-0.4,1.1-0.8,1.8-1
			c0.7-0.2,1.4-0.3,2.1-0.3c1,0,1.8,0.2,2.3,0.5c0.5,0.4,0.8,0.8,0.8,1.4c0,0.3-0.1,0.5-0.2,0.7c-0.1,0.2-0.3,0.4-0.4,0.6
			c-0.2-0.1-0.5-0.2-0.9-0.3C198.7,12.1,198.4,12.1,198,12.1z"/>
		<path class="st0" d="M205.1,16.1c0.2,0.5,0.5,0.9,1,1.1c0.5,0.2,1,0.3,1.6,0.3c0.6,0,1.1-0.1,1.7-0.2c0.5-0.1,1-0.3,1.3-0.5
			c0.2,0.1,0.4,0.3,0.6,0.6c0.2,0.3,0.2,0.5,0.2,0.8c0,0.3-0.1,0.7-0.3,0.9c-0.2,0.3-0.5,0.5-0.8,0.6c-0.4,0.2-0.8,0.3-1.3,0.4
			c-0.5,0.1-1,0.1-1.6,0.1c-0.8,0-1.6-0.1-2.3-0.3c-0.7-0.2-1.3-0.6-1.8-1c-0.5-0.5-0.9-1-1.2-1.7c-0.3-0.7-0.4-1.5-0.4-2.5
			c0-0.9,0.1-1.7,0.5-2.4c0.3-0.7,0.7-1.2,1.2-1.6c0.5-0.4,1.1-0.7,1.7-0.9c0.6-0.2,1.3-0.3,1.9-0.3c0.7,0,1.4,0.1,2,0.3
			c0.6,0.2,1.1,0.5,1.6,0.9c0.4,0.4,0.8,0.9,1,1.4c0.2,0.5,0.4,1.1,0.4,1.8c0,0.5-0.1,0.8-0.4,1.1c-0.3,0.3-0.6,0.4-1.1,0.5
			L205.1,16.1z M206.8,11.9c-0.5,0-1,0.2-1.3,0.5c-0.4,0.3-0.6,0.8-0.6,1.4l3.6-0.6c0-0.1-0.1-0.3-0.1-0.4c-0.1-0.1-0.2-0.3-0.3-0.4
			c-0.1-0.1-0.3-0.2-0.5-0.3C207.3,11.9,207.1,11.9,206.8,11.9z"/>
	</g>
	<path class="st0" d="M14.5,8.3L14.5,8.3c-0.6,0.8-0.5,1.8,0.2,2.5c1.2,1.2,1.9,2.9,1.8,4.8c-0.3,2.9-2.6,5.1-5.4,5.4
		c-3.5,0.3-6.4-2.5-6.4-5.9c0-1.7,0.7-3.3,1.9-4.4C7.3,10,7.4,9,6.8,8.2l0,0C6.1,7.2,4.8,7.1,4,7.9c-2,1.9-3.3,4.6-3.1,7.7
		c0.2,5,4.2,9,9.2,9.2c5.6,0.3,10.3-4.2,10.3-9.7c0-2.7-1.1-5.2-3-7C16.5,7.2,15.1,7.4,14.5,8.3z"/>
	<path class="st1" d="M11.1,19.6l-0.4-8.2l-0.5,0.3c-1.1,0.5-2.3-0.3-2.3-1.5l0.3-8.3c0.1-1,0.9-1.8,2-1.8l0,0c1.2,0,2.1,1,2,2.1
		l-0.4,5.6l-1.2,0.8L14,7.8L11.1,19.6z"/>
</g>
<g>
	<path class="st0" d="M233.7,17c0,0.9-0.3,1.6-1,2.2c-0.7,0.5-1.6,0.8-2.7,0.8c-1.2,0-2.2-0.2-2.9-0.5v-1.2c0.4,0.2,0.9,0.3,1.4,0.4
		c0.5,0.1,1,0.2,1.5,0.2c0.8,0,1.4-0.2,1.8-0.5c0.4-0.3,0.6-0.7,0.6-1.3c0-0.4-0.1-0.7-0.2-0.9c-0.1-0.2-0.4-0.4-0.7-0.6
		c-0.3-0.2-0.9-0.4-1.6-0.7c-1-0.3-1.7-0.8-2.1-1.2c-0.4-0.5-0.6-1.1-0.6-1.9c0-0.8,0.3-1.5,0.9-1.9c0.6-0.5,1.4-0.7,2.4-0.7
		c1,0,2,0.2,2.9,0.6l-0.4,1.1c-0.9-0.4-1.7-0.5-2.5-0.5c-0.6,0-1.1,0.1-1.5,0.4c-0.4,0.3-0.5,0.7-0.5,1.2c0,0.4,0.1,0.7,0.2,0.9
		c0.1,0.2,0.4,0.4,0.7,0.6c0.3,0.2,0.8,0.4,1.5,0.6c1.1,0.4,1.9,0.8,2.3,1.3C233.5,15.7,233.7,16.3,233.7,17z"/>
	<path class="st0" d="M243.7,9.3v6.8c0,1.2-0.4,2.1-1.1,2.8s-1.7,1-3,1c-1.3,0-2.2-0.3-2.9-1s-1-1.6-1-2.8V9.3h1.2v6.8
		c0,0.9,0.2,1.5,0.7,2c0.5,0.5,1.2,0.7,2.1,0.7c0.9,0,1.6-0.2,2-0.7c0.5-0.5,0.7-1.1,0.7-2V9.3H243.7z"/>
	<path class="st0" d="M253.1,12.3c0,1.1-0.4,1.9-1.1,2.4s-1.8,0.9-3.1,0.9h-1.2v4.1h-1.2V9.3h2.7C251.8,9.3,253.1,10.3,253.1,12.3z
		 M247.7,14.6h1.1c1.1,0,1.9-0.2,2.3-0.5c0.5-0.3,0.7-0.9,0.7-1.7c0-0.7-0.2-1.2-0.7-1.5s-1.2-0.5-2.1-0.5h-1.4V14.6z"/>
	<path class="st0" d="M261.2,19.8h-5.8V9.3h5.8v1.1h-4.6v3.4h4.3v1.1h-4.3v3.9h4.6V19.8z"/>
	<path class="st0" d="M264.7,15.4v4.4h-1.2V9.3h2.9c1.3,0,2.2,0.2,2.8,0.7c0.6,0.5,0.9,1.2,0.9,2.2c0,1.4-0.7,2.3-2.1,2.8l2.8,4.7
		h-1.4l-2.5-4.4H264.7z M264.7,14.4h1.7c0.9,0,1.5-0.2,1.9-0.5c0.4-0.3,0.6-0.9,0.6-1.5c0-0.7-0.2-1.2-0.6-1.5
		c-0.4-0.3-1.1-0.5-2-0.5h-1.6V14.4z"/>
	<path class="st0" d="M279.2,19.8l-1.3-3.3h-4.2l-1.3,3.3h-1.2l4.1-10.5h1l4.1,10.5H279.2z M277.5,15.3l-1.2-3.2
		c-0.2-0.4-0.3-0.9-0.5-1.5c-0.1,0.5-0.3,1-0.5,1.5l-1.2,3.2H277.5z"/>
	<path class="st0" d="M290.2,14.4c0,1.7-0.5,3.1-1.4,4c-0.9,0.9-2.3,1.4-4.1,1.4h-2.9V9.3h3.2c1.6,0,2.9,0.5,3.8,1.4
		C289.8,11.5,290.2,12.8,290.2,14.4z M288.9,14.5c0-1.4-0.3-2.4-1-3.1s-1.7-1-3.1-1h-1.8v8.4h1.5c1.5,0,2.5-0.4,3.3-1.1
		C288.6,16.9,288.9,15.9,288.9,14.5z"/>
	<path class="st0" d="M297.2,19.8l-3.6-9.3h-0.1c0.1,0.7,0.1,1.6,0.1,2.6v6.7h-1.1V9.3h1.8l3.3,8.6h0.1l3.3-8.6h1.8v10.5h-1.2V13
		c0-0.8,0-1.6,0.1-2.5h-0.1l-3.6,9.3H297.2z"/>
	<path class="st0" d="M305.8,19.8V9.3h1.2v10.5H305.8z"/>
	<path class="st0" d="M318.1,19.8h-1.4L311,11h-0.1c0.1,1,0.1,2,0.1,2.8v6h-1.1V9.3h1.4L317,18h0.1c0-0.1,0-0.5-0.1-1.2
		c0-0.7,0-1.2,0-1.5v-6h1.1V19.8z"/>
</g>
</svg>
