<?xml version="1.0" encoding="utf-8"?>
<!-- Generator: Adobe Illustrator 17.1.0, SVG Export Plug-In . SVG Version: 6.00 Build 0)  -->
<!DOCTYPE svg PUBLIC "-//W3C//DTD SVG 1.1//EN" "http://www.w3.org/Graphics/SVG/1.1/DTD/svg11.dtd">
<svg version="1.1" id="Layer_1" xmlns="http://www.w3.org/2000/svg" xmlns:xlink="http://www.w3.org/1999/xlink" x="0px" y="0px"
	 viewBox="0 0 21 17" enable-background="new 0 0 21 17" xml:space="preserve">
<g>
	<path fill="#434343" d="M13,0L5,3v7.3l0.9-0.9V4l6.6,2.5v8.4L10.1,14l-0.7,0.7L13,16l8-3V3L13,0z M13,1l6.2,2.3l-2.4,0.9l-6.2-2.3
		L13,1z M6.8,3.3l2.4-0.9l6.2,2.3L13,5.6L6.8,3.3z M20.1,12.4l-6.6,2.5V6.5L20.1,4V12.4z"/>
	<g>
		<path fill="#41B655" d="M10.8,11l-5.1,4.9l-1,0.9C4.6,16.9,4.4,17,4.2,17c-0.2,0-0.4-0.1-0.5-0.2l-1-0.9l-2.6-2.4
			C0.1,13.3,0,13.2,0,13s0.1-0.3,0.2-0.5l1-0.9c0.1-0.1,0.3-0.2,0.5-0.2c0.2,0,0.4,0.1,0.5,0.2l2.1,2l4.7-4.4C9,9.1,9.2,9,9.4,9
			c0.2,0,0.4,0.1,0.5,0.2l1,0.9c0.1,0.1,0.2,0.3,0.2,0.5C11,10.7,10.9,10.9,10.8,11z"/>
	</g>
</g>
</svg>
