<?xml version="1.0" encoding="utf-8"?>
<!-- Generator: Adobe Illustrator 24.1.2, SVG Export Plug-In . SVG Version: 6.00 Build 0)  -->
<svg version="1.1" id="Layer_1" xmlns="http://www.w3.org/2000/svg" xmlns:xlink="http://www.w3.org/1999/xlink" x="0px" y="0px"
	 viewBox="0 0 35.7 35.6" style="enable-background:new 0 0 35.7 35.6;" xml:space="preserve">
<style type="text/css">
	.st0{fill:#FFFFFF;}
</style>
<g>
	<path class="st0" d="M32.5,18.7C32.5,18.7,32.5,18.7,32.5,18.7l0-13.4c0-2-1.6-3.6-3.6-3.6H5.2c-2,0-3.6,1.6-3.6,3.6v22.3
		c0,2,1.6,3.6,3.6,3.6h14.9c1.6,1.8,3.9,2.9,6.5,2.9c4.9,0,8.8-4,8.8-8.8C35.4,22.7,34.3,20.3,32.5,18.7z M13.6,4.2h6.9V11
		c0,0,0,0,0,0h-6.8c0,0,0,0,0,0V4.2z M5.2,28.7c-0.6,0-1.1-0.5-1.1-1.1V5.3c0-0.6,0.5-1.1,1.1-1.1h5.9V11c0,1.4,1.1,2.5,2.5,2.5h6.8
		c1.4,0,2.5-1.1,2.5-2.5V4.2h5.9c0.6,0,1.1,0.5,1.1,1.1v11.9c-1-0.4-2.2-0.7-3.4-0.7c-4.9,0-8.8,4-8.8,8.8c0,1.2,0.2,2.4,0.7,3.4
		H5.2z M26.6,31.6c-3.5,0-6.3-2.8-6.3-6.3s2.8-6.3,6.3-6.3s6.3,2.8,6.3,6.3S30.1,31.6,26.6,31.6z"/>
	<path class="st0" d="M29.8,24.1h-6.4c-0.7,0-1.3,0.6-1.3,1.3s0.6,1.3,1.3,1.3h6.4c0.7,0,1.3-0.6,1.3-1.3S30.5,24.1,29.8,24.1z"/>
</g>
</svg>
