<?xml version="1.0" encoding="utf-8"?>
<!-- Generator: Adobe Illustrator 24.1.2, SVG Export Plug-In . SVG Version: 6.00 Build 0)  -->
<svg version="1.1" id="Layer_1" xmlns="http://www.w3.org/2000/svg" xmlns:xlink="http://www.w3.org/1999/xlink" x="0px" y="0px"
	 viewBox="0 0 21.4 19.4" style="enable-background:new 0 0 21.4 19.4;" xml:space="preserve">
<style type="text/css">
	.st0{fill:#4E4E4E;}
	.st1{fill:#352BFC;}
</style>
<g>
	<path class="st0" d="M12.6,1.6l-7.6,3v3.1h1V5.9L12,8.2V16l-0.8-0.4l-0.4,0.9l1.2,0.5v0H12l0.5,0.2l7.4-3.3V4.6L12.6,1.6z M18.4,5
		l-2,0.8l-5.8-2.4l2-0.8L18.4,5z M12.6,7.4L6.7,5l2.6-1l5.8,2.4L12.6,7.4z M13,16.1V8.3l6-2.5v7.5L13,16.1z"/>
	<rect x="3.2" y="12.9" class="st1" width="4.9" height="1.8"/>
	<path class="st1" d="M5.6,18.6c-2.8,0-5-2.2-5-5s2.2-5,5-5s5,2.2,5,5S8.4,18.6,5.6,18.6z M5.6,9.6c-2.2,0-4,1.8-4,4s1.8,4,4,4
		s4-1.8,4-4S7.8,9.6,5.6,9.6z"/>
</g>
</svg>
