<?xml version="1.0" encoding="utf-8"?>
<!-- Generator: Adobe Illustrator 17.1.0, SVG Export Plug-In . SVG Version: 6.00 Build 0)  -->
<!DOCTYPE svg PUBLIC "-//W3C//DTD SVG 1.1//EN" "http://www.w3.org/Graphics/SVG/1.1/DTD/svg11.dtd">
<svg version="1.1" id="Layer_1" xmlns="http://www.w3.org/2000/svg" xmlns:xlink="http://www.w3.org/1999/xlink" x="0px" y="0px"
	 viewBox="0 0 356 94" enable-background="new 0 0 356 94" xml:space="preserve">
<g display="none">
	<path display="inline" fill="#FFFFFF" d="M117.5-723.5c0.8,0.8,1.1,1.7,1.1,2.9c0,1.2-0.4,2.2-1.1,2.9c-0.8,0.8-1.7,1.1-2.9,1.1
		H96.3v53.8c0,1.2-0.4,2.3-1.3,3.1c-0.8,0.9-1.9,1.3-3.1,1.3c-1.2,0-2.3-0.4-3.1-1.3c-0.9-0.8-1.3-1.9-1.3-3.1v-53.8H69.1
		c-1.2,0-2.2-0.4-2.9-1.1c-0.8-0.8-1.1-1.7-1.1-2.9c0-1.2,0.4-2.2,1.1-2.9c0.8-0.8,1.7-1.1,2.9-1.1h45.5
		C115.8-724.7,116.8-724.3,117.5-723.5z"/>
	<path display="inline" fill="#FFFFFF" d="M172.4-662.3c0,1.1-0.4,2.1-1.1,2.8c-0.8,0.8-1.8,1.1-3.1,1.1c-1.6,0-2.9-0.7-3.8-2.1
		l-14.6-23.5h-1.5h-10.9v21.2c0,1.2-0.4,2.3-1.2,3.1c-0.8,0.9-1.9,1.3-3.2,1.3c-1.2,0-2.3-0.4-3.1-1.3c-0.9-0.8-1.3-1.9-1.3-3.1
		v-57.5c0-1.3,0.4-2.4,1.3-3.2s1.9-1.2,3.1-1.2h15.3c4.2,0,7.9,0.9,11.3,2.6c3.3,1.8,5.9,4.2,7.7,7.4c1.8,3.2,2.8,6.8,2.8,10.9
		c0,4-1,7.6-3.1,10.7c-2,3.1-4.8,5.5-8.3,7.1l13,20.9C172.1-664.2,172.4-663.2,172.4-662.3z M148.2-692c3.9,0,7-1.1,9.5-3.3
		c2.5-2.2,3.7-5,3.7-8.5c0-3.7-1.2-6.8-3.7-9.2c-2.5-2.4-5.7-3.6-9.5-3.6h-10.9v24.5H148.2z"/>
	<path display="inline" fill="#FFFFFF" d="M195.6-659.9c-4.2-2-7.5-4.8-9.9-8.4c-2.4-3.6-3.5-7.7-3.5-12.2v-39.7
		c0-1.3,0.4-2.4,1.3-3.2s1.9-1.2,3.1-1.2c1.3,0,2.4,0.4,3.2,1.2c0.8,0.8,1.2,1.9,1.2,3.2v39.7c0,3,0.8,5.7,2.4,8.1
		c1.6,2.4,3.9,4.2,6.7,5.6c2.9,1.3,6.1,2,9.8,2c3.5,0,6.7-0.7,9.4-2c2.8-1.3,4.9-3.2,6.5-5.6c1.6-2.4,2.3-5.1,2.3-8.1v-39.7
		c0-1.3,0.4-2.4,1.3-3.2c0.8-0.8,1.9-1.2,3.1-1.2c1.2,0,2.3,0.4,3.1,1.2c0.8,0.8,1.2,1.9,1.2,3.2v39.7c0,4.5-1.1,8.6-3.4,12.2
		c-2.3,3.6-5.5,6.4-9.6,8.4c-4.1,2-8.8,3-14,3C204.6-656.9,199.8-657.9,195.6-659.9z"/>
	<path display="inline" fill="#FFFFFF" d="M255.3-659.6c-0.9-0.8-1.3-1.9-1.3-3.1v-57.5c0-1.3,0.4-2.4,1.3-3.2s1.9-1.2,3.1-1.2h38.4
		c1.3,0,2.4,0.4,3.1,1.1c0.8,0.8,1.2,1.8,1.2,3c0,1.2-0.4,2.2-1.2,2.9c-0.8,0.7-1.8,1.1-3.1,1.1h-34v20.7h24.4
		c1.2,0,2.3,0.4,3.1,1.1c0.8,0.8,1.2,1.7,1.2,2.9s-0.4,2.2-1.2,2.9c-0.8,0.8-1.9,1.1-3.1,1.1h-24.4v21.3h34c1.3,0,2.4,0.4,3.1,1.1
		c0.8,0.7,1.2,1.7,1.2,2.9c0,1.2-0.4,2.3-1.2,3c-0.8,0.8-1.8,1.1-3.1,1.1h-38.4C257.2-658.3,256.1-658.7,255.3-659.6z"/>
	<path display="inline" fill="#FFFFFF" d="M314.7-659.6c-0.8-0.8-1.2-1.9-1.2-3.1v-57.5c0-1.2,0.4-2.3,1.3-3.1
		c0.9-0.8,1.9-1.3,3.1-1.3c1.2,0,2.3,0.4,3.1,1.3c0.9,0.9,1.3,1.9,1.3,3.1v53.1H353c1.2,0,2.3,0.4,3.1,1.3c0.9,0.9,1.3,1.9,1.3,3.1
		c0,1.2-0.4,2.3-1.3,3.1c-0.9,0.9-1.9,1.3-3.1,1.3h-35.2C316.6-658.3,315.6-658.7,314.7-659.6z"/>
	<path display="inline" fill="#FFFFFF" d="M488.8-662.6c0,1.2-0.4,2.2-1.3,3.1c-0.8,0.9-1.9,1.3-3.1,1.3c-0.8,0-1.7-0.2-2.4-0.7
		c-0.8-0.5-1.3-1.1-1.7-2l-4.8-11.9H445l-4.8,11.9c-0.4,0.9-1,1.5-1.7,2c-0.7,0.5-1.5,0.7-2.4,0.7c-1.2,0-2.3-0.4-3.1-1.3
		c-0.8-0.9-1.2-1.9-1.2-3.1c0-0.6,0.1-1.2,0.4-2l23.9-57c0.9-2,2.2-3,4.2-3c2,0,3.4,1,4.2,3l24,57.2
		C488.6-663.8,488.8-663.1,488.8-662.6z M472.5-680.2l-12.2-30.3L448-680.2H472.5z"/>
	<path display="inline" fill="#FFFFFF" d="M499.7-659.6c-0.9-0.8-1.3-1.9-1.3-3.1v-57.5c0-1.3,0.4-2.4,1.3-3.2
		c0.8-0.8,1.9-1.2,3.1-1.2h15.4c6.4,0,12.1,1.4,17.1,4.3c5,2.8,8.9,6.8,11.6,11.8c2.8,5,4.2,10.7,4.2,17.1c0,6.4-1.4,12.1-4.2,17.2
		c-2.8,5-6.7,9-11.6,11.8c-5,2.8-10.7,4.3-17.1,4.3h-15.4C501.6-658.3,500.6-658.7,499.7-659.6z M518.3-666.1
		c4.7,0,8.9-1.1,12.6-3.2c3.7-2.2,6.6-5.2,8.7-9.1c2.1-3.9,3.1-8.3,3.1-13.1c0-4.9-1-9.2-3.1-13.1c-2.1-3.9-5-6.9-8.7-9
		c-3.7-2.2-7.9-3.2-12.6-3.2h-11v50.7H518.3z"/>
	<path display="inline" fill="#FFFFFF" d="M566.3-659.6c-0.9-0.8-1.3-1.9-1.3-3.1v-57.5c0-1.3,0.4-2.4,1.3-3.2
		c0.8-0.8,1.9-1.2,3.1-1.2h38.4c1.3,0,2.4,0.4,3.1,1.1c0.8,0.8,1.2,1.8,1.2,3c0,1.2-0.4,2.2-1.2,2.9c-0.8,0.7-1.8,1.1-3.1,1.1h-34
		v20.7h24.4c1.2,0,2.3,0.4,3.1,1.1c0.8,0.8,1.2,1.7,1.2,2.9s-0.4,2.2-1.2,2.9c-0.8,0.8-1.9,1.1-3.1,1.1h-24.4v21.3h34
		c1.3,0,2.4,0.4,3.1,1.1c0.8,0.7,1.2,1.7,1.2,2.9c0,1.2-0.4,2.3-1.2,3c-0.8,0.8-1.8,1.1-3.1,1.1h-38.4
		C568.2-658.3,567.1-658.7,566.3-659.6z"/>
	<path display="inline" fill="#FFFFFF" d="M625.8-659.6c-0.9-0.8-1.3-1.9-1.3-3.1v-57.5c0-1.3,0.4-2.4,1.3-3.2
		c0.8-0.8,1.9-1.2,3.1-1.2h15.4c6.4,0,12.1,1.4,17.1,4.3c5,2.8,8.9,6.8,11.6,11.8c2.8,5,4.2,10.7,4.2,17.1c0,6.4-1.4,12.1-4.2,17.2
		c-2.8,5-6.7,9-11.6,11.8c-5,2.8-10.7,4.3-17.1,4.3h-15.4C627.7-658.3,626.6-658.7,625.8-659.6z M644.3-666.1
		c4.7,0,8.9-1.1,12.6-3.2c3.7-2.2,6.6-5.2,8.7-9.1c2.1-3.9,3.1-8.3,3.1-13.1c0-4.9-1-9.2-3.1-13.1c-2.1-3.9-5-6.9-8.7-9
		c-3.7-2.2-7.9-3.2-12.6-3.2h-11v50.7H644.3z"/>
	<path display="inline" fill="#FFFFFF" d="M426.9-692.6c0-18.3-14.3-33.2-32.3-34.3v8c13.5,1,24.2,12.3,24.2,26
		c0,1.7-0.2,3.4-0.5,5.1l7.8,2.8C426.6-687.5,426.9-690.1,426.9-692.6z"/>
	<path display="inline" fill="#FFFFFF" d="M358.2-692.9c0-18.3,14.3-33.2,32.3-34.3v8c-13.5,1-24.2,12.3-24.2,26
		c0,1.7,0.2,3.4,0.5,5.1l-7.8,2.8C358.5-687.8,358.2-690.3,358.2-692.9z"/>
	<path display="inline" fill="#FFFFFF" d="M392.7-667.1c-11,0-20.3-6.8-24.2-16.3l-8.4,2.5c4.8,13.3,17.5,22.8,32.4,22.8
		c14.7,0,27.2-9.2,32.2-22.2l-8-2.5C412.6-673.6,403.4-667.1,392.7-667.1z"/>
	<path display="inline" fill="#FFFFFF" d="M426.9-692.7L426.9-692.7C426.9-692.6,426.9-692.6,426.9-692.7
		C426.9-692.7,426.9-692.7,426.9-692.7z"/>
</g>
<g>
	<path fill="#FFFFFF" d="M40,12.9c-0.6-0.6-1.3-0.8-2.1-0.8H14.1c-0.8,0-1.5,0.3-2.1,0.8c-0.6,0.6-0.8,1.3-0.8,2.1
		c0,0.8,0.3,1.5,0.8,2.1c0.6,0.6,1.3,0.8,2.1,0.8h8.8v27.4c0,0.9,0.3,1.6,0.9,2.2c0.6,0.6,1.3,0.9,2.2,0.9c0.9,0,1.6-0.3,2.2-0.9
		c0.6-0.6,0.9-1.3,0.9-2.2V17.9h8.8c0.8,0,1.5-0.3,2.1-0.8c0.6-0.6,0.8-1.3,0.8-2.1C40.8,14.2,40.5,13.4,40,12.9z"/>
	<path fill="#FFFFFF" d="M68.3,43.6L62,33.4c1.6-0.9,2.9-2.1,3.9-3.6c1.1-1.8,1.7-3.8,1.7-6c0-2.3-0.5-4.3-1.6-6.1
		c-1-1.8-2.5-3.2-4.4-4.2c-1.8-1-3.9-1.5-6.3-1.5h-8c-0.9,0-1.6,0.3-2.2,0.9c-0.6,0.6-0.9,1.3-0.9,2.2v30.1c0,0.9,0.3,1.6,0.9,2.2
		c0.6,0.6,1.3,0.9,2.2,0.9c0.9,0,1.6-0.3,2.2-0.9c0.6-0.6,0.9-1.3,0.9-2.2V35h5.3l7.4,11.9c0.6,1,1.5,1.5,2.7,1.5
		c0.9,0,1.6-0.3,2.2-0.8c0.6-0.6,0.8-1.2,0.8-2C68.9,44.8,68.7,44.2,68.3,43.6z M61.6,23.8c0,1.6-0.6,2.8-1.7,3.8
		c-1.2,1-2.6,1.5-4.5,1.5h-4.9V17.9h4.9c1.8,0,3.3,0.5,4.4,1.7C61,20.7,61.6,22,61.6,23.8z"/>
	<path fill="#FFFFFF" d="M101.8,12.9c-0.6-0.6-1.3-0.9-2.2-0.9c-0.9,0-1.6,0.3-2.2,0.9c-0.6,0.6-0.9,1.3-0.9,2.2v20.8
		c0,1.4-0.4,2.7-1.1,3.8c-0.7,1.1-1.8,2-3.1,2.6c-1.3,0.6-2.9,1-4.6,1c-1.8,0-3.4-0.3-4.8-1c-1.4-0.6-2.4-1.5-3.2-2.6
		c-0.8-1.1-1.1-2.4-1.1-3.8V15.2c0-0.9-0.3-1.6-0.9-2.2c-0.6-0.6-1.3-0.9-2.2-0.9c-0.9,0-1.6,0.3-2.2,0.9c-0.6,0.6-0.9,1.3-0.9,2.2
		v20.8c0,2.5,0.7,4.8,2,6.8c1.3,2,3.1,3.5,5.5,4.7c2.3,1.1,5,1.7,7.9,1.7c2.8,0,5.4-0.6,7.7-1.7c2.3-1.1,4.1-2.7,5.3-4.7
		c1.3-2,1.9-4.3,1.9-6.8V15.2C102.7,14.3,102.4,13.5,101.8,12.9z"/>
	<path fill="#FFFFFF" d="M133.2,42.5h-17V33h12c0.9,0,1.6-0.3,2.2-0.8c0.6-0.5,0.9-1.3,0.9-2.1c0-0.8-0.3-1.6-0.9-2.1
		c-0.6-0.5-1.3-0.8-2.2-0.8h-12v-9.2h17c0.9,0,1.6-0.3,2.2-0.8c0.6-0.5,0.9-1.3,0.9-2.1c0-0.9-0.3-1.6-0.9-2.1
		c-0.6-0.5-1.3-0.8-2.2-0.8h-20.1c-0.9,0-1.6,0.3-2.2,0.9c-0.6,0.6-0.9,1.3-0.9,2.2v30.1c0,0.9,0.3,1.6,0.9,2.2
		c0.6,0.6,1.3,0.9,2.2,0.9h20.1c0.9,0,1.6-0.3,2.2-0.8c0.6-0.6,0.9-1.3,0.9-2.1c0-0.8-0.3-1.5-0.9-2.1
		C134.8,42.8,134.1,42.5,133.2,42.5z"/>
	<path fill="#FFFFFF" d="M164.8,43.1c-0.6-0.6-1.3-0.9-2.2-0.9h-15.3v-27c0-0.9-0.3-1.6-0.9-2.2c-0.6-0.6-1.3-0.9-2.2-0.9
		c-0.8,0-1.6,0.3-2.2,0.9c-0.6,0.6-0.9,1.3-0.9,2.2v30.1c0,0.9,0.3,1.6,0.9,2.2c0.6,0.6,1.3,0.9,2.2,0.9h18.4c0.9,0,1.6-0.3,2.2-0.9
		c0.6-0.6,0.9-1.3,0.9-2.2C165.7,44.4,165.4,43.7,164.8,43.1z"/>
	<path fill="#FFFFFF" d="M234.1,44l-12.5-29.9c-0.5-1.4-1.5-2.1-2.9-2.1c-0.9,0-2.2,0.4-2.9,2L203.2,44c-0.2,0.5-0.3,0.9-0.3,1.3
		c0,0.8,0.3,1.6,0.9,2.2c0.6,0.6,1.3,0.9,2.2,0.9c0.6,0,1.2-0.2,1.7-0.5c0.5-0.3,0.9-0.8,1.2-1.4l2.3-5.7h14.9l2.3,5.7
		c0.2,0.6,0.6,1.1,1.2,1.4c0.5,0.3,1.1,0.5,1.7,0.5c0.9,0,1.6-0.3,2.2-0.9c0.6-0.6,0.9-1.3,0.9-2.2C234.3,44.9,234.3,44.5,234.1,44z
		 M223.9,35.3h-10.5l5.3-13L223.9,35.3z"/>
	<path fill="#FFFFFF" d="M264.7,20.9c-1.5-2.7-3.7-4.9-6.4-6.5c-2.7-1.5-5.9-2.3-9.3-2.3h-8c-0.9,0-1.6,0.3-2.2,0.9
		c-0.6,0.6-0.9,1.3-0.9,2.2v30.1c0,0.9,0.3,1.6,0.9,2.2c0.6,0.6,1.3,0.9,2.2,0.9h8c3.5,0,6.6-0.8,9.3-2.3c2.7-1.5,4.9-3.7,6.4-6.5
		c1.5-2.7,2.3-5.9,2.3-9.4C267,26.7,266.2,23.6,264.7,20.9z M249,42.7H244v-25h4.9c2.3,0,4.4,0.5,6.2,1.6c1.8,1,3.2,2.5,4.2,4.4
		c1,1.9,1.5,4.1,1.5,6.5c0,2.4-0.5,4.6-1.5,6.5c-1,1.9-2.4,3.4-4.2,4.4C253.4,42.2,251.3,42.7,249,42.7z"/>
	<path fill="#FFFFFF" d="M295.8,42.5h-17V33h12c0.9,0,1.6-0.3,2.2-0.8c0.6-0.5,0.9-1.3,0.9-2.1c0-0.8-0.3-1.6-0.9-2.1
		c-0.6-0.5-1.3-0.8-2.2-0.8h-12v-9.2h17c0.9,0,1.6-0.3,2.2-0.8c0.6-0.5,0.9-1.3,0.9-2.1c0-0.9-0.3-1.6-0.9-2.1
		c-0.6-0.5-1.3-0.8-2.2-0.8h-20.1c-0.9,0-1.6,0.3-2.2,0.9c-0.6,0.6-0.9,1.3-0.9,2.2v30.1c0,0.9,0.3,1.6,0.9,2.2
		c0.6,0.6,1.3,0.9,2.2,0.9h20.1c0.9,0,1.6-0.3,2.2-0.8c0.6-0.6,0.9-1.3,0.9-2.1c0-0.8-0.3-1.5-0.9-2.1
		C297.5,42.8,296.7,42.5,295.8,42.5z"/>
	<path fill="#FFFFFF" d="M330.6,20.9c-1.5-2.7-3.7-4.9-6.4-6.5c-2.7-1.5-5.9-2.3-9.3-2.3h-8c-0.9,0-1.6,0.3-2.2,0.9
		c-0.6,0.6-0.9,1.3-0.9,2.2v30.1c0,0.9,0.3,1.6,0.9,2.2c0.6,0.6,1.3,0.9,2.2,0.9h8c3.5,0,6.6-0.8,9.3-2.3c2.7-1.5,4.9-3.7,6.4-6.5
		c1.5-2.7,2.3-5.9,2.3-9.4C332.9,26.7,332.1,23.6,330.6,20.9z M314.9,42.7H310v-25h4.9c2.3,0,4.4,0.5,6.2,1.6c1.8,1,3.2,2.5,4.2,4.4
		c1,1.9,1.5,4.1,1.5,6.5c0,2.4-0.5,4.6-1.5,6.5c-1,1.9-2.4,3.4-4.2,4.4C319.3,42.2,317.2,42.7,314.9,42.7z"/>
	<g>
		<path fill="#FFFFFF" d="M184.4,10.9l-0.8-0.1v5.7l0.7,0.1c6.7,0.5,11.9,6.1,11.9,12.8c0,0.8-0.1,1.7-0.2,2.5l-0.1,0.7l5.5,2
			l0.2-0.9c0.3-1.4,0.5-2.8,0.5-4.1C202,19.7,194.2,11.5,184.4,10.9z"/>
		<path fill="#FFFFFF" d="M170.5,31.8c-0.2-0.8-0.2-1.7-0.2-2.5c0-6.7,5.2-12.3,11.9-12.8l0.7-0.1v-5.7l-0.8,0.1
			c-9.9,0.6-17.6,8.8-17.6,18.7c0,1.3,0.2,2.7,0.5,4.1l0.2,0.9l5.5-2L170.5,31.8z"/>
		<path fill="#FFFFFF" d="M195.1,34.4c-2,4.7-6.7,7.8-11.8,7.8c-5.3,0-10-3.2-11.9-8l-0.3-0.7l-5.9,1.7l0.3,0.8
			c2.7,7.4,9.8,12.4,17.7,12.4c7.7,0,14.8-4.9,17.6-12.1l0.3-0.8l-5.6-1.8L195.1,34.4z"/>
	</g>
	<g>
		<path fill="#FFFFFF" d="M201.2,29.6L201.2,29.6C201.2,29.6,201.2,29.6,201.2,29.6C201.2,29.6,201.2,29.6,201.2,29.6z"/>
		<polygon fill="#FFFFFF" points="202,29.7 201.3,29.6 201,29.6 200.4,29.7 200.4,29.6 200.4,29.5 200.9,29.6 201.2,29.6 202,29.5 
			202,29.6 		"/>
	</g>
	<g>
		<path fill="#FFFFFF" d="M347.1,13.1c1.1,0.6,1.9,1.5,2.5,2.5c0.6,1.1,0.9,2.2,0.9,3.5c0,1.3-0.3,2.5-0.9,3.5
			c-0.6,1.1-1.5,1.9-2.5,2.5c-1.1,0.6-2.2,0.9-3.5,0.9c-1.3,0-2.4-0.3-3.5-0.9c-1.1-0.6-1.9-1.4-2.5-2.5c-0.6-1.1-0.9-2.2-0.9-3.5
			c0-1.3,0.3-2.4,0.9-3.5c0.6-1.1,1.5-1.9,2.5-2.5c1.1-0.6,2.2-0.9,3.5-0.9C344.9,12.1,346,12.4,347.1,13.1z M346.4,23.8
			c0.8-0.5,1.5-1.2,2-2c0.5-0.8,0.7-1.8,0.7-2.8c0-1-0.2-1.9-0.7-2.8c-0.5-0.8-1.2-1.5-2-2c-0.8-0.5-1.8-0.7-2.8-0.7
			c-1,0-1.9,0.2-2.8,0.7c-0.8,0.5-1.5,1.2-2,2c-0.5,0.8-0.7,1.8-0.7,2.8c0,1,0.2,1.9,0.7,2.8c0.5,0.8,1.2,1.5,2,2
			c0.8,0.5,1.8,0.7,2.8,0.7C344.6,24.6,345.5,24.3,346.4,23.8z M346.5,22c0.1,0.2,0.1,0.3,0.1,0.5c0,0.2-0.1,0.3-0.2,0.4
			c-0.1,0.1-0.3,0.2-0.5,0.2c-0.1,0-0.3,0-0.4-0.1c-0.1-0.1-0.2-0.1-0.3-0.2l-1.6-2.8h-0.2h-1.1v2.4c0,0.2-0.1,0.4-0.2,0.5
			c-0.1,0.1-0.3,0.2-0.5,0.2c-0.2,0-0.4-0.1-0.5-0.2c-0.1-0.1-0.2-0.3-0.2-0.5v-7c0-0.2,0.1-0.4,0.2-0.5c0.1-0.1,0.3-0.2,0.6-0.2
			h1.8c0.9,0,1.6,0.2,2.1,0.7c0.6,0.5,0.8,1.1,0.8,1.9c0,0.5-0.1,0.9-0.4,1.3c-0.2,0.4-0.6,0.7-1,1L346.5,22z M342.4,18.7h1.2
			c0.4,0,0.8-0.1,1-0.4c0.3-0.3,0.4-0.6,0.4-1c0-0.4-0.1-0.8-0.4-1c-0.3-0.2-0.6-0.4-1-0.4h-1.2V18.7z"/>
	</g>
</g>
<g>
	<g>
		<path fill="#FFFFFF" d="M138.2,78.1c-0.7,0-1.3,0.2-1.8,0.6c0-0.2,0-0.5,0-0.7v-2.5H135v9.7h1.1l0.2-0.6c0.2,0.2,0.4,0.4,0.7,0.5
			c0.4,0.2,0.8,0.3,1.3,0.3c0.9,0,1.7-0.3,2.2-1c0.5-0.6,0.8-1.5,0.8-2.6c0-1.1-0.3-2-0.8-2.6C139.9,78.4,139.2,78.1,138.2,78.1z
			 M139.7,81.6c0,0.8-0.1,1.4-0.4,1.8c-0.2,0.4-0.6,0.6-1.1,0.6c-0.6,0-1-0.2-1.3-0.5c-0.3-0.3-0.4-1-0.4-1.8s0.1-1.5,0.4-1.8
			c0.2-0.3,0.7-0.5,1.3-0.5c0.5,0,0.9,0.2,1.2,0.5C139.5,80.3,139.7,80.9,139.7,81.6z"/>
		<path fill="#FFFFFF" d="M146.5,78.2l-0.1,0.2c-0.9,2.4-1.4,4-1.6,4.5c0,0.1-0.1,0.2-0.1,0.3c-0.1-0.3-0.2-0.7-0.4-1.1l-1.5-3.9
			h-1.6l2.7,6.8l-0.3,0.8c-0.2,0.7-0.6,1-1.2,1c-0.3,0-0.5,0-0.7-0.1l-0.3-0.1v1.3l0.2,0c0.3,0.1,0.6,0.1,0.9,0.1
			c0.6,0,1.1-0.2,1.5-0.5c0.4-0.3,0.7-0.9,1-1.7l2.9-7.7H146.5z"/>
	</g>
	<g>
		<path fill="#FFFFFF" d="M158.1,86.3c-0.3-0.3-0.4-0.6-0.4-1V67.8c0-0.4,0.1-0.7,0.4-1c0.3-0.3,0.6-0.4,1-0.4c0.4,0,0.7,0.1,1,0.4
			c0.3,0.3,0.4,0.6,0.4,1v7.4h12v-7.4c0-0.4,0.1-0.7,0.4-1c0.3-0.3,0.6-0.4,1-0.4c0.4,0,0.7,0.1,0.9,0.4c0.3,0.3,0.4,0.6,0.4,1v17.5
			c0,0.4-0.1,0.7-0.4,1c-0.3,0.3-0.6,0.4-0.9,0.4c-0.4,0-0.7-0.1-1-0.4c-0.3-0.3-0.4-0.6-0.4-1v-7.7h-12v7.7c0,0.4-0.1,0.7-0.4,1
			c-0.3,0.3-0.6,0.4-1,0.4C158.7,86.7,158.4,86.5,158.1,86.3z"/>
		<path fill="#FFFFFF" d="M182.7,85.9c-1.1-0.6-1.9-1.5-2.5-2.6c-0.6-1.1-0.9-2.3-0.9-3.7c0-1.4,0.3-2.6,0.9-3.7
			c0.6-1.1,1.5-1.9,2.5-2.6c1.1-0.6,2.3-0.9,3.7-0.9c1.4,0,2.6,0.3,3.7,0.9c1.1,0.6,1.9,1.5,2.5,2.6c0.6,1.1,0.9,2.3,0.9,3.7
			c0,1.4-0.3,2.6-0.9,3.7c-0.6,1.1-1.4,1.9-2.5,2.6c-1.1,0.6-2.3,0.9-3.7,0.9C185.1,86.8,183.8,86.5,182.7,85.9z M188.8,83.8
			c0.7-0.4,1.2-1,1.6-1.7c0.4-0.7,0.6-1.6,0.6-2.5c0-0.9-0.2-1.8-0.6-2.5c-0.4-0.7-0.9-1.3-1.6-1.7s-1.5-0.6-2.4-0.6
			c-0.9,0-1.7,0.2-2.4,0.6c-0.7,0.4-1.2,1-1.6,1.7c-0.4,0.7-0.6,1.6-0.6,2.5c0,0.9,0.2,1.8,0.6,2.5c0.4,0.7,0.9,1.3,1.6,1.7
			c0.7,0.4,1.5,0.6,2.4,0.6C187.3,84.4,188.1,84.2,188.8,83.8z"/>
		<path fill="#FFFFFF" d="M198.9,86.1c-0.6-0.4-1.1-1-1.4-1.7c-0.3-0.7-0.5-1.6-0.5-2.5V67.7c0-0.4,0.1-0.7,0.4-0.9
			c0.2-0.2,0.6-0.4,0.9-0.4c0.4,0,0.7,0.1,0.9,0.4c0.2,0.2,0.4,0.6,0.4,0.9v14.1c0,0.6,0.1,1.2,0.4,1.6c0.2,0.4,0.6,0.6,0.9,0.6h0.6
			c0.3,0,0.6,0.1,0.8,0.4c0.2,0.2,0.3,0.6,0.3,0.9c0,0.4-0.2,0.7-0.5,0.9c-0.3,0.2-0.8,0.4-1.3,0.4h-0.1
			C200.1,86.7,199.5,86.5,198.9,86.1z"/>
		<path fill="#FFFFFF" d="M216.3,73.3c1,0.6,1.8,1.5,2.4,2.6c0.6,1.1,0.9,2.3,0.9,3.7c0,1.3-0.3,2.6-0.9,3.7c-0.6,1.1-1.5,2-2.6,2.6
			c-1.1,0.6-2.3,0.9-3.6,0.9c-1.3,0-2.5-0.3-3.6-0.9c-1.1-0.6-1.9-1.5-2.6-2.6c-0.6-1.1-0.9-2.3-0.9-3.7V67.8c0-0.4,0.1-0.7,0.4-1
			c0.3-0.2,0.6-0.4,0.9-0.4c0.4,0,0.7,0.1,1,0.4c0.2,0.2,0.4,0.6,0.4,1v7c0.6-0.7,1.3-1.3,2.2-1.7c0.9-0.4,1.8-0.6,2.8-0.6
			C214.2,72.4,215.3,72.7,216.3,73.3z M214.8,83.8c0.7-0.4,1.3-1,1.7-1.7c0.4-0.7,0.6-1.6,0.6-2.5c0-0.9-0.2-1.7-0.6-2.5
			c-0.4-0.7-1-1.3-1.7-1.7c-0.7-0.4-1.5-0.6-2.3-0.6c-0.9,0-1.6,0.2-2.3,0.6c-0.7,0.4-1.2,1-1.6,1.7c-0.4,0.7-0.6,1.6-0.6,2.5
			c0,0.9,0.2,1.7,0.6,2.5c0.4,0.7,0.9,1.3,1.6,1.7c0.7,0.4,1.5,0.6,2.3,0.6C213.3,84.4,214.1,84.2,214.8,83.8z"/>
		<path fill="#FFFFFF" d="M223.9,69.7c-0.3-0.3-0.5-0.7-0.5-1.2c0-0.5,0.2-0.9,0.5-1.2c0.3-0.3,0.7-0.5,1.2-0.5
			c0.5,0,0.9,0.2,1.2,0.5c0.3,0.3,0.5,0.7,0.5,1.2c0,0.5-0.2,0.9-0.5,1.2c-0.3,0.3-0.7,0.5-1.2,0.5C224.6,70.2,224.2,70,223.9,69.7z
			 M224.1,86.3c-0.3-0.3-0.4-0.6-0.4-0.9V73.8c0-0.4,0.1-0.7,0.4-1c0.3-0.2,0.6-0.4,0.9-0.4c0.4,0,0.7,0.1,1,0.4
			c0.2,0.2,0.4,0.6,0.4,1v11.5c0,0.4-0.1,0.7-0.4,0.9c-0.2,0.3-0.6,0.4-1,0.4C224.7,86.7,224.4,86.5,224.1,86.3z"/>
	</g>
	<path fill="#FFFFFF" d="M218.3,69.6c-0.3-0.3-0.5-0.7-0.5-1.2s0.2-0.9,0.5-1.2c0.3-0.3,0.7-0.5,1.2-0.5s0.9,0.2,1.2,0.5
		c0.3,0.3,0.5,0.7,0.5,1.2s-0.2,0.9-0.5,1.2s-0.7,0.5-1.2,0.5S218.6,70,218.3,69.6z"/>
	<path fill="#FFFFFF" d="M212.5,69.6c-0.3-0.3-0.5-0.7-0.5-1.2s0.2-0.9,0.5-1.2c0.3-0.3,0.7-0.5,1.2-0.5s0.9,0.2,1.2,0.5
		c0.3,0.3,0.5,0.7,0.5,1.2s-0.2,0.9-0.5,1.2s-0.7,0.5-1.2,0.5S212.9,70,212.5,69.6z"/>
</g>
</svg>
