<?xml version="1.0" encoding="utf-8"?>
<!-- Generator: Adobe Illustrator 24.1.2, SVG Export Plug-In . SVG Version: 6.00 Build 0)  -->
<svg version="1.1" id="Layer_1" xmlns="http://www.w3.org/2000/svg" xmlns:xlink="http://www.w3.org/1999/xlink" x="0px" y="0px"
	 viewBox="0 0 14.9 15.5" style="enable-background:new 0 0 14.9 15.5;" xml:space="preserve">
<style type="text/css">
	.st0{fill:#F20303;}
</style>
<g>
	<path class="st0" d="M13.9,3.2h-1.4c0,0,0,0,0,0h-10c0,0,0,0,0,0H1.2C0.7,3.2,0.4,3.6,0.4,4s0.4,0.8,0.8,0.8h0.6l0.8,7.9
		c0.1,1.4,1.3,2.4,2.6,2.4h4.6c1.4,0,2.5-1,2.6-2.4l0.8-7.9h0.6c0.5,0,0.8-0.4,0.8-0.8S14.3,3.2,13.9,3.2z M10.9,12.6
		c-0.1,0.5-0.5,0.9-1,0.9H5.3c-0.5,0-1-0.4-1-0.9L3.5,4.8h8.2L10.9,12.6z"/>
	<path class="st0" d="M5.7,2.2h3.6c0.5,0,0.8-0.4,0.8-0.8S9.8,0.6,9.3,0.6H5.7c-0.5,0-0.8,0.4-0.8,0.8S5.3,2.2,5.7,2.2z"/>
	<path class="st0" d="M9,12.2c0.5,0,0.8-0.4,0.8-0.8V6.9C9.8,6.4,9.4,6,9,6C8.5,6,8.2,6.4,8.2,6.9v4.5C8.2,11.8,8.5,12.2,9,12.2z"/>
	<path class="st0" d="M6.2,12.2c0.5,0,0.8-0.4,0.8-0.8V6.9C7.1,6.4,6.7,6,6.2,6C5.8,6,5.4,6.4,5.4,6.9v4.5
		C5.4,11.8,5.8,12.2,6.2,12.2z"/>
</g>
</svg>
