<?xml version="1.0" encoding="utf-8"?>
<!-- Generator: Adobe Illustrator 24.1.2, SVG Export Plug-In . SVG Version: 6.00 Build 0)  -->
<svg version="1.1" id="Layer_1" xmlns="http://www.w3.org/2000/svg" xmlns:xlink="http://www.w3.org/1999/xlink" x="0px" y="0px"
	 viewBox="0 0 67 85.6" style="enable-background:new 0 0 67 85.6;" xml:space="preserve">
<style type="text/css">
	.st0{fill:#231F20;}
	.st1{fill:#00A551;}
</style>
<g>
	<path class="st0" d="M53.6,48.5c-0.4-1.9-2.4-3.3-4.5-4.4c-0.2,1.1-1,3.4-2.4,7.4c-1.3,3.6-2,5.4-1.6,5.6c0.8,0.5,4.3-3.9,4.6-3.7
		c0.4,0.3-5,7.6-5,7.6c0,0-1.3,1.4-2.7,2.2c-1,0.6-1.9,0.7-3.4,1c-0.6,0.1-1.4,0.2-4,0.3c-1.3,0-1.4,0-4.6,0c-2.9,0-3.8,0-4.9,0.1
		c-1.4,0.1-1.3,0.2-2.2,0.2c-1.5,0-3,0.1-4.6-0.5c-2.2-0.7-3.6-2.1-4.1-2.6c-0.7-0.7-1.3-1.7-2.4-3.8c-1.2-2.2-1.9-3.3-2-3.9
		c-0.3-1.4,0.2-1.5,0.3-5.6c0-0.3,0-0.8,0.1-1.4c-0.3,0.2-0.5,0.3-0.7,0.2c-0.2-0.1-0.5-0.4-0.7-4.1c-0.2-2.7-0.1-3.2-0.6-4.1
		c-0.8-1.4-2.2-1.8-2-2.1c0.2-0.4,2.3-0.1,4.1,1c0.7,0.4,1.1,0.6,1.5,1.1c0.5,0.6,0.8,1.4,0.9,2.2c0.4-1,0.8-1.9,1.3-2.9
		c2.4-4.9,1.9-5.1,2.7-5.7c0.3-0.2,0.6-0.4,0.9-0.6c-0.6-0.2-0.9-0.3-0.9-0.3s-1.6-0.2-2,0.6c-0.7,1.2-1.2,2.6-1.8,4c0,0,0,0,0,0
		c-0.1,0.1-0.1,0.3-0.2,0.4c-1.1-0.8-2.3-1.1-3.4-1.3c-1-0.2-2.1-0.3-3.2,0c-0.5,0.1-1.5,0.4-1.6,0.9c-0.1,0.5,0.5,0.6,1.1,1.4
		c0,0,0.8,2.4,1,3.5c0.3,1.9,0.5,3.5,1,5.1c0.2,0.8,0.5,2.1,1,2.3c0.1,0.3-0.7,2.9-1.1,3.7C7.1,53.2,6.7,54,6,54.7
		c-2.5,2.5-3,6-3,6.4c0,0.5,3-1.9,3-1.9s-2.6,4.4-2.4,5.3C4.8,64,5.4,63.9,5.9,64c0.3,0.4-2.1,2.6-1.7,3.2c0.3,0.4,1.5-0.4,2,0.1
		c0.4,0.5-0.5,1.4-0.6,3.2c-0.1,1,0.1,1,0.1,2.3c0.1,2.7-0.8,3.2-0.5,4.9c0.2,1.5,1.3,3.2,2.1,3.2c1.2-0.1,1.6-4.1,1.9-4.1
		c0.2,0-0.7,3.1,0.7,4.3c0.6,0.5,1.3,0.2,2,0.8c0.8,0.8,0.4,1.8,1.1,2.2l0.8,0.1c0.8-0.2,1.7-0.9,1.8-0.9c1.3-1,1.6-2.4,1.8-2.4
		c0.3,0.1-0.9,3-0.1,3.6c0.8,0.6,3.3-0.8,5-2.8c1.9-2.4,2.4-5.2,2.6-5.1c0.2,0.1-1.4,4.1-0.2,5c0.9,0.6,2.8-0.5,3.6-1.1
		c1.4-1,2-2.4,2.3-3.1c0.7-1.5,0.8-2.9,0.9-2.9c0.2,0-0.8,4.3,0.5,5c0.9,0.5,2.4-0.8,2.5-0.9c1.2-1,1.4-2.5,1.6-3.6
		c0.3-2,0-3.5,0.1-3.5c0.1,0,0.7,2.4,1,5.7c0.2,1.9,0.1,2.6,0.4,2.7c0.8,0.3,3.1-2.4,3.2-5.5c0.1-2.1-1-4-0.9-4
		c0.1,0,0.6,2.8,2.7,4.1c1.7,1,4,0.7,4.3-0.1c0.2-0.5-0.7-1-2-3.1c-1.3-2.1-1.4-3.3-1.4-3.6c0-0.7,0.8-1.8,0.8-1.8
		c0.9,0.4,2,0.6,3,0.3c2.7-0.8,2-0.7,5.5-1.7c2-0.6,2.6-0.9,3.5-1.4c1.8-0.9,1.6-1.2,3.9-2.6c2-1.2,3-1.4,3-2.1
		c0-0.4-0.5-0.9-1.5-1.8c-0.9-0.9-1.4-1.3-2.1-1.8c-0.4-0.3-0.8-0.5-1.2-0.8c-3.1-1.8-5.4-2.4-5.4-2.4S53.9,50,53.6,48.5z
		 M53.8,54.7c1.2,0.3,2.3,0.7,4,1.6c2.3,1.1,0,1-1.8,2c-1.5,0.8-0.1,2-1.9,3.4c-0.6,0.5-3.7,2.3-5.7,1.9c-1.2-0.3-1.2-1-0.7-1.9
		c0.2-0.4,1.8,0.6,3.2-0.1c1.6-0.9,1.9-1.6,2.2-2.5c0.3-1.3-2-3.3-1.6-4C51.8,54.4,52.9,54.5,53.8,54.7z"/>
	<path class="st0" d="M13.7,84.2l-0.8-0.1C13.1,84.3,13.4,84.3,13.7,84.2z"/>
	<path class="st1" d="M64.6,18.3c-1.7-4.5-4.2-6.8-5-7.7c-2.4-2.8-4.9-4.5-6.3-5.4c-3.9-2.4-7.4-3.1-9.6-3.5
		c-2.4-0.5-4.5-0.8-7.1-0.2c-1.7,0.4-3,1-3.9,1.6c-0.7,0.5-1.6,1.3-2.6,2.4c-1.6,1.8-2.3,2.9-3.2,5c-1.1,2.5-2.3,4-3.1,6
		c-1.3,3.1-1.6,3.1-2.2,4.2c0,0-0.2,0.4-0.6,1.1c0.3-0.2,0.7-0.4,1.1-0.5c1.7-0.6,3.6-0.8,5.4-0.7c0.1-0.1,0.3-0.3,0.5-0.4
		c0.5-0.3,1-0.3,1.3-0.3c2.3,0,4.8,0.9,6.9,1.8c2.9,1.2,2.1,1,3.6,1.6c1.3,0.5,2.1,0.7,3,1.4c0.4,0.3,1.2,1.1,1.2,2.1
		c0,0.1,0,0.2,0,0.3c1,0.7,2.3,1.6,3.9,2.6c0,0,2.5,1.9,7.7,7c0.1,0.1,1.2,1.3,1.7,2c0.4-0.3,0.8-0.6,1.2-0.9c3.9-3.4,5.6-7,6-7.7
		c0.6-1.4,1.3-2.9,1.5-5C66.2,22.5,65.5,20.6,64.6,18.3z"/>
	<path class="st0" d="M21.1,21.8c-0.2,0.2-0.4,0.3-0.4,0.3c-0.2,0.2-1.6,1.2-2,2.8c0,0.1,0,0.2,0,0.2c0.2,0,0.3,0.1,0.5,0.1
		C20,23.8,20.6,22.6,21.1,21.8z"/>
	<path class="st0" d="M55.8,40.1c0.1,0,0.3,0.1,0.8,0.3c0.8-0.7,1-1.2,1-1.2c0-0.1-0.1-0.2-0.3-0.4c-0.7,0.5-1.3,0.9-1.8,1.2
		C55.7,40,55.8,40.1,55.8,40.1z"/>
	<path class="st0" d="M20.1,25.5c1.5,0.5,2.8,0.9,4,1.3c0.1-0.1,0.2-0.2,0.2-0.3c0.4-0.5,1-1.6,2.1-3.8c0.5-1.1,0.8-1.7,1.1-2.1
		c-1.8-0.1-3.7,0.1-5.4,0.7c-0.4,0.2-0.8,0.4-1.1,0.5c-0.4,0.8-1.1,2-2,3.4C19.4,25.3,19.8,25.4,20.1,25.5z"/>
	<path class="st0" d="M48,29.7c-1.6-1-2.9-1.9-3.9-2.6c-0.1,0.8-0.7,1.3-1.4,2.3c-1.2,1.7-1.4,3-1.7,3.9c4.9,2.1,9.9,4.5,14.7,6.7
		c0.5-0.3,1.1-0.7,1.8-1.2c-0.5-0.7-1.6-2-1.7-2C50.5,31.6,48,29.7,48,29.7z"/>
	<path class="st0" d="M38.3,32.2c0.4-0.6,0.5-1.3,1.3-2.8c0,0,0-0.1,0.1-0.1L36,27.8l0.3-0.8l3.8,1.6c0-0.1,0.1-0.1,0.1-0.2
		c0.6-1,0.7-1.3,0.7-1.7c0-0.2,0.1-0.6-0.1-1c-0.3-0.7-1.1-0.9-1.8-1.2c-1.7-0.7-1.2-0.9-3-1.7c-1.3-0.6-0.9-0.2-4-1.1
		c-1.1-0.3-2-0.6-2.5-0.2c-0.2,0.2-0.2,0.3-0.5,0.8c-0.5,0.8-0.9,1.3-1.2,1.6c-0.9,1.1-1,2.7-1.3,3.8c5.1,1.8,7.7,2.9,11.6,4.5
		C38.2,32.2,38.3,32.2,38.3,32.2z"/>
	<path class="st0" d="M28.8,58.4c-0.5,0.2-1.1,0.5-1.7,0.5c-2.1,0-3-0.1-4.5-0.9c-0.9-0.5-1.1-0.9-1.9-1c-0.6-0.1-0.7,0-1.4-0.1
		c-1-0.2-1-0.6-2.3-1c-1.3-0.5-1.3-0.3-1.8-0.8c-0.5-0.5-0.8-1.1-1.2-1.2c-0.3,0-0.5,0.3-0.5,0.5c0,0.2,0.2,0.3,0.6,0.5
		c0.4,0.3,0.7,0.6,1,0.9c0.8,0.8,0.9,1.1,1.5,1.7c0.2,0.2,1,1,2.3,1.5c0.9,0.4,1.8,0.7,2.9,0.8c1.9,0.2,1.9,0.1,3,0.1
		c1.8,0,3.2-0.4,4-0.4c0.8,0,0.8-1.5,0.7-1.6C29.3,57.9,29.2,58.2,28.8,58.4z"/>
	<path class="st0" d="M20,51.7c-0.9-0.5-0.6-1.1-1.3-1.7c-0.7-0.6-1.8-0.9-1.9-0.8c-0.4,0.3,0.7,0.8,1.1,1.2c0.7,0.8,1,1.6,2.1,2.2
		c0.6,0.3,1.8,0.8,3.1,0.8c0.9,0,1.4-0.1,2.2,0.3c0.3,0.1,0.7,0.3,1.2,0.4c0.3,0.1,0.7,0,1.1-0.3c0.3-0.2,0.4-0.5,0.4-0.7
		c0.1-0.4,0.1-0.7,0-0.7c-0.1,0-0.4,0.7-1.2,0.6c-0.5-0.1-0.7-0.3-1.4-0.6c-1.2-0.6-2.3,0.1-2.9,0C22,52.4,20.9,52.2,20,51.7z"/>
	<path class="st0" d="M38,42.7c-1.1-0.6-2.1-1.2-3.6-1.6c-1.3-0.4-2.6-0.4-4.1,0.1c-0.7,0.2-1.6,0.8-1.6,1.3c0,0.3,0.4,0.4,0.5,0.5
		c0.5,0.2,0.9,0.2,1.5,0.1c1.1-0.1,1.7-0.2,1.8-0.2c1.7-0.3,3.2,0.2,3.7,0.3c0.3,0.1,1.5,0.5,2.9,1.6c1.6,1.3,2.2,2.6,2.4,2.5
		c0.1-0.1-0.2-1.6-1-2.6C40.3,44.5,39.7,43.8,38,42.7z"/>
	<path class="st0" d="M16.6,36.2c1.6-0.2,3,0.7,3.4,0.9c0.3,0.2,1,0.8,2.5,2c0.7,0.6,1.2,1,1.5,0.9c0.3-0.2,0.2-1,0.1-1
		c-0.3-1.3-1.5-2.2-2.2-2.6c-0.4-0.2-1.3-0.5-3.2-1C17.6,35,17.4,35,17,35c-1.4,0.1-2.5,1.6-2.4,1.8C14.7,36.9,15.4,36.3,16.6,36.2z
		"/>
	<path class="st0" d="M16.9,42.2c0.1,0.2,0.3,0.4,0.6,0.5c0.5,0.2,1.2,0.4,2.1,0.6c0.2,0,0.3,0.1,0.5,0.1c0.3,0.1,0.6,0,0.8-0.1
		c0.1-0.1,0.3-0.1,0.4-0.3c0.3-0.4,0.2-0.8,0.3-0.9c0-0.1,0-0.3-0.1-0.3c-0.1-0.2-0.4-0.7-1.3-1.4c-0.1-0.1-0.2-0.1-0.3-0.2
		c0.3,0.1,0.6,0.3,0.9,0.5c1,0.6,1.3,1.2,1.4,1.1c0.2-0.1,0-1.3-0.9-2.1c-0.3-0.3-1.1-0.9-1.7-1.1c-0.2-0.1-0.5-0.1-1.7,0
		c-0.7,0.1-2.3,0.4-2.3,0.6c0,0.1-0.1-0.1,0.9,0.1c0.1,0-1,0.1-1.2,0.7c-0.1,0.1-0.1,0.3,0,0.4c0.1,0,0.2-0.1,0.3-0.1
		c0.6-0.3,0.5-0.2,1.3-0.3c0.1,0-0.1,0.4-0.2,1C16.5,41.4,16.8,41.9,16.9,42.2z"/>
	<path class="st0" d="M34.4,43.9c-0.7-0.2-1.4,0-1.7,0c-1,0.1-2,0.9-2,1c0,0.1,0.3,0,0.9,0c0,0,0.6,0,1.2,0.1
		c-0.4,0.2-1.1,0.8-1.3,1.3c-0.1,0.5-0.2,0.8-0.1,1c0,0,0.1,0.2,0.1,0.2c0,0.2,0.2,0.4,0.4,0.5c0.1,0.1,0.3,0.1,0.5,0.2
		c2.1,0.7,2.4,0.8,2.9,0.8c0.9,0.1,1.7,0.2,1.9-0.2c0.2-0.4-0.2-1-0.3-1.3c0.7,0.6,1.2,0.8,1.2,0.8c0.1-0.1-0.8-1.5-1.4-2.2
		C35.8,45,35.3,44.1,34.4,43.9z"/>
	<path class="st1" d="M14.4,32.1c0.7-1,1.7-1.8,1.8-2c0.7-0.8,2.1-0.9,4-0.5c-0.3-0.3-0.5-0.6-0.7-0.9c-0.3-0.5-0.8-1.4-0.9-2.6l0,0
		c0,0,0,0,0,0c0-0.3,0-0.7,0.1-1c-5.5-1.6-6.8-1.8-7.7-2c-1-0.2-2.9-0.7-3.7,0c-0.7,0.7-0.4,2.2-0.1,3.6c0.1,0.7,0.5,1.8,1.2,3.1
		c0.7,1.1,0.8,1.7,1.9,3.2c1.6,2.1,2.1,3.3,2.5,3.2c0.1-0.1,0.1-0.3,0.2-0.4C13.6,34.1,14,32.8,14.4,32.1z"/>
	<path class="st1" d="M51.6,41.6c-0.3,0-0.5,0.1-0.8,0.1c2.3,1.2,4.1,2.7,4.9,5c0.8,2,0.2,4.5,0,4.4s-0.1,0.4,0.3,1
		c0.2,0.4,1.2,1,2.3,1.7c0.5,0.3,1,0.6,1.6,1c0.4-0.4,1-0.8,2.5-2.8c1.4-2,1.7-3,1.7-4c0-0.7-0.2-1.7-1.9-3.6c-2-2.2-4.4-3.4-5.5-4
		c-0.3,0.2-0.6,0.5-1,0.7C54.9,41.6,53.5,41.7,51.6,41.6z"/>
	<path class="st1" d="M14.4,32.3c0.4-0.8,2-0.6,2-0.6s0.3,0.1,0.9,0.3c1.6-0.7,3.9-0.3,6.7,0.5c-1.7-1-3-2-3.9-2.9
		c-1.9-0.4-3.3-0.3-4,0.5c-0.2,0.2-1.2,1-1.8,2c-0.5,0.7-0.9,2-1.6,3.8c-0.1,0.1-0.1,0.3-0.2,0.4c0,0,0,0,0,0
		C13.2,34.9,13.8,33.5,14.4,32.3z"/>
	<path class="st1" d="M56.1,52.1c-0.3-0.6-0.5-1-0.3-1s0.7-2.4,0-4.4c-0.9-2.3-2.6-3.7-4.9-5c-0.9,0.1-2,0.1-3-0.1
		c0.9,0.7,1.2,1.3,1.3,2c0,0.1,0,0.3,0,0.5c2.1,1,4.1,2.4,4.5,4.4c0.3,1.5-0.7,2.9-0.7,2.9s2.3,0.6,5.4,2.4
		C57.3,53.1,56.3,52.5,56.1,52.1z"/>
	<path class="st1" d="M24.1,32.6c-2.9-0.9-5.1-1.3-6.7-0.5c3.8,1.4,18.7,7.1,28,10.6c1.1,0.4,2.4,0.9,3.7,1.5c0-0.2,0.1-0.4,0-0.5
		c-0.1-0.7-0.4-1.3-1.3-2c-3.8-0.4-8.2-2-12.3-4C31.3,36.1,27.2,34.4,24.1,32.6z"/>
	<path class="st1" d="M50.8,41.7c0.3,0,0.5-0.1,0.8-0.1c-0.4,0-0.8-0.1-1.3-0.1C50.5,41.5,50.7,41.6,50.8,41.7z"/>
	<path class="st1" d="M18.6,26.1L18.6,26.1C18.6,26.1,18.6,26.1,18.6,26.1C18.6,26.1,18.6,26.1,18.6,26.1z"/>
	<path class="st1" d="M46.4,40.8c0.6,0.3,1,0.6,1.4,0.9c1,0.1,2,0.1,3,0.1c-0.2-0.1-0.3-0.2-0.5-0.2C49.2,41.3,47.8,41.1,46.4,40.8z
		"/>
	<path class="st1" d="M35.5,37.6c4.1,2,8.5,3.6,12.3,4c-0.4-0.3-0.8-0.6-1.4-0.9C43.1,40,39.2,38.9,35.5,37.6z"/>
	<path class="st1" d="M18.6,26.1c0.2-0.3,0.4-0.6,0.6-0.9c-0.2,0-0.3-0.1-0.5-0.1C18.6,25.4,18.5,25.8,18.6,26.1z"/>
	<path class="st1" d="M19.9,28.1l-1.3-1.9c0.1,1.1,0.7,2.1,0.9,2.6c0.2,0.3,0.4,0.6,0.7,0.9c0.9,0.2,1.9,0.4,3,0.8
		C21.1,29,19.9,28.1,19.9,28.1z"/>
	<path class="st1" d="M55.6,40c-0.6,0.4-1,0.6-1.3,0.7c-0.8,0.4-1.7,0.7-2.7,0.8c1.8,0.1,3.2,0,4-0.4c0.4-0.3,0.8-0.5,1-0.7
		c-0.4-0.2-0.7-0.3-0.8-0.3C55.8,40.1,55.7,40,55.6,40z"/>
	<path class="st1" d="M29.2,34.3c-2.4-1.4-4.5-2.8-6.1-3.8c-1.1-0.4-2.1-0.6-3-0.8c0.9,1,2.2,1.9,3.9,2.9c1.1,0.3,2.4,0.8,3.7,1.2
		C28.3,33.9,28.8,34.1,29.2,34.3z"/>
	<path class="st1" d="M29.2,34.3c-0.5-0.2-0.9-0.3-1.4-0.5c-1.3-0.5-2.6-0.9-3.7-1.2c3,1.8,7.1,3.6,11.4,5.1
		C33.3,36.6,31.2,35.4,29.2,34.3z"/>
	<path class="st1" d="M40,34.4c-1.1,0.3-2.7-0.6-2.6-1.2c0-0.2,0.2-0.3,0.6-0.6c0.2-0.1,0.3-0.3,0.4-0.4c0,0-0.1,0-0.1-0.1
		c-3.9-1.6-6.5-2.7-11.6-4.5c-0.1,0.5-0.3,0.9-0.7,1.1C25.2,29,24,28.1,24,27.4c0-0.2,0.1-0.4,0.2-0.5c-1.2-0.4-2.5-0.9-4-1.3
		c-0.3-0.1-0.7-0.2-1-0.3c-0.2,0.3-0.4,0.6-0.6,0.9c0,0,0,0,0,0l1.3,1.9c0,0,1.3,0.9,3.3,2.3c5.1,1.7,12.6,5.1,21,8.4
		c2.3,0.9,4.4,1.7,6.2,2.6c0.5,0.1,0.9,0.1,1.3,0.1c1-0.2,1.9-0.4,2.7-0.8c0.2-0.1,0.7-0.4,1.3-0.7c-4.8-2.2-9.8-4.7-14.7-6.7
		C40.7,33.9,40.5,34.3,40,34.4z"/>
	<path class="st1" d="M46.4,40.8c1.4,0.3,2.7,0.5,3.9,0.7c-1.8-0.9-3.9-1.7-6.2-2.6c-8.4-3.3-15.9-6.8-21-8.4
		c1.6,1.1,3.7,2.4,6.1,3.8C38.9,37.6,43.9,39.4,46.4,40.8z"/>
	<path class="st1" d="M35.5,37.6c3.7,1.3,7.6,2.4,10.9,3.1c-2.6-1.4-7.5-3.2-17.2-6.5C31.2,35.4,33.3,36.6,35.5,37.6z"/>
	<path class="st1" d="M38,32.6c-0.4,0.3-0.6,0.4-0.6,0.6c0,0.6,1.5,1.6,2.6,1.2c0.5-0.2,0.7-0.5,0.9-1.1c-0.9-0.4-1.7-0.7-2.6-1.1
		C38.2,32.3,38.1,32.5,38,32.6z"/>
	<path class="st1" d="M25.9,28.7c0.4-0.1,0.6-0.5,0.7-1.1c-0.8-0.3-1.6-0.5-2.5-0.8C24,27,24,27.1,24,27.4
		C24,28.1,25.2,29,25.9,28.7z"/>
</g>
</svg>
