<?xml version="1.0" encoding="utf-8"?>
<!-- Generator: Adobe Illustrator 17.1.0, SVG Export Plug-In . SVG Version: 6.00 Build 0)  -->
<!DOCTYPE svg PUBLIC "-//W3C//DTD SVG 1.1//EN" "http://www.w3.org/Graphics/SVG/1.1/DTD/svg11.dtd">
<svg version="1.1" xmlns="http://www.w3.org/2000/svg" xmlns:xlink="http://www.w3.org/1999/xlink" x="0px" y="0px"
	 viewBox="0 0 792 528" enable-background="new 0 0 792 528" xml:space="preserve">
<g id="Layer_1">
	<g>
		<rect fill="#4D4D4D" width="792" height="528"/>
		<rect x="3" y="3" fill="#E30A17" width="786" height="522"/>
		<path fill="#FFFFFF" d="M298.3,369.2c-58.7,0-106.3-47.6-106.3-106.3c0-58.6,47.6-106.2,106.3-106.2c29.3,0,55.8,11.8,74.9,31
			c-23.8-34-63.2-56.3-107.8-56.3c-72.6,0-131.6,58.9-131.6,131.5c0,72.7,58.9,131.5,131.6,131.5c44.6,0,84.1-22.3,107.8-56.2
			C354,357.3,327.5,369.2,298.3,369.2z"/>
		<polygon fill="#FFFFFF" points="425.6,206.5 450.2,242 491.5,229.5 465.3,263.8 489.9,299.3 449.2,285 423.1,319.3 424,276.2 
			383.4,262 424.7,249.6 		"/>
	</g>
</g>
<g id="Layer_2" display="none">
	<g display="inline">
		<path fill="#231F20" d="M0,528V0h792v526.4v1.6H0z M790.4,526.4v-1.7V526.4z M3.3,524.7h785.5V3.2H3.3V524.7z"/>
		<rect x="1.7" y="1.6" fill="#E30A17" width="788.7" height="525.8"/>
		<path fill="#FFFFFF" d="M298.3,370.8c-58.7,0-106.3-47.6-106.3-106.3c0-58.6,47.6-106.2,106.3-106.2c29.3,0,55.8,11.8,74.9,31
			c-23.8-34-63.2-56.3-107.8-56.3c-72.6,0-131.6,58.9-131.6,131.5c0,72.7,58.9,131.5,131.6,131.5c44.6,0,84.1-22.3,107.8-56.2
			C354,358.9,327.5,370.8,298.3,370.8z"/>
		<polygon fill="#FFFFFF" points="425.6,208.2 450.2,243.6 491.5,231.2 465.3,265.4 489.9,300.9 449.2,286.7 423.1,320.9 424,277.8 
			383.4,263.6 424.7,251.3 		"/>
	</g>
</g>
</svg>
